<?xml version="1.0" encoding="utf-8"?>
<!-- Generator: Adobe Illustrator 16.0.0, SVG Export Plug-In . SVG Version: 6.00 Build 0)  -->
<!DOCTYPE svg PUBLIC "-//W3C//DTD SVG 1.1//EN" "http://www.w3.org/Graphics/SVG/1.1/DTD/svg11.dtd">
<svg version="1.1" id="Layer_1" xmlns="http://www.w3.org/2000/svg" xmlns:xlink="http://www.w3.org/1999/xlink" x="0px" y="0px"
	 width="656.967px" height="856.458px" viewBox="0 0 656.967 856.458" enable-background="new 0 0 656.967 856.458"
	 xml:space="preserve">
<g>
	<path fill-rule="evenodd" clip-rule="evenodd" d="M174.358,470.786c-2.949,11.369-5.679,21.963-8.451,32.546
		c-1.055,4.022-1.824,8.181-3.423,11.982c-1.637,3.892-4.029,7.486-6.271,11.1c-3.943,6.359-8.269,12.497-11.893,19.028
		c-1.063,1.918-1.024,5.106-0.258,7.276c4.892,13.835,2.46,27.659,0.39,41.487c-6.418,42.862-11.366,85.837-10.704,129.29
		c0.089,5.814-0.697,11.638-0.846,17.464c-0.16,6.331-3.595,9.926-9.025,12.554c-2.253,1.092-4.491,3.173-5.666,5.375
		c-6.408,12.013-7.894,25.289-9.416,38.557c-0.49,4.268-1.519,8.503-2.652,12.656c-1.095,4.007-4.072,5.696-8.079,4.655
		c-4.173-1.085-8.157-2.96-12.359-3.847c-6.586-1.391-13.264-2.431-19.947-3.254c-4.606-0.568-9.323-0.245-13.93-0.818
		c-5.514-0.687-7.047-2.866-6.898-8.267c0.402-14.655,0.771-29.312,1.126-43.967c0.101-4.187-0.921-7.854-4.711-10.351
		c-4.513-2.971-5.91-7.146-5.194-12.521c2.438-18.318,4.719-36.659,6.832-55.018c0.41-3.567,0.537-7.476-0.477-10.843
		c-3.959-13.146-2.889-26.325-1.409-39.624c3.075-27.633,5.317-55.376,9.176-82.896c2.063-14.721,6.075-29.285,10.45-43.539
		c7.267-23.676,15.952-46.916,23.272-70.577c8.8-28.442,17.273-57.005,24.996-85.755c6.559-24.414,20.005-44.717,34.679-64.693
		c8.682-11.818,18.991-20.179,33.11-24.736c13.752-4.438,26.979-10.507,40.432-15.874c1.521-0.607,3.005-1.305,4.911-2.137
		c-0.777-1.382-1.389-2.474-2.003-3.563c-2.938-5.219-6.083-10.333-8.775-15.676c-6.292-12.482-7.255-24.856-1.71-38.357
		c13.056-31.787,28.341-62.414,44.992-92.425c9.706-17.495,19.231-35.129,32.422-50.297c5.855-6.733,12.309-13.246,19.507-18.452
		c16.574-11.988,33.71-9.103,50.144,0.665c13.765,8.182,23.824,20.138,31.82,33.884c0.416,0.716,0.94,1.479,1.026,2.262
		c1.387,12.618,9.28,22.132,15.014,32.797c12.995,24.173,24.968,48.893,37.465,73.334c6.193,12.112,5.797,24.745,3.337,37.548
		c-2.629,13.687-6.64,26.829-16.705,37.761c12.802,5.155,25.108,10.138,37.438,15.065c8.191,3.274,16.459,6.359,24.612,9.724
		c14.546,6.001,24.023,17.498,32.229,30.269c9.694,15.088,13.814,32.305,18.945,49.191c15.376,50.603,29.962,101.489,47.158,151.474
		c8.125,23.616,13.222,47.023,14.981,71.804c1.756,24.703,6.049,49.224,9.17,73.832c1.236,9.744,2.503,19.491,3.364,29.271
		c0.346,3.919,0.391,8.158-0.727,11.859c-4.135,13.697-2.114,27.357-0.666,41.07c0.403,3.809,0.524,7.65,1.03,11.442
		c0.823,6.167-1.116,10.725-6.08,14.803c-2.274,1.867-3.714,6.035-3.718,9.161c-0.016,14.65,0.518,29.305,1.035,43.951
		c0.186,5.265-1.026,7.507-6.273,8.286c-4.423,0.656-9.015,1.237-13.413,0.762c-8.456-0.913-16.14,1.232-23.787,4.291
		c-2.928,1.17-5.946,2.194-9.009,2.926c-4.612,1.102-8.067-0.544-9.01-5.388c-1.489-7.661-2.972-15.357-3.79-23.108
		c-1.086-10.272-4.451-19.761-8.688-29.021c-0.563-1.229-1.694-2.791-2.838-3.07c-9.321-2.274-11.471-9.113-11.646-17.431
		c-0.354-16.822-0.378-33.663-1.255-50.459c-1.434-27.439-3.278-54.86-5.296-82.264c-0.698-9.482-1.799-18.862,0.479-28.276
		c1.203-4.972-0.238-8.845-4.486-12.23c-2.553-2.035-4.679-5.363-5.635-8.522c-7.513-24.837-14.692-49.774-21.984-74.679
		c-0.918-3.136-1.886-6.257-3.874-9.261c-1.668,12.272-3.476,24.527-4.966,36.821c-1.662,13.717-3.043,27.469-4.532,41.207
		c-0.197,1.82-0.783,3.761-0.386,5.457c2.107,8.981,3.381,17.906,0.272,26.934c-0.241,0.701-0.015,1.719,0.316,2.44
		c8.335,18.168,8.522,38.175,12.777,57.257c4.233,18.984,7.599,38.192,10.521,57.428c2.248,14.801-2.421,28.154-12.594,39.042
		c-4.271,4.571-5.624,9.168-5.619,15.17c0.008,10.781-0.608,21.581-1.502,32.329c-0.154,1.854-2.665,4.44-4.609,5.066
		c-11.837,3.812-23.628,8.262-35.804,10.421c-24.563,4.356-49.29,9.519-74.085,10.36c-25.291,0.859-50.76,2.44-76.272-1.277
		c-25.359-3.696-50.829-6.377-75.743-12.673c-6.713-1.696-13.627-2.656-20.253-4.616c-4.33-1.281-5.73-4.558-5.742-9.598
		c-0.03-12.799-1.104-25.603-2.023-38.385c-0.128-1.781-1.554-3.593-2.696-5.158c-7.829-10.729-14.001-22.394-12.91-35.911
		c1.039-12.878,3.806-25.636,6.146-38.386c4.054-22.089,8.318-44.141,12.615-66.184c0.632-3.239,2.379-6.288,2.809-9.531
		c0.624-4.705,0.539-9.505,0.719-14.266c0.204-5.436,0.467-10.871,0.521-16.308c0.071-7.271,0.61-14.616-0.186-21.804
		c-2.381-21.508-5.313-42.954-8.051-64.422C175.615,472.155,175.29,471.94,174.358,470.786z M243.332,237.994
		c-1.542-0.482-3.274-0.661-4.597-1.492c-17.619-11.083-28.598-37.926-23.914-58.172c0.032-0.139-0.312-0.365-1.73-1.928
		c-1.438,8.383-4.868,16.054-3.51,22.753c4.157,20.496,14.493,38.129,31.977,50.178c18.71,12.895,39.051,22.941,61.028,29.169
		c22.62,6.41,45.045,6.047,67.045-2.976c20.141-8.26,36.413-21.77,51.5-37.114c9.623-9.787,15.99-21.035,19.253-34.335
		c3.871-15.776,4.791-31.089-3.128-46.124c-5.271-10.007-9.621-20.495-14.578-30.672c-3.167-6.502-6.69-12.829-10.055-19.234
		c-0.358,0.18-0.716,0.358-1.074,0.538c0.761,1.549,1.55,3.085,2.277,4.65c7.717,16.587,16.442,32.795,22.868,49.868
		c7.616,20.237,2.548,39.891-9.922,56.553c-12.068,16.126-27.107,29.808-43.533,41.696c-13.494,9.767-27.901,17.578-44.819,19.499
		c-18.514,2.103-34.752-4.275-50.075-13.751c-14.573-9.011-29.055-18.171-43.55-27.308c-0.644-0.405-1.027-1.224-1.532-1.85
		c5.155-1.506,9.095,1.399,12.982,3.872c11.514,7.323,22.94,14.787,34.32,22.317c28.279,18.712,56.159,17.424,83.973-1.17
		c17.74-11.86,32.672-26.711,47.02-42.325c7.938-8.638,11.313-19.048,13.315-30.124c1.45-8.03,2.729-16.125-0.518-24.109
		c-11.559-28.419-24.98-55.888-40.995-82.1c-3.232-5.291-4.932-11.504-7.54-17.199c-1.054-2.301-2.169-4.999-4.074-6.419
		c-13.651-10.176-28.827-17.099-45.524-20.732c-12.731-2.771-24.416-0.55-34.196,7.939c-8.888,7.713-17.831,15.648-25.253,24.712
		c-26.577,32.453-43.791,70.14-58.872,108.889c-1.12,2.879-2.173,6.31-1.671,9.209c2.767,15.997,9.322,30.098,21.921,40.95
		C240.186,233.407,241.62,235.862,243.332,237.994z M338.534,762.833c0.017,0.161,0.034,0.321,0.051,0.481
		c5.329,0,10.709,0.478,15.979-0.08c28.298-2.995,56.627-5.822,84.826-9.592c14.273-1.908,27.619-6.754,37.073-18.998
		c8.79-11.385,13.29-23.804,10.658-38.188c-4.461-24.387-8.962-48.768-13.775-73.086c-2.57-12.988-2.816-26.559-9.274-38.657
		c-0.705-1.321-0.716-3.444-0.212-4.907c2.602-7.547,2.075-14.968-0.066-22.486c-0.484-1.699-0.319-3.664-0.109-5.467
		c2.903-24.964,5.869-49.92,8.813-74.879c0.66-5.593,2.901-11.583,1.644-16.71c-4.04-16.46-3.976-33.045-3.411-49.679
		c1.627-47.924,10.32-94.916,19.423-141.824c0.736-3.796-0.286-4.844-3.411-6.067c-18.753-7.344-37.47-14.785-56.1-22.433
		c-3.449-1.416-5.446-1.009-8.148,1.661c-6.739,6.657-13.658,13.212-21.076,19.088c-22.93,18.163-48.784,27.629-78.411,24.948
		c-21.458-1.942-41.055-9.671-59.826-19.701c-13.195-7.051-26.756-13.635-36.819-25.354c-0.797-0.928-3.65-0.88-5.157-0.288
		c-18.442,7.234-36.755,14.807-55.247,21.908c-3.902,1.498-4.398,3.194-3.655,6.942c8.679,43.765,16.455,87.68,18.978,132.317
		c1.099,19.448,1.96,38.954-3.209,58.1c-0.335,1.238-0.226,2.661-0.055,3.963c2.792,21.289,5.894,42.543,8.35,63.87
		c1.416,12.295,4.28,24.694-0.104,37.081c-0.664,1.877-0.157,4.318,0.271,6.404c1.685,8.193,1.642,16.175-1.958,23.938
		c-0.759,1.637-1.125,3.489-1.465,5.281c-5.646,29.752-10.874,59.591-17.018,89.239c-3.979,19.206,0.912,35.501,13.146,50.146
		c0.93,1.112,2.018,2.404,3.299,2.862c9.064,3.24,17.983,7.545,27.353,9.144c23.591,4.024,47.389,6.856,71.12,10.047
		c8.706,1.171,17.449,2.72,26.189,2.811C317.635,764.777,328.087,763.506,338.534,762.833z M494.617,266.307
		c-0.414,1.55-0.655,2.302-0.814,3.071c-8.215,39.793-14.982,79.809-18.308,120.342c-2.351,28.649-2.78,56.876,7.096,84.828
		c9.071,25.673,15.49,52.279,23.272,78.417c0.814,2.735,2.376,5.872,4.576,7.452c6.446,4.628,7.111,10.522,5.946,17.65
		c-0.902,5.525-1.409,11.257-1.036,16.825c1.684,25.085,4.183,50.12,5.537,75.219c1.221,22.604,1.273,45.271,1.967,67.906
		c0.291,9.537,7.194,15.379,16.237,12.71c6.574-1.939,12.389-0.386,18.588,0.578c5.53,0.859,11.401,2.207,16.716,1.2
		c10.076-1.908,19.971-5.021,29.731-8.264c6.88-2.284,9.007-6.141,8.609-13.337c-0.274-4.981-1.08-9.934-1.357-14.914
		c-0.515-9.247-2.501-18.827-0.807-27.682c2.433-12.711,2.542-25.041,0.835-37.658c-2.968-21.928-6.007-43.851-8.578-65.826
		c-1.739-14.865-2.922-29.805-3.997-44.737c-1.083-15.031-7.217-28.505-11.733-42.586c-17.268-53.838-33.832-107.904-50.209-162.021
		c-5.328-17.607-10.62-35.057-21.847-49.996C509.521,278.138,503.316,271.499,494.617,266.307z M158.447,267.681
		c-1.59,1.474-2.628,2.225-3.399,3.188c-4.789,5.975-9.715,11.854-14.229,18.031c-11.24,15.384-21.287,31.397-26.58,50.003
		c-7.284,25.604-14.464,51.248-22.382,76.659c-9.002,28.894-19.164,57.429-28.034,86.361c-4.368,14.245-8.04,28.883-10.118,43.613
		c-3.671,26.019-5.896,52.243-8.698,78.385c-1.454,13.558-3.182,27.024,0.759,40.62c1.42,4.897,0.964,10.565,0.389,15.774
		c-1.845,16.705-3.993,33.382-6.334,50.026c-1.243,8.84,2.93,11.866,9.741,14.443c6.364,2.407,13.022,4.035,19.537,6.051
		c9.34,2.889,18.641,3.045,27.994-0.026c5.157-1.692,10.229-1.803,15.644-0.143c8.521,2.612,15.779-2.347,16.613-11.18
		c0.75-7.946,1.185-15.971,1.035-23.946c-0.704-37.609,3.848-74.757,9.036-111.89c2.423-17.343,7.01-34.741,0.725-52.317
		c-0.754-2.106-0.437-5.303,0.685-7.244c4.069-7.048,8.714-13.762,13.094-20.632c1.667-2.614,3.869-5.119,4.695-7.999
		c5.92-20.615,12.144-41.172,17.091-62.027c4.421-18.639,3.47-37.826,1.521-56.702c-2.887-27.964-6.563-55.856-10.478-83.698
		C164.658,298.119,161.363,283.374,158.447,267.681z M180.569,746.443c0,1.795-0.082,3.238,0.013,4.67
		c0.67,10.13,1.955,20.266,1.824,30.383c-0.065,5.063,1.724,7.324,5.835,8.77c2.023,0.713,4.091,1.399,6.195,1.766
		c5.078,0.885,10.257,1.27,15.276,2.389c36.606,8.162,73.481,13.996,111.136,13.556c13.15-0.154,26.405,0.843,39.432-0.474
		c21.003-2.123,41.976-5.081,62.729-8.934c13.814-2.565,27.227-7.3,40.818-11.068c3.253-0.902,4.089-3.009,4.036-6.345
		c-0.088-5.467,0.652-10.941,0.812-16.419c0.159-5.52,0.034-11.047,0.034-17.58c-13.989,8.237-28.8,10.131-43.642,12.284
		c-27.872,4.044-55.788,7.188-83.988,7.579c-11.633,0.162-23.255,1.059-34.886,1.501c-3.146,0.119-6.334,0.01-9.46-0.357
		c-14.698-1.724-29.407-3.384-44.063-5.424c-23.205-3.231-46.671-5.416-68.361-15.43
		C183.309,746.847,182.121,746.79,180.569,746.443z M48.777,748.915c0,15.964,0.088,31.253-0.037,46.539
		c-0.063,7.709,0.311,8.787,8.19,8.374c13.207-0.693,25.768,1.111,37.995,6.301c6.07,2.577,7.684,1.44,8.899-4.928
		c1.091-5.709,1.335-11.587,2.556-17.261c2.356-10.962,5.138-21.833,7.774-32.869c-5.145-3.016-11.295-2.264-17.491-0.381
		c-8.319,2.527-16.659,2.784-25.076,0.408C64.415,753.074,57.203,751.193,48.777,748.915z M537.834,755.19
		c2.613,9.747,5.555,19.424,7.732,29.271c1.612,7.287,2.209,14.798,3.3,22.202c0.646,4.377,3.257,5.435,7.189,4.093
		c2.048-0.698,4.15-1.279,6.124-2.149c8.377-3.693,17.045-5.428,26.245-4.712c3.623,0.282,7.317-0.082,10.959-0.389
		c3.341-0.28,4.765-1.979,4.518-5.659c-0.567-8.468-0.767-16.966-0.923-25.454c-0.143-7.724-0.03-15.452-0.03-23.632
		c-4.201,1.325-7.648,2.506-11.148,3.499c-11.728,3.329-23.436,6.701-35.741,2.57C549.748,752.71,543.367,752.169,537.834,755.19z
		 M386.999,58.691c-0.616-1.867-0.901-3.873-1.865-5.469c-7.841-12.977-17.501-24.312-30.566-32.326
		c-19.354-11.872-36.173-10.526-52.889,4.845c-6.448,5.93-12.82,12.39-17.497,19.712c-12.339,19.32-23.736,39.24-35.483,58.938
		c-0.694,1.165-1.159,2.468-1.731,3.706c2.527-2.811,4.338-5.973,6.299-9.038c12.504-19.548,26.071-38.203,44.431-52.834
		c11.734-9.352,24.771-13.543,39.613-9.512c7.83,2.126,15.78,4.248,23.134,7.572C369.463,48.361,377.917,53.692,386.999,58.691z"/>
	<path fill-rule="evenodd" clip-rule="evenodd" fill="#FFFFFF" d="M338.534,762.833c-10.446,0.674-20.898,1.944-31.336,1.837
		c-8.74-0.091-17.483-1.64-26.189-2.811c-23.731-3.19-47.529-6.022-71.12-10.047c-9.369-1.599-18.288-5.903-27.353-9.144
		c-1.281-0.458-2.369-1.75-3.299-2.862c-12.233-14.646-17.125-30.94-13.146-50.146c6.144-29.648,11.371-59.487,17.018-89.239
		c0.34-1.792,0.706-3.645,1.465-5.281c3.6-7.764,3.643-15.745,1.958-23.938c-0.429-2.086-0.936-4.527-0.271-6.404
		c4.385-12.387,1.521-24.786,0.104-37.081c-2.456-21.327-5.558-42.581-8.35-63.87c-0.171-1.302-0.28-2.725,0.055-3.963
		c5.169-19.146,4.308-38.651,3.209-58.1c-2.522-44.638-10.299-88.553-18.978-132.317c-0.743-3.748-0.247-5.444,3.655-6.942
		c18.492-7.102,36.805-14.674,55.247-21.908c1.507-0.592,4.36-0.64,5.157,0.288c10.063,11.72,23.624,18.304,36.819,25.354
		c18.771,10.03,38.368,17.759,59.826,19.701c29.627,2.681,55.481-6.785,78.411-24.948c7.418-5.876,14.337-12.431,21.076-19.088
		c2.702-2.67,4.699-3.077,8.148-1.661c18.63,7.647,37.347,15.089,56.1,22.433c3.125,1.224,4.147,2.271,3.411,6.067
		c-9.103,46.908-17.796,93.9-19.423,141.824c-0.564,16.634-0.629,33.219,3.411,49.679c1.258,5.127-0.983,11.117-1.644,16.71
		c-2.944,24.959-5.91,49.915-8.813,74.879c-0.21,1.803-0.375,3.768,0.109,5.467c2.142,7.519,2.668,14.939,0.066,22.486
		c-0.504,1.463-0.493,3.586,0.212,4.907c6.458,12.099,6.704,25.669,9.274,38.657c4.813,24.318,9.314,48.699,13.775,73.086
		c2.632,14.384-1.868,26.803-10.658,38.188c-9.454,12.244-22.8,17.09-37.073,18.998c-28.199,3.77-56.528,6.597-84.826,9.592
		c-5.271,0.558-10.65,0.08-15.979,0.08C338.568,763.154,338.55,762.994,338.534,762.833z M401.834,575.884
		c-0.896-0.229-2.469-0.866-4.085-1.007c-11.106-0.968-22.207-2.292-33.336-2.63c-21.813-0.664-43.642-0.89-65.466-1.037
		c-11.981-0.081-24.006-0.16-35.941,0.712c-13.6,0.993-17.336,6.213-17.194,19.772c0.165,15.729-1.951,31.242-7.334,46.096
		c-7.255,20.02-21.205,31.415-43.012,31.917c-3.313,0.076-5.282,1.639-5.534,4.532c-0.486,5.597-0.803,11.265-0.483,16.863
		c0.65,11.414,3.173,22.683,0.636,34.271c-1.499,6.851-0.277,7.847,6.304,10.262c29.15,10.697,59.46,15.758,90.258,18.127
		c37.333,2.873,74.569,1.857,111.613-3.936c20.26-3.168,40.23-7.579,59.385-15.036c2.434-0.947,5.09-3.437,5.942-5.82
		c1.178-3.291,1.176-7.192,0.915-10.776c-1.072-14.778-2.521-29.529-3.613-44.308c-0.215-2.912-0.998-4.031-4.049-4.209
		c-4.797-0.279-9.72-0.598-14.307-1.897c-13.676-3.875-25.81-9.704-27.666-26.21c-0.072-0.641-0.367-1.261-0.586-1.88
		c-2.853-8.066-6.83-15.933-8.305-24.242C403.72,602.73,403.189,589.706,401.834,575.884z"/>
	<path fill-rule="evenodd" clip-rule="evenodd" fill="#FFFFFF" d="M494.617,266.307c8.699,5.191,14.904,11.831,20.425,19.178
		c11.227,14.939,16.519,32.389,21.847,49.996c16.377,54.117,32.941,108.184,50.209,162.021c4.517,14.081,10.65,27.555,11.733,42.586
		c1.075,14.933,2.258,29.872,3.997,44.737c2.571,21.976,5.61,43.898,8.578,65.826c1.707,12.617,1.598,24.947-0.835,37.658
		c-1.694,8.854,0.292,18.435,0.807,27.682c0.277,4.98,1.083,9.933,1.357,14.914c0.397,7.196-1.729,11.053-8.609,13.337
		c-9.761,3.242-19.655,6.355-29.731,8.264c-5.314,1.007-11.186-0.341-16.716-1.2c-6.199-0.964-12.014-2.518-18.588-0.578
		c-9.043,2.669-15.946-3.173-16.237-12.71c-0.693-22.636-0.746-45.302-1.967-67.906c-1.354-25.099-3.854-50.134-5.537-75.219
		c-0.373-5.568,0.134-11.3,1.036-16.825c1.165-7.128,0.5-13.022-5.946-17.65c-2.2-1.58-3.762-4.717-4.576-7.452
		c-7.782-26.138-14.201-52.744-23.272-78.417c-9.876-27.952-9.446-56.179-7.096-84.828c3.325-40.533,10.093-80.549,18.308-120.342
		C493.961,268.609,494.203,267.857,494.617,266.307z"/>
	<path fill-rule="evenodd" clip-rule="evenodd" fill="#FFFFFF" d="M158.447,267.681c2.916,15.692,6.211,30.438,8.307,45.351
		c3.914,27.842,7.591,55.734,10.478,83.698c1.948,18.876,2.899,38.063-1.521,56.702c-4.947,20.855-11.171,41.412-17.091,62.027
		c-0.826,2.88-3.028,5.385-4.695,7.999c-4.38,6.87-9.024,13.584-13.094,20.632c-1.121,1.941-1.438,5.138-0.685,7.244
		c6.285,17.576,1.698,34.975-0.725,52.317c-5.188,37.133-9.74,74.28-9.036,111.89c0.149,7.976-0.285,16-1.035,23.946
		c-0.834,8.833-8.092,13.792-16.613,11.18c-5.414-1.66-10.486-1.55-15.644,0.143c-9.354,3.071-18.654,2.915-27.994,0.026
		c-6.515-2.016-13.173-3.644-19.537-6.051c-6.812-2.577-10.984-5.604-9.741-14.443c2.341-16.645,4.489-33.321,6.334-50.026
		c0.575-5.209,1.031-10.877-0.389-15.774c-3.94-13.596-2.213-27.063-0.759-40.62c2.802-26.142,5.027-52.366,8.698-78.385
		c2.078-14.73,5.75-29.368,10.118-43.613c8.87-28.933,19.032-57.468,28.034-86.361c7.918-25.411,15.098-51.055,22.382-76.659
		c5.293-18.605,15.34-34.619,26.58-50.003c4.514-6.178,9.439-12.057,14.229-18.031C155.819,269.906,156.857,269.155,158.447,267.681
		z"/>
	<path fill-rule="evenodd" clip-rule="evenodd" fill="#FFFFFF" d="M243.332,237.994c-1.712-2.132-3.146-4.587-5.182-6.341
		c-12.599-10.853-19.154-24.953-21.921-40.95c-0.502-2.899,0.551-6.33,1.671-9.209c15.081-38.749,32.295-76.436,58.872-108.889
		c7.422-9.063,16.365-16.999,25.253-24.712c9.78-8.489,21.465-10.71,34.196-7.939c16.697,3.634,31.873,10.557,45.524,20.732
		c1.905,1.42,3.021,4.118,4.074,6.419c2.608,5.695,4.308,11.908,7.54,17.199c16.015,26.212,29.437,53.681,40.995,82.1
		c3.247,7.984,1.968,16.079,0.518,24.109c-2.002,11.076-5.378,21.486-13.315,30.124c-14.348,15.614-29.279,30.465-47.02,42.325
		c-27.813,18.594-55.693,19.882-83.973,1.17c-11.38-7.53-22.807-14.994-34.32-22.317c-3.888-2.473-7.827-5.378-12.981-3.87
		C243.264,237.946,243.332,237.994,243.332,237.994z"/>
	<path fill-rule="evenodd" clip-rule="evenodd" fill="#FFFFFF" d="M180.569,746.443c1.552,0.347,2.74,0.404,3.741,0.866
		c21.69,10.014,45.156,12.198,68.361,15.43c14.655,2.04,29.364,3.7,44.063,5.424c3.126,0.367,6.313,0.477,9.46,0.357
		c11.631-0.442,23.253-1.339,34.886-1.501c28.2-0.391,56.116-3.535,83.988-7.579c14.842-2.153,29.652-4.047,43.642-12.284
		c0,6.533,0.125,12.061-0.034,17.58c-0.159,5.478-0.899,10.952-0.812,16.419c0.053,3.336-0.783,5.442-4.036,6.345
		c-13.592,3.769-27.004,8.503-40.818,11.068c-20.754,3.853-41.727,6.811-62.729,8.934c-13.026,1.316-26.281,0.319-39.432,0.474
		c-37.654,0.44-74.529-5.394-111.136-13.556c-5.02-1.119-10.198-1.504-15.276-2.389c-2.104-0.366-4.172-1.053-6.195-1.766
		c-4.111-1.445-5.9-3.706-5.835-8.77c0.131-10.117-1.154-20.253-1.824-30.383C180.487,749.681,180.569,748.238,180.569,746.443z"/>
	<path fill-rule="evenodd" clip-rule="evenodd" fill="#FFFFFF" d="M48.777,748.915c8.426,2.278,15.638,4.159,22.811,6.184
		c8.417,2.376,16.757,2.119,25.076-0.408c6.196-1.883,12.347-2.635,17.491,0.381c-2.637,11.036-5.418,21.907-7.774,32.869
		c-1.221,5.674-1.465,11.552-2.556,17.261c-1.216,6.368-2.829,7.505-8.899,4.928c-12.228-5.189-24.788-6.994-37.995-6.301
		c-7.88,0.413-8.254-0.665-8.19-8.374C48.865,780.167,48.777,764.878,48.777,748.915z"/>
	<path fill-rule="evenodd" clip-rule="evenodd" fill="#FFFFFF" d="M537.834,755.19c5.532-3.021,11.913-2.479,18.225-0.36
		c12.306,4.131,24.014,0.759,35.741-2.57c3.5-0.993,6.947-2.174,11.148-3.499c0,8.18-0.112,15.908,0.03,23.632
		c0.156,8.488,0.355,16.986,0.923,25.454c0.247,3.681-1.177,5.379-4.518,5.659c-3.642,0.307-7.336,0.671-10.959,0.389
		c-9.2-0.716-17.868,1.019-26.245,4.712c-1.974,0.87-4.076,1.451-6.124,2.149c-3.933,1.342-6.544,0.284-7.189-4.093
		c-1.091-7.404-1.688-14.915-3.3-22.202C543.389,774.614,540.448,764.937,537.834,755.19z"/>
	<path fill-rule="evenodd" clip-rule="evenodd" fill="#FFFFFF" d="M386.999,58.691c-9.081-4.999-17.535-10.33-26.556-14.406
		c-7.354-3.324-15.304-5.446-23.134-7.572c-14.842-4.031-27.879,0.16-39.613,9.512c-18.359,14.631-31.927,33.286-44.431,52.834
		c-1.961,3.065-3.771,6.228-6.299,9.038c0.572-1.238,1.037-2.541,1.731-3.706c11.747-19.697,23.145-39.617,35.483-58.938
		c4.677-7.322,11.049-13.782,17.497-19.712c16.716-15.371,33.535-16.717,52.889-4.845c13.065,8.015,22.726,19.35,30.566,32.326
		C386.097,54.818,386.382,56.824,386.999,58.691z"/>
	<path fill-rule="evenodd" clip-rule="evenodd" fill="#FFFFFF" d="M243.332,237.994c0,0-0.067-0.048-0.068-0.049
		c0.504,0.624,0.888,1.442,1.531,1.848c14.495,9.137,28.977,18.297,43.55,27.308c15.323,9.476,31.562,15.854,50.075,13.751
		c16.918-1.921,31.325-9.732,44.819-19.499c16.426-11.889,31.465-25.57,43.533-41.696c12.47-16.662,17.538-36.315,9.922-56.553
		c-6.426-17.073-15.151-33.281-22.868-49.868c-0.728-1.565-1.517-3.102-2.277-4.65c0.358-0.18,0.716-0.358,1.074-0.538
		c3.364,6.405,6.888,12.732,10.055,19.234c4.957,10.177,9.308,20.665,14.578,30.672c7.919,15.035,6.999,30.348,3.128,46.124
		c-3.263,13.3-9.63,24.548-19.253,34.335c-15.087,15.345-31.359,28.854-51.5,37.114c-22,9.022-44.425,9.386-67.045,2.976
		c-21.978-6.228-42.318-16.274-61.028-29.169c-17.483-12.049-27.819-29.682-31.977-50.178c-1.358-6.699,2.071-14.37,3.51-22.753
		c1.419,1.563,1.763,1.789,1.73,1.928c-4.684,20.246,6.295,47.089,23.914,58.172C240.057,237.333,241.79,237.511,243.332,237.994z"
		/>
	<path fill-rule="evenodd" clip-rule="evenodd" d="M401.834,575.884c1.354,13.821,1.886,26.846,4.142,39.564
		c1.475,8.31,5.452,16.176,8.305,24.242c0.219,0.619,0.514,1.239,0.586,1.88c1.856,16.506,13.99,22.335,27.666,26.21
		c4.587,1.3,9.51,1.618,14.307,1.897c3.051,0.178,3.834,1.297,4.049,4.209c1.092,14.778,2.541,29.529,3.613,44.308
		c0.261,3.584,0.263,7.485-0.915,10.776c-0.853,2.384-3.509,4.873-5.942,5.82c-19.154,7.457-39.125,11.868-59.385,15.036
		c-37.044,5.793-74.28,6.809-111.613,3.936c-30.798-2.369-61.107-7.43-90.258-18.127c-6.581-2.415-7.803-3.411-6.304-10.262
		c2.537-11.589,0.015-22.857-0.636-34.271c-0.319-5.599-0.003-11.267,0.483-16.863c0.252-2.894,2.222-4.456,5.534-4.532
		c21.807-0.502,35.757-11.897,43.012-31.917c5.383-14.854,7.499-30.367,7.334-46.096c-0.142-13.56,3.595-18.779,17.194-19.772
		c11.936-0.872,23.96-0.793,35.941-0.712c21.824,0.147,43.653,0.373,65.466,1.037c11.129,0.338,22.229,1.662,33.336,2.63
		C399.366,575.018,400.939,575.656,401.834,575.884z"/>
	<path fill-rule="evenodd" clip-rule="evenodd" d="M321.664,574.143c-0.013,0.161-0.026,0.322-0.039,0.483
		c-15.495,0-30.994-0.2-46.483,0.097c-6.275,0.12-12.538,1.267-18.793,2.054c-3.566,0.449-5.021,2.971-5.417,6.227
		c-0.473,3.886-0.887,7.78-1.233,11.68c-1.355,15.251-2.444,30.546-7.928,45.07c-7.753,20.531-22.024,32.524-44.438,33.416
		c-3.546,0.141-4.478,1.879-4.489,4.515c-0.024,5.648,0.396,11.298,0.482,16.95c0.155,10.258,0.524,20.531,0.121,30.771
		c-0.152,3.861,0.557,5.539,4.266,6.887c36.248,13.165,73.948,17.74,112.171,19.231c28.359,1.106,56.585-0.662,84.658-4.717
		c20.792-3.003,41.188-7.709,60.98-14.87c2.849-1.031,5.237-2.239,5.237-5.738c0.001-3.621,0.193-7.259-0.08-10.86
		c-0.969-12.778-2.145-25.541-3.136-38.317c-0.202-2.612-1.157-3.531-3.896-3.898c-5.908-0.792-11.917-1.658-17.549-3.514
		c-10.249-3.376-18.974-9.008-23.17-19.693c-1.796-4.574-3.44-9.208-5.216-13.791c-6.417-16.563-8.522-33.831-8.103-51.439
		c0.112-4.707-0.985-6.79-6.153-7.002C369.517,576.702,345.593,575.358,321.664,574.143z"/>
	<path fill-rule="evenodd" clip-rule="evenodd" fill="#FFFFFF" d="M321.664,574.143c23.93,1.215,47.854,2.559,71.793,3.54
		c5.168,0.212,6.266,2.295,6.153,7.002c-0.42,17.608,1.686,34.877,8.103,51.439c1.775,4.583,3.42,9.217,5.216,13.791
		c4.196,10.686,12.921,16.317,23.17,19.693c5.632,1.855,11.641,2.722,17.549,3.514c2.739,0.367,3.694,1.286,3.896,3.898
		c0.991,12.776,2.167,25.539,3.136,38.317c0.273,3.602,0.081,7.239,0.08,10.86c0,3.499-2.389,4.707-5.237,5.738
		c-19.793,7.161-40.188,11.867-60.98,14.87c-28.073,4.055-56.299,5.823-84.658,4.717c-38.223-1.491-75.923-6.066-112.171-19.231
		c-3.709-1.348-4.418-3.025-4.266-6.887c0.403-10.24,0.034-20.514-0.121-30.771c-0.086-5.652-0.507-11.302-0.482-16.95
		c0.012-2.636,0.943-4.374,4.489-4.515c22.413-0.892,36.685-12.885,44.438-33.416c5.483-14.524,6.572-29.819,7.928-45.07
		c0.347-3.899,0.761-7.794,1.233-11.68c0.396-3.256,1.851-5.777,5.417-6.227c6.255-0.787,12.518-1.934,18.793-2.054
		c15.489-0.297,30.988-0.097,46.483-0.097C321.637,574.465,321.651,574.304,321.664,574.143z"/>
</g>
<g id="sombras">
	<path fill-rule="evenodd" clip-rule="evenodd" fill="#EAEAEA" d="M116.579,751.02c5.713-11,8.489-22.661,8.009-35.084
		c-0.098-2.531-0.107-5.183-1.563-7.236c-3.526-4.978-3.624-10.525-3.462-16.242c0.369-13.024-0.388-25.895-3.834-38.608
		c-2.335-8.615-6.254-16.13-12.561-22.275c-4.115-4.01-6.029-9.173-8.312-14.089c-8.819-18.995-16.706-38.354-23.158-58.323
		c-4.245-13.138-6.771-26.365-6.102-40.162c0.45-9.262,8.948-15.745,16.874-12.282c5.343,2.335,8.418,7.516,10.771,12.689
		c2.418,5.316,5.032,10.475,8.025,15.495c2.27,3.807,5.526,6.075,9.292,7.987c3.014,1.53,4.746,1.047,5.016-2.618
		c0.134-1.821,0.94-3.7,0.662-5.428c-1.719-10.699,4.464-18.503,9.383-26.853c4.195-7.12,4.028-15.312,4.877-23.173
		c2.075-19.212,8.952-36.365,21.233-51.304c5.88-7.152,9.749-15.451,13.74-23.688c1.671-3.447,3.014-7.094,5.023-10.328
		c3.014-4.851,4.498-9.961,4.196-15.627c1.501,4.329,1.016,8.883,1.313,13.319c1.266,18.899,2.309,37.854-1.559,56.579
		c-1.295,6.27-3.826,12.283-5.793,18.414c-3.646,3.927-4.23,9.247-6.157,13.93c-2.586,6.282-4.999,12.673-6.243,19.43
		c-0.858,4.664-3.667,8.581-7.463,10.802c-5.563,3.253-7.392,7.957-7.271,13.682c0.086,4.114-0.511,8.072-1.143,12.071
		c-1.992,3.322-2.67,7.09-1.416,10.57c5.15,14.294,2.411,28.549,0.355,42.846c-5.775,40.155-11.144,80.338-10.269,121.071
		c0.167,7.792-0.349,15.632-1.07,23.4C127.243,747.874,124.808,749.916,116.579,751.02z"/>
	<path fill-rule="evenodd" clip-rule="evenodd" fill="#EAEAEA" d="M479.216,361.909c1.304,9.326,2.275,18.714,3.988,27.966
		c2.564,13.851,5.556,27.73,12.583,40.106c3.9,6.87,9.04,13.031,12.825,20.074c6.038,11.233,9.485,22.902,10.958,35.721
		c1.453,12.637,4.058,25.652,14.07,35.291c1.47,1.415,1.529,3.259,1.488,5.092c-0.108,4.819,0.441,9.58,0.911,14.368
		c0.42,4.268,2.169,4.922,5.94,3.714c11.575-3.711,19.718-11.989,27.878-20.295c1.86-1.894,3.759-3.752,5.699-5.563
		c1.822-1.701,3.345-1.82,3.527,1.162c0.16,2.636,0.469,5.354-0.456,7.9c-5.365,14.769-10.288,29.696-16.862,44.02
		c-5.04,10.983-9.581,22.193-14.469,33.248c-0.924,2.092-2.191,4.14-3.711,5.847c-8.403,9.436-11.935,20.683-13.447,32.973
		c-1.921,15.604-0.382,31.067,0.765,46.586c0.438,5.909,0.528,11.681-1.784,17.568c-4.493,11.436-1.05,22.861,1.464,34.199
		c0.835,3.77,2.528,6.901,5.567,9.3c-9.067-0.264-12.439-3.652-13.028-12.601c-1.482-22.486-0.665-45.032-1.803-67.522
		c-1.272-25.139-3.346-50.221-5.815-75.267c-0.562-5.701-0.041-11.223,1.122-16.756c1.01-4.812,1.097-9.522-1.64-13.899
		c-1.29-4.561-0.187-9.178-0.241-13.763c-0.063-5.284-1.939-9.13-6.701-11.784c-4.325-2.411-6.146-6.789-7.258-11.338
		c-2.629-10.763-6.562-21.114-9.899-31.652c-0.557-1.758-1.295-3.688-2.848-5.018c-12.695-31.655-16.497-64.419-12.464-98.192
		C476.83,382.904,477.161,372.308,479.216,361.909z"/>
	<path fill-rule="evenodd" clip-rule="evenodd" fill="#EAEAEA" d="M333.829,41c2.091,11.96,0.325,23.948-0.462,35.821
		c-1.172,17.658-0.233,35.287-0.813,52.914c-0.261,7.97-0.729,15.943-1.502,23.877c-0.223,2.28-0.484,6.299-2.783,6.313
		c-2.761,0.018-2.222-3.926-2.568-6.155c-2.649-17.08-5.293-34.156-9.102-51.027c-0.989-4.382-1.826-8.879-4.525-12.6
		c-1.329-1.832-2.995-4.039-5.658-3.353c-2.754,0.71-3.464,3.166-3.83,5.837c-1.449,10.569-2.411,21.157-1.999,31.841
		c0.144,3.704-0.601,7.303-1.724,10.799c-0.443,1.379-1.147,3.014-3.054,2.72c-1.568-0.241-1.869-1.741-2.138-3.057
		c-1.331-6.498-2.705-12.989-3.916-19.51c-0.469-2.526-1.382-4.769-2.873-6.83c-2.988-4.129-6.379-4.692-10.017-1.104
		c-15.062,14.854-26.765,31.74-31.57,52.778c-1.567,6.857-0.789,12.625,5.013,17.506c3.909,3.288,6.996,7.538,10.575,11.238
		c2.999,3.101,2.696,4.859-1.661,6.05c-6.945,1.898-11.718,6.697-15.549,12.555c-2.55,3.899-1.981,6.895,2.025,9.705
		c5.132,3.601,10.854,5.729,16.608,7.897c2.169,0.817,4.523,1.236,6.254,2.974c-1.217,1.43-2.883,1.563-4.556,1.439
		c-3.561-0.265-6.904,0.451-10.104,1.973c-1.893,0.735-3.433,1.903-4.872,3.367c-1.125,1.145-2.536,2.477-4.465,1.201
		c-15.289-10.155-22.572-25.284-26.467-42.536c-0.896-3.969,0.262-7.697,1.644-11.207c15.104-38.372,32.215-75.692,58.31-108.131
		c8.797-10.935,18.418-21.065,30.536-28.469C316.388,41.06,324.665,38.687,333.829,41z"/>
	<path fill-rule="evenodd" clip-rule="evenodd" fill="#E9E9E9" d="M352.617,237.542c-5.313-2.075-10.521,0.128-15.71,0.631
		c-7.273,0.706-8.06,0.424-10.283-6.652c-3.595-11.434-1.375-23.143-1.854-34.722c-0.049-1.176,0.379-2.353,1.757-2.703
		c1.287-0.327,2.307,0.295,3.075,1.218c1.277,1.533,2.631,3.046,3.638,4.753c4.714,7.987,11.762,11.797,20.905,12.331
		c11.668,0.681,23.283,0.055,34.828-1.473c9.001-1.19,15.423-6.078,18.002-15.04c2.416-8.394,5.936-16.421,5.852-25.561
		c-0.114-12.492-3.978-23.799-8.956-34.896c-6.597-14.706-14.502-28.822-20.017-44.013c-3.271-9.007-3.737-18.389-3.171-27.86
		c2.477,0.964,2.534,3.279,2.963,5.364c1.289,6.272,3.939,11.874,7.37,17.313c16.389,25.978,29.61,53.57,41.138,82.001
		c2.885,7.117,1.886,14.364,0.883,21.657c-1.988,14.456-7.248,27.255-18.242,37.301c-3.179,2.904-5.524,6.657-9.169,9.102
		c-1.418-0.5-2.374,0.624-3.554,0.956c-3.14,0.882-6.147,0.995-7.48-2.935c0.371-4.708-3.992-3.272-5.329-4.387
		c-1.425-0.572-0.922,0.34-0.83-0.32c1.508,0.252,3.24,0.318,2.217,2.677c-1.279,1.018-2.813,1.377-4.358,1.721
		c-10.269-1.479-20.032,0.813-29.712,3.866C355.303,238.273,353.815,239.046,352.617,237.542z"/>
	<path fill-rule="evenodd" clip-rule="evenodd" fill="#E9E9E9" d="M387.009,273.555c-1.133,5.748-6.594,7.636-10.205,11.057
		c-8.324,7.887-18.059,14.467-25.485,23.074c-9.336,10.819-19.886,10.963-31.942,7.53c-10.882-3.099-20.21-8.052-25.739-18.728
		c-3.566-6.888-11.094-9.793-16.635-14.723c-3.684-3.276-8.021-6.031-9.764-11.045c12.325,5.302,24.515,10.911,37.64,14.145
		c27.433,6.759,53.637,4.038,78.538-9.623C384.575,274.607,385.81,274.114,387.009,273.555z"/>
	<path fill-rule="evenodd" clip-rule="evenodd" fill="#E9E9E9" d="M189.04,578.333c1.603-0.24,2.028,0.869,2.253,2.068
		c2.36,12.632,11.96,18.583,22.173,23.863c6.941,3.589,14.077,6.801,21.011,10.401c1.405,0.729,4.072,1.592,3.431,3.473
		c-0.758,2.22-3.166,1.413-5.232,1.099c-6.202-0.945-12.139-3.175-18.595-3.002c-12.135,0.324-22.847,8.769-26.471,20.504
		c-4.914,15.912-9.96,31.815-12.994,48.172c-2.612,14.083-3.649,28.435,1.868,42.277c1.532,3.845,3.858,7.277,7.484,9.558
		c2.855,1.796,3.224,3.935,1.124,6.541c-2.357,0.099-3.464-1.619-4.747-3.173c-12.032-14.562-16.979-30.691-13.061-49.719
		c6.142-29.825,11.378-59.837,17.136-89.743C185.855,593.195,189.978,586.291,189.04,578.333z"/>
	<path fill-rule="evenodd" clip-rule="evenodd" fill="#E9E9E9" d="M184.156,385.912c2.157,16.318,2.819,32.751,3.726,49.165
		c0.138,2.492,0.262,4.988,0.269,7.483c0.078,25.634,2.281,51.152,4.057,76.697c0.634,9.124,7.292,13.91,13.342,18.94
		c10.158,8.447,22.074,14.194,33.496,20.681c1.212,0.688,3.386,1.024,2.867,2.866c-0.492,1.748-2.562,1.068-3.976,1.135
		c-9.046,0.421-17.856-1.964-26.81-2.363c-7.577-0.337-15.146-2.053-22.773-0.591c1.761-10.015-0.475-19.869-1.599-29.693
		c-2.448-21.419-5.596-42.757-8.392-64.137c-0.664-5.079,1.724-9.682,2.631-14.518c2.052-4.282,1.818-9.04,1.985-13.492
		c0.396-10.519,1.072-21.09,0.102-31.604c-0.53-5.748-1.018-11.512-1.729-17.249C181.121,387.373,180.653,384.835,184.156,385.912z"
		/>
	<path fill-rule="evenodd" clip-rule="evenodd" fill="#E9E9E9" d="M131.168,305.922c-1.072,19.725-1.789,39.548-5.744,58.911
		c-2.17,10.627-3.677,22.168-9.902,31.113c-8.891,12.776-15.53,26.617-22.703,40.245c-1.704,3.239-4.63,5.688-5.669,9.356
		c-0.532,1.881-2.014-0.514-2.916,0.35c6.849-23.643,13.579-47.321,20.587-70.916c5.017-16.892,8.688-34.221,15.799-50.443
		C123.487,317.998,126.897,311.7,131.168,305.922z"/>
	<path fill-rule="evenodd" clip-rule="evenodd" fill="#E9E9E9" d="M405.075,577.934c2.773,7.971,2.778,7.782,11.352,8.013
		c13.711,0.367,27.263-1.24,40.834-2.884c2.566-0.311,4.524-1.288,6.224-3.146c-0.347,4.42,0.684,8.377,2.589,12.428
		c3.192,6.791,3.391,14.464,4.725,21.797c3.562,19.588,7.189,39.163,10.754,58.751c0.295,1.622,0.317,3.298,0.468,4.948
		c-4.685-6.933-6.884-14.81-7.786-23.098c-1.563-14.334-7.595-26.238-16.344-37.35c-6.66-8.458-14.103-15.136-23.595-19.575
		c-3.778-1.767-7.66-1.986-11.67-1.949c-3.493,0.032-6.99,0.215-10.467-0.628c-5.576-1.353-5.595-1.269-6.179,4.901
		c-3.496-1.461-2.439-4.845-2.482-7.397C403.414,587.781,402.096,582.573,405.075,577.934z"/>
	<path fill-rule="evenodd" clip-rule="evenodd" fill="#E9E9E9" d="M45.402,631.501c5.06,12.78,9.857,25.674,15.252,38.311
		c5.6,13.117,7.498,26.618,7.232,40.826c-0.149,8.028,1.62,16.175,3.232,24.125c1.085,5.35-0.864,10.63,0.544,15.855
		c-8.573-1.854-17.096-3.865-24.914-8.058c1.091-7.917,3.252-15.61,5.03-23.376c1.798-7.849,1.717-15.828,2.358-23.758
		c0.219-2.697-0.125-5.561-2.158-7.469c-3.07-2.883-4.113-6.38-4.267-10.351c0.765-7.222-0.816-14.182-2.568-21.075
		C43.008,648.129,43.822,639.829,45.402,631.501z"/>
	<path fill-rule="evenodd" clip-rule="evenodd" fill="#E9E9E9" d="M272.043,65.848c8.329-14.076,17.756-27.324,30.017-38.283
		c16.228-14.505,31.83-16.345,50.746-5.756c12.404,6.944,22.128,16.834,29.453,29.044c-1.404,3.072-3.323,1.626-5.298,0.682
		c-8.063-3.855-15.678-8.603-24.253-11.451c-7.421-2.466-14.973-4.661-22.654-5.419c-10.837-1.068-20.759,2.224-29.798,8.604
		c-8.774,6.192-16.443,13.356-22.794,21.998C276.022,67.226,274.237,69.346,272.043,65.848z"/>
	<path fill-rule="evenodd" clip-rule="evenodd" fill="#E8E8E8" d="M590.164,746.443c3.125-16.188,3.676-32.637,5.178-48.995
		c0.651-7.088,2.842-13.994,5.87-20.539c3.002-6.487,5.965-12.992,8.945-19.489c1.827,7.511,1.5,14.994-0.148,22.493
		c-1.059,4.82-1.932,9.681-2.888,14.523c-1.276,7.453-0.156,14.866,0.503,22.267c0.587,6.585,2.038,13.074,2.447,19.689
		C605.367,743.568,597.571,744.62,590.164,746.443z"/>
	<path fill-rule="evenodd" clip-rule="evenodd" fill="#E8E8E8" d="M548.145,376.909c-4.639-0.261-4.046-4.742-4.505-7.046
		c-2.236-11.226-6.695-21.345-13.648-30.285c-4.523-5.816-5.334-12.72-6.829-19.432c-3.742-16.801-11.25-30.813-27.492-38.683
		c-1.068-0.519-2.118-0.984-3.334-0.572c0.509-2.774,1.214-5.53,1.481-8.328c0.438-4.592,2.36-3.764,5.059-1.742
		c11.604,8.696,20.154,19.921,26.224,32.898C536.02,327.065,540.892,352.375,548.145,376.909z"/>
	<path fill-rule="evenodd" clip-rule="evenodd" fill="#E9E9E9" d="M208.636,756.218c-3.237,0.245-5.071,2.038-6.001,4.896
		c-1.625,4.99-3.379,9.944-4.911,14.961c-1.955,6.401-0.534,9.215,5.7,12.252c3.364,1.64,7.265,2.369,9.924,5.233
		c-6.564-0.936-13.142-1.801-19.691-2.825c-8.165-1.276-10.224-3.968-10.56-11.669c-0.41-9.37-1.272-18.727-2.131-28.073
		c-0.291-3.178,0.602-4.31,3.772-2.87C192.416,751.61,200.512,753.948,208.636,756.218z"/>
	<path fill-rule="evenodd" clip-rule="evenodd" fill="#E8E8E8" d="M488.386,278.97c-0.772-0.298-1.813-0.372-2.277-0.928
		c-10.044-12.044-25.222-14.548-38.404-20.743c-9.119-4.285-18.887-4.585-28.711-4.713c-2.129-0.027-3.76,1.247-5.747,1.353
		c3.7-3.798,7.443-7.555,11.081-11.411c1.48-1.569,2.833-1.673,4.839-0.863c19.556,7.891,39.143,15.703,58.768,23.421
		c2.74,1.078,3.524,2.402,2.543,5.239C489.512,273.114,489.062,276.082,488.386,278.97z"/>
	<path fill-rule="evenodd" clip-rule="evenodd" fill="#E8E8E8" d="M235.229,251.701c-2.429,1.707-5.195,0.727-7.774,0.83
		c-14.849,0.6-27.845,7.084-40.962,12.962c-5.696,2.553-11.796,4.507-16.723,8.67c-2.483,2.1-4.318,4.463-4.632,7.793
		c-0.963-4.173-1.887-8.355-2.9-12.516c-0.603-2.469,0.57-3.508,2.735-4.364c18.952-7.496,37.886-15.04,56.771-22.7
		c2.58-1.047,4.237-0.702,6.009,1.406C230.084,246.556,232.722,249.073,235.229,251.701z"/>
	<path fill-rule="evenodd" clip-rule="evenodd" fill="#E8E8E8" d="M464.452,563.777c-2.678-0.071-5.206-0.643-7.731-1.635
		c-9.202-3.617-18.937-4.886-28.645-6.292c-4.416-0.64-8.781-1.642-13.15-2.567c-1.079-0.229-2.657-0.292-2.781-1.675
		c-0.165-1.85,1.689-1.938,2.847-2.066c8.57-0.952,17.186-2.67,25.728-2.386c10.286,0.344,17.867-2.26,21.907-12.313
		c0.725-1.802,2.231-3.288,3.377-4.92c-0.65,6.86-1.328,13.719-1.939,20.583C463.669,554.939,463.801,559.369,464.452,563.777z"/>
	<path fill-rule="evenodd" clip-rule="evenodd" fill="#E8E8E8" d="M409.156,762.415c-2.085,5.956-5.665,10.731-10.589,14.756
		c-7.096,5.8-9.023,19.099-4.172,26.172c-4.408,0.569-8.817,1.139-13.226,1.707c3.798-4.144,3.169-9.268,2.831-14.163
		c-0.504-7.294-2.979-14.195-4.888-21.203c-0.779-2.863-3.073-3.15-5.362-3.6C385.551,764.861,397.354,763.637,409.156,762.415z"/>
	<path fill-rule="evenodd" clip-rule="evenodd" fill="#E7E7E7" d="M90.462,807.845c5.468-6.157,5.546-14.006,6.702-21.389
		c0.638-4.067,1.699-7.916,3.396-11.547c1.653-3.537,1.938-7.103,1.937-10.846c-0.002-2.794-0.895-4.419-3.96-5.166
		c-3.727-0.904-7.402-1.774-11.263-1.682c7.809-1.613,15.316-5.612,23.725-2.261c2.058,0.819,3.265,1.041,2.013,3.458
		c-6.575,12.702-7.954,26.582-9.545,40.408c-0.13,1.122-0.363,2.234-0.597,3.342C100.937,811.361,99.599,811.971,90.462,807.845z"/>
	<path fill-rule="evenodd" clip-rule="evenodd" fill="#E7E7E7" d="M564.698,757.768c-3.21,0.493-6.285,1.502-9.634,1.544
		c-3.876,0.048-5.965,2.178-5.693,6.3c0.172,2.604,0.559,5.04,1.479,7.532c2.676,7.256,5.269,14.53,5.873,22.355
		c0.364,4.716,2.596,8.977,4.816,13.149c-1.517,0.612-3.004,1.309-4.556,1.822c-3.608,1.191-5.618-0.211-6.52-3.741
		c-2.05-8.03-2.54-16.279-3.646-24.433c-1.232-9.087-4.949-17.347-8.264-25.616C547.672,752.01,556.157,755.417,564.698,757.768z"/>
	<path fill-rule="evenodd" clip-rule="evenodd" fill="#E8E8E8" d="M461.703,668.926c-8.223-0.907-16.547-1.2-24.378-4.353
		c-11.197-4.506-20.06-10.927-21.542-24.208c-0.398-3.571-3.902-6.046-4.744-9.664c-0.709-3.053-2.307-5.884-2.275-9.123
		c4.06,5.919,12.122,8.518,13.592,16.658c0.421,2.327,2.655,3.676,4.338,5.313c8.756,8.527,18.153,16.005,29.767,20.407
		C458.622,664.778,461.103,666.071,461.703,668.926z"/>
	<path fill-rule="evenodd" clip-rule="evenodd" fill="#E7E7E7" d="M239.556,631.228c-4.941,22.172-20.934,35.738-43.438,36.851
		c-1.488,0.073-2.977,0.157-4.465,0.235c1.795-5.825,6.991-7.033,11.701-9.569c9.166-4.935,17.24-11.78,26.831-16.152
		c2.76-1.259,4.269-4.104,5.817-6.701C237.003,634.212,237.493,632.108,239.556,631.228z"/>
	<path fill-rule="evenodd" clip-rule="evenodd" fill="#E8E8E8" d="M245.923,580.893c-0.715,4.326-1.43,8.652-2.145,12.979
		c-0.188-4.512-2.97-5.787-7.025-6.426c-4.878-0.769-9.329-3.215-14.165-4.458c-5.954-1.531-11.762-3.436-18.019-3.124
		c-1.425,0.07-2.965,0.197-5.21-1.973C215.944,573.342,230.929,577.209,245.923,580.893z"/>
	<path fill-rule="evenodd" clip-rule="evenodd" fill="#D4D4D4" d="M253.16,233.886c-0.264-1.261-0.923-2.257-1.993-2.978
		c5.104-2.398,10.556-1.985,15.958-1.97c0.038,0.317,0.066,0.636,0.087,0.955c-2.253,2.444-5.793-0.373-8.068,1.975
		c-2.05,0.463-4.89,0.522-1.279,3.294c3.886,2.983,8.055,4.962,12.941,6.055c12.366,2.763,24.771,5.363,37.452,5.392
		c12.176,0.027,24.188-1.944,35.931-5.271c3.677-1.042,7.288-2.315,10.93-3.482c11.043-3.794,22.194-6.847,34.064-4.977
		c2.72,2.1,0.656,2.01-0.949,2.011c-5.655,0.003-11.261-0.035-16.855,1.375c-13.221,3.333-25.836,8.773-39.382,10.981
		c-18.515,3.018-36.779,1.984-54.9-2.691c-3.539-0.913-7.163-1.498-10.72-2.349C261.045,240.931,256.42,238.476,253.16,233.886z"/>
	<path fill-rule="evenodd" clip-rule="evenodd" fill="#E3E3E3" d="M247.381,618.686c3.491,4.163,2.283,9.025,1.693,13.618
		c-0.462,3.588-1.463,7.211-2.858,10.553c-2.927,7.009-4.42,14.498-7.75,21.389c-2.698,5.582-7.345,8.363-12.696,10.103
		c-4.548,1.478-9.379,2.076-14.073,3.114c-5.063,1.119-9.807-0.324-14.565-1.713c6.135-1.36,12.448-1.816,18.317-4.474
		c17.123-7.751,24.591-22.516,29.052-39.497C245.635,627.46,246.43,623.053,247.381,618.686z"/>
	<path fill-rule="evenodd" clip-rule="evenodd" fill="#E5E5E5" d="M433.24,670.855c-2.281,2.24-4.074,2.188-6.813,0.005
		c-3.126-2.49-6.893-3.905-9.875-7.048c-4.697-4.949-8.512-9.896-9.636-16.869c-1.103-6.839-5.717-12.48-7.166-19.367
		c-0.818-3.892-1.364-7.818-2.115-11.711c-0.522-2.71,1.498-2.895,3.44-2.972c1.796,6.532,2.784,13.248,4.884,19.727
		c2.33,7.188,5.804,13.888,8.215,21.072C417.149,662.554,425.361,666.795,433.24,670.855z"/>
	<path fill-rule="evenodd" clip-rule="evenodd" fill="#ECECEC" d="M398.256,591.001c-9.886,0-19.771,0-29.658,0
		c-0.035-0.486-0.07-0.973-0.106-1.459c2.942-1.122,6.042-1.555,9.241-1.626c5.651-0.126,11.307-0.198,16.95-0.489
		c1.867-0.097,3.207,0.563,4.496,1.684C399.194,589.898,399.217,590.69,398.256,591.001z"/>
	<path fill-rule="evenodd" clip-rule="evenodd" fill="#E9E9E9" d="M252.977,731.219c0.633-0.065,1.284-0.264,1.895-0.176
		c22.84,3.298,45.427,0.302,68.044-2.555c26.481-3.345,52.261-9.885,78.002-16.651c8.084-2.125,15.409-6.161,23.136-9.185
		c2.355-0.921,4.678-1.629,7.227-1.749c4.763-0.226,7.613,2.003,8.638,6.538c1.262,5.586-0.438,9-5.205,11.006
		c-10.692,4.499-22.024,6.862-33.387,8.094c-14.925,1.618-29.344,5.384-43.978,8.266c-23.282,4.585-46.87,6.444-70.496,4.746
		C275.386,738.728,263.823,736.522,252.977,731.219z"/>
	<path fill-rule="evenodd" clip-rule="evenodd" fill="#E9E9E9" d="M250.453,594.04c-0.295-3.667,2.467-6.832,1.74-10.573
		c4.183-3.532,5.835-3.019,10.008,0.273c3.709,2.928,8.309,4.718,12.481,7.068c17.555,9.89,36.73,14.026,56.518,16.119
		c12.94,1.369,25.86,1.566,38.8,0.09c1.272-0.146,2.654-0.395,4.191,0.927c-3.903,2.276-8.299,2.709-12.219,3.438
		c-24.612,4.577-49.088,5.808-73.028-4.103c-11.166-4.623-22.729-8.293-34.133-12.335
		C253.426,594.453,251.909,594.333,250.453,594.04z"/>
</g>
<g id="buzo-canguro">
	<path id="buzo-canguro-frente" fill-rule="evenodd" clip-rule="evenodd" fill="none" d="M338.586,762.866
		c-10.447,0.674-20.899,1.943-31.336,1.836c-8.74-0.09-17.483-1.639-26.189-2.811c-23.731-3.189-47.529-6.021-71.12-10.047
		c-9.369-1.598-18.288-5.902-27.353-9.143c-1.281-0.459-2.369-1.75-3.299-2.863c-12.233-14.645-17.125-30.939-13.146-50.146
		c6.144-29.648,11.371-59.486,17.018-89.238c0.34-1.793,0.706-3.645,1.465-5.281c3.6-7.764,3.643-15.746,1.958-23.939
		c-0.429-2.086-0.936-4.527-0.271-6.404c4.385-12.387,1.521-24.785,0.104-37.08c-2.456-21.328-5.558-42.582-8.35-63.871
		c-0.171-1.301-0.28-2.725,0.055-3.963c5.169-19.145,4.308-38.65,3.209-58.099c-2.522-44.638-10.299-88.553-18.978-132.317
		c-0.743-3.748-0.247-5.444,3.655-6.942c18.492-7.102,36.805-14.674,55.247-21.908c1.507-0.592,4.36-0.64,5.157,0.288
		c10.063,11.72,23.624,18.304,36.819,25.354c18.771,10.03,38.368,17.759,59.826,19.701c29.627,2.681,55.481-6.785,78.411-24.948
		c7.418-5.876,14.338-12.431,21.076-19.088c2.703-2.67,4.699-3.077,8.148-1.661c18.631,7.647,37.348,15.089,56.1,22.433
		c3.125,1.224,4.148,2.271,3.412,6.067c-9.104,46.908-17.797,93.9-19.424,141.824c-0.564,16.634-0.629,33.218,3.412,49.679
		c1.258,5.127-0.984,11.117-1.645,16.709c-2.943,24.959-5.91,49.916-8.813,74.879c-0.211,1.803-0.375,3.768,0.109,5.467
		c2.141,7.52,2.668,14.939,0.066,22.486c-0.504,1.463-0.494,3.586,0.211,4.908c6.459,12.098,6.705,25.668,9.275,38.656
		c4.813,24.318,9.314,48.699,13.775,73.086c2.631,14.385-1.869,26.803-10.658,38.188c-9.455,12.244-22.801,17.09-37.074,18.998
		c-28.199,3.77-56.527,6.598-84.826,9.592c-5.27,0.559-10.65,0.08-15.979,0.08C338.62,763.186,338.602,763.026,338.586,762.866z
		 M401.887,575.917c-0.896-0.229-2.469-0.865-4.086-1.006c-11.105-0.969-22.207-2.293-33.336-2.631
		c-21.813-0.664-43.641-0.889-65.465-1.037c-11.981-0.08-24.006-0.16-35.941,0.713c-13.6,0.992-17.336,6.213-17.194,19.771
		c0.165,15.729-1.951,31.242-7.334,46.096c-7.255,20.02-21.205,31.416-43.012,31.918c-3.313,0.076-5.282,1.639-5.534,4.531
		c-0.486,5.598-0.803,11.266-0.483,16.863c0.65,11.414,3.173,22.684,0.636,34.271c-1.499,6.852-0.277,7.848,6.304,10.262
		c29.15,10.697,59.46,15.758,90.258,18.127c37.333,2.873,74.57,1.857,111.613-3.936c20.26-3.168,40.23-7.578,59.385-15.035
		c2.434-0.947,5.09-3.438,5.943-5.82c1.178-3.291,1.176-7.193,0.914-10.777c-1.072-14.777-2.521-29.529-3.613-44.307
		c-0.215-2.912-0.998-4.031-4.049-4.209c-4.797-0.279-9.719-0.598-14.307-1.898c-13.676-3.875-25.809-9.703-27.666-26.209
		c-0.072-0.641-0.367-1.262-0.586-1.881c-2.852-8.066-6.83-15.932-8.305-24.242C403.772,602.762,403.241,589.739,401.887,575.917z"
		/>
	<path id="buzo-canguro-manga-izquierda_1_" fill-rule="evenodd" clip-rule="evenodd" fill="none" d="M494.668,266.34
		c8.699,5.191,14.904,11.831,20.426,19.178c11.227,14.939,16.518,32.389,21.846,49.996c16.377,54.117,32.941,108.184,50.209,162.022
		c4.518,14.08,10.65,27.555,11.734,42.586c1.074,14.932,2.258,29.871,3.996,44.736c2.572,21.977,5.611,43.898,8.578,65.826
		c1.707,12.617,1.598,24.947-0.834,37.658c-1.695,8.855,0.291,18.436,0.807,27.682c0.277,4.98,1.082,9.934,1.357,14.914
		c0.396,7.197-1.73,11.053-8.609,13.338c-9.762,3.242-19.656,6.355-29.732,8.264c-5.314,1.006-11.186-0.342-16.715-1.201
		c-6.199-0.963-12.014-2.518-18.588-0.578c-9.043,2.67-15.947-3.172-16.238-12.709c-0.693-22.637-0.746-45.303-1.967-67.906
		c-1.354-25.1-3.854-50.135-5.537-75.219c-0.373-5.568,0.135-11.301,1.037-16.826c1.164-7.127,0.5-13.021-5.947-17.65
		c-2.199-1.58-3.762-4.717-4.576-7.451c-7.781-26.139-14.201-52.744-23.271-78.418c-9.877-27.951-9.447-56.178-7.096-84.828
		c3.324-40.533,10.092-80.549,18.307-120.342C494.014,268.642,494.254,267.89,494.668,266.34z"/>
	<path id="buzo-canguro-manga-izquierda" fill-rule="evenodd" clip-rule="evenodd" fill="none" d="M158.499,267.714
		c2.916,15.692,6.211,30.438,8.307,45.351c3.914,27.842,7.591,55.734,10.478,83.698c1.948,18.876,2.899,38.064-1.521,56.703
		c-4.947,20.855-11.171,41.412-17.091,62.027c-0.826,2.879-3.028,5.385-4.695,7.998c-4.38,6.871-9.024,13.584-13.094,20.633
		c-1.121,1.941-1.438,5.137-0.685,7.244c6.285,17.576,1.698,34.975-0.725,52.316c-5.188,37.133-9.74,74.281-9.036,111.891
		c0.149,7.975-0.285,16-1.035,23.945c-0.834,8.834-8.092,13.793-16.613,11.18c-5.414-1.66-10.486-1.549-15.644,0.143
		c-9.354,3.072-18.654,2.916-27.994,0.027c-6.515-2.016-13.173-3.645-19.537-6.051c-6.812-2.578-10.984-5.604-9.741-14.443
		c2.341-16.645,4.489-33.322,6.334-50.027c0.575-5.209,1.031-10.877-0.389-15.773c-3.94-13.596-2.213-27.063-0.759-40.621
		c2.802-26.141,5.027-52.365,8.698-78.385c2.078-14.73,5.75-29.367,10.118-43.613c8.87-28.932,19.032-57.467,28.034-86.361
		c7.918-25.411,15.098-51.054,22.382-76.659c5.293-18.605,15.34-34.619,26.58-50.003c4.514-6.178,9.439-12.057,14.229-18.031
		C155.871,269.938,156.909,269.188,158.499,267.714z"/>
	<path id="buzo-canguro-capucha-interior" fill-rule="evenodd" clip-rule="evenodd" fill="none" d="M243.384,238.026
		c-1.712-2.132-3.146-4.587-5.182-6.341c-12.599-10.853-19.154-24.953-21.921-40.95c-0.502-2.899,0.551-6.33,1.671-9.209
		c15.081-38.749,32.295-76.436,58.872-108.889c7.422-9.063,16.365-16.999,25.253-24.712c9.78-8.489,21.465-10.71,34.197-7.939
		c16.697,3.634,31.873,10.557,45.523,20.732c1.906,1.42,3.021,4.118,4.074,6.419c2.609,5.695,4.309,11.908,7.541,17.199
		c16.014,26.212,29.436,53.681,40.994,82.1c3.248,7.984,1.969,16.079,0.518,24.109c-2.002,11.076-5.377,21.486-13.314,30.124
		c-14.348,15.614-29.279,30.465-47.02,42.325c-27.814,18.594-55.694,19.882-83.973,1.17c-11.38-7.53-22.807-14.994-34.32-22.317
		c-3.888-2.473-7.827-5.378-12.981-3.87C243.316,237.979,243.384,238.026,243.384,238.026z"/>
	<path id="buzo-canguro-botamanga-cuerpo" fill-rule="evenodd" clip-rule="evenodd" fill="none" d="M180.621,746.475
		c1.552,0.348,2.74,0.404,3.741,0.867c21.69,10.014,45.156,12.197,68.361,15.43c14.655,2.039,29.364,3.699,44.063,5.424
		c3.126,0.367,6.313,0.477,9.46,0.357c11.631-0.443,23.252-1.34,34.885-1.502c28.201-0.391,56.117-3.535,83.988-7.578
		c14.842-2.154,29.652-4.047,43.643-12.285c0,6.533,0.125,12.061-0.035,17.58c-0.158,5.479-0.898,10.953-0.811,16.42
		c0.053,3.336-0.783,5.441-4.037,6.344c-13.592,3.77-27.004,8.504-40.818,11.068c-20.754,3.854-41.727,6.811-62.729,8.934
		c-13.027,1.316-26.281,0.32-39.432,0.475c-37.654,0.439-74.529-5.395-111.136-13.557c-5.02-1.119-10.198-1.504-15.276-2.389
		c-2.104-0.365-4.172-1.053-6.195-1.766c-4.111-1.445-5.9-3.705-5.835-8.77c0.131-10.117-1.154-20.252-1.824-30.383
		C180.539,749.713,180.621,748.27,180.621,746.475z"/>
	<path id="buzo-canguro-botamanga-izquierda" fill-rule="evenodd" clip-rule="evenodd" fill="none" d="M48.829,748.948
		c8.426,2.277,15.638,4.158,22.811,6.184c8.417,2.375,16.757,2.119,25.076-0.408c6.196-1.883,12.347-2.635,17.491,0.381
		c-2.637,11.035-5.418,21.906-7.774,32.869c-1.221,5.674-1.465,11.551-2.556,17.26c-1.216,6.369-2.829,7.506-8.899,4.928
		c-12.228-5.189-24.788-6.994-37.995-6.301c-7.88,0.414-8.254-0.664-8.19-8.373C48.917,780.2,48.829,764.911,48.829,748.948z"/>
	<path id="buzo-canguro-botamanga-derecha" fill-rule="evenodd" clip-rule="evenodd" fill="none" d="M537.887,755.223
		c5.531-3.021,11.912-2.48,18.225-0.361c12.305,4.131,24.014,0.76,35.74-2.57c3.5-0.992,6.947-2.174,11.148-3.498
		c0,8.18-0.111,15.908,0.031,23.631c0.156,8.488,0.355,16.986,0.922,25.455c0.248,3.68-1.176,5.379-4.518,5.658
		c-3.641,0.307-7.336,0.672-10.959,0.389c-9.199-0.715-17.867,1.02-26.244,4.713c-1.975,0.869-4.076,1.451-6.125,2.148
		c-3.932,1.342-6.543,0.285-7.189-4.092c-1.09-7.404-1.688-14.916-3.299-22.203C543.442,774.647,540.5,764.969,537.887,755.223z"/>
	<path id="buzo-canguro-capucha-2" fill-rule="evenodd" clip-rule="evenodd" fill="none" d="M387.051,58.724
		c-9.082-4.999-17.535-10.33-26.557-14.406c-7.354-3.324-15.303-5.446-23.133-7.572c-14.842-4.031-27.879,0.16-39.614,9.512
		c-18.359,14.631-31.927,33.286-44.431,52.834c-1.961,3.065-3.771,6.228-6.299,9.038c0.572-1.238,1.037-2.541,1.731-3.706
		c11.747-19.697,23.145-39.617,35.483-58.938c4.677-7.322,11.049-13.782,17.497-19.712c16.716-15.371,33.536-16.717,52.889-4.845
		c13.064,8.015,22.725,19.35,30.566,32.326C386.149,54.851,386.434,56.856,387.051,58.724z"/>
	<path id="buzo-canguro-capucha" fill-rule="evenodd" clip-rule="evenodd" fill="none" d="M243.384,238.026
		c0,0-0.067-0.048-0.068-0.049c0.504,0.624,0.888,1.442,1.531,1.848c14.495,9.137,28.977,18.297,43.55,27.308
		c15.323,9.476,31.562,15.854,50.075,13.751c16.918-1.921,31.326-9.732,44.82-19.499c16.426-11.889,31.465-25.57,43.533-41.696
		c12.469-16.662,17.537-36.315,9.922-56.553c-6.426-17.073-15.152-33.281-22.869-49.868c-0.727-1.565-1.516-3.102-2.277-4.65
		c0.359-0.18,0.717-0.358,1.074-0.538c3.365,6.405,6.889,12.732,10.055,19.234c4.957,10.177,9.309,20.665,14.578,30.672
		c7.92,15.035,7,30.348,3.129,46.124c-3.264,13.3-9.631,24.548-19.254,34.335c-15.086,15.345-31.359,28.854-51.5,37.114
		c-22,9.022-44.424,9.386-67.044,2.976c-21.978-6.228-42.318-16.274-61.028-29.169c-17.483-12.049-27.819-29.682-31.977-50.178
		c-1.358-6.699,2.071-14.37,3.51-22.753c1.419,1.563,1.763,1.789,1.73,1.928c-4.684,20.246,6.295,47.089,23.914,58.172
		C240.109,237.365,241.842,237.544,243.384,238.026z"/>
	<path id="buzo-canguro-bolsillo" fill-rule="evenodd" clip-rule="evenodd" fill="none" d="M321.716,574.176
		c23.929,1.215,47.853,2.559,71.792,3.539c5.168,0.213,6.266,2.295,6.154,7.002c-0.42,17.609,1.686,34.877,8.102,51.439
		c1.775,4.584,3.42,9.217,5.217,13.791c4.195,10.686,12.92,16.318,23.17,19.693c5.631,1.855,11.641,2.723,17.549,3.514
		c2.738,0.367,3.693,1.287,3.896,3.898c0.99,12.777,2.166,25.539,3.135,38.318c0.273,3.602,0.082,7.238,0.08,10.859
		c0,3.5-2.389,4.707-5.236,5.738c-19.793,7.162-40.189,11.867-60.98,14.871c-28.074,4.055-56.299,5.822-84.659,4.717
		c-38.223-1.492-75.923-6.066-112.171-19.232c-3.709-1.348-4.418-3.025-4.266-6.887c0.403-10.24,0.034-20.514-0.121-30.771
		c-0.086-5.652-0.507-11.301-0.482-16.949c0.012-2.637,0.943-4.375,4.489-4.516c22.413-0.891,36.685-12.885,44.438-33.416
		c5.483-14.523,6.572-29.818,7.928-45.07c0.347-3.898,0.761-7.793,1.233-11.68c0.396-3.256,1.851-5.777,5.417-6.227
		c6.255-0.787,12.518-1.934,18.793-2.053c15.489-0.297,30.988-0.098,46.483-0.098C321.689,574.499,321.703,574.336,321.716,574.176z
		"/>
</g>
</svg>
