<?xml version="1.0" encoding="utf-8"?>
<!-- Generator: Adobe Illustrator 16.0.0, SVG Export Plug-In . SVG Version: 6.00 Build 0)  -->
<!DOCTYPE svg PUBLIC "-//W3C//DTD SVG 1.1//EN" "http://www.w3.org/Graphics/SVG/1.1/DTD/svg11.dtd">
<svg version="1.1" id="Layer_1" xmlns="http://www.w3.org/2000/svg" xmlns:xlink="http://www.w3.org/1999/xlink" x="0px" y="0px"
	 width="612px" height="792px" viewBox="0 0 612 792" enable-background="new 0 0 612 792" xml:space="preserve">
<g>
	<path fill-rule="evenodd" clip-rule="evenodd" d="M373.866,104.083c32.621,10.613,64.981,20.847,97.109,31.762
		c10.368,3.522,17.437,12.005,24.038,20.462c11.716,15.008,17.403,32.662,22.832,50.619c16.316,53.976,32.816,107.903,50.06,161.587
		c4.525,14.088,10.715,27.575,11.79,42.594c0.915,12.786,1.626,25.604,3.121,38.327c2.486,21.157,5.524,42.25,8.338,63.368
		c2.155,16.174,4.121,32.126,0.076,48.571c-1.893,7.696,0.445,16.455,0.998,24.724c0.378,5.648,0.927,11.288,1.509,16.919
		c0.509,4.917-1.026,8.927-5.163,11.665c-3.953,2.618-4.988,6.345-4.866,10.766c0.398,14.483,0.58,28.976,1.161,43.451
		c0.194,4.829-1.864,7.295-6.283,7.826c-4.61,0.554-9.333,1.232-13.906,0.797c-7.393-0.704-14.211,0.814-20.963,3.425
		c-2.638,1.02-5.296,2-7.991,2.854c-8.121,2.575-11.223,0.98-12.865-7.24c-1.303-6.517-2.289-13.129-2.889-19.746
		c-0.949-10.471-4.527-20.08-8.842-29.489c-0.494-1.077-1.534-2.404-2.559-2.658c-9.508-2.36-11.569-9.334-11.709-17.865
		c-0.275-16.818-0.428-33.649-1.241-50.445c-1.143-23.619-2.741-47.218-4.339-70.812c-0.908-13.411-3.191-26.732-0.466-40.26
		c0.517-2.563-1.762-5.918-3.283-8.605c-2.315-4.094-6.176-7.593-7.503-11.92c-7.704-25.121-14.858-50.41-22.204-75.642
		c-0.482-1.656-1.01-3.3-1.517-4.949c-0.422,0.054-0.845,0.108-1.268,0.162c-1.223,8.95-2.579,17.884-3.642,26.854
		c-2.018,17.029-4.013,34.065-5.677,51.132c-0.379,3.877,0.84,7.884,0.944,11.842c0.124,4.728-0.113,9.468-0.284,14.199
		c-0.09,2.461-1.388,5.468-0.4,7.281c5.678,10.429,6.009,22.081,8.209,33.275c4.911,24.982,9.349,50.058,14.316,75.028
		c3.452,17.358-1.797,32.262-12.093,45.779c-3.708,4.868-5.599,9.711-5.483,15.994c0.181,9.786-0.568,19.609-1.407,29.375
		c-0.152,1.773-2.304,4.237-4.071,4.867c-9.356,3.332-18.691,7.322-28.393,8.979c-27.696,4.729-55.468,9.438-83.402,12.204
		c-18.967,1.878-38.405,1.991-57.372,0.172c-29.106-2.791-58.333-5.648-86.827-12.995c-4.807-1.239-9.918-1.305-14.722-2.552
		c-4.421-1.147-8.801-2.813-12.821-4.958c-1.583-0.846-2.91-3.557-3.044-5.508c-0.92-13.443-1.421-26.915-2.272-40.364
		c-0.104-1.637-1.28-3.353-2.326-4.759c-6.879-9.243-12.575-19.278-12.92-30.878c-0.268-9.03,1.256-18.222,2.882-27.179
		c4.934-27.169,10.288-54.261,15.53-81.372c0.471-2.436,1.611-4.759,1.93-7.201c0.721-5.516,1.249-11.064,1.616-16.616
		c0.369-5.589,0.562-11.195,0.628-16.797c0.077-6.604,0.501-13.272-0.212-19.805c-2.398-21.972-5.234-43.896-7.903-65.838
		c-0.442-0.076-0.884-0.151-1.325-0.228c-0.532,1.58-1.152,3.137-1.581,4.744c-3.384,12.698-6.477,25.483-10.236,38.068
		c-1.23,4.118-4.052,7.796-6.35,11.55c-3.907,6.384-8.1,12.597-11.884,19.051c-0.827,1.411-1.086,3.771-0.521,5.29
		c6.466,17.361,1.81,34.604-0.514,51.802c-4.885,36.149-9.917,72.253-9.015,108.896c0.233,9.462-0.831,18.955-1.259,28.436
		c-0.275,6.102-3.686,9.532-9.094,11.865c-2.123,0.916-4.182,2.987-5.304,5.056c-6.999,12.909-8.095,27.294-9.914,41.486
		c-1.94,15.134-4.904,17.037-19.005,11.573c-8.489-3.289-16.94-5.676-26.233-4.506c-3.712,0.467-7.619-0.326-11.403-0.809
		c-4.69-0.599-6.704-3.077-6.475-8.165c0.638-14.141,0.729-28.305,1.154-42.456c0.148-4.975-0.962-9.122-5.458-12.004
		c-5.021-3.219-4.903-8.18-4.228-13.369c2.34-17.987,4.615-35.983,6.78-53.993c0.313-2.595,0.466-5.462-0.295-7.894
		c-5.316-16.982-2.425-33.949-0.494-50.984c2.718-23.982,4.374-48.112,7.916-71.967c2.281-15.366,6.44-30.561,10.987-45.458
		c6.983-22.883,15.461-45.31,22.51-68.175c9.358-30.357,18.047-60.924,26.845-91.452c6.466-22.439,20.047-40.705,33.511-59.19
		c7.832-10.754,17.124-18.246,30.24-21.794c12.815-3.468,25.203-8.544,37.721-13.073c6.666-2.413,13.185-5.23,19.829-7.703
		c1.24-0.462,3.407-0.776,4.062-0.104c5.871,6.039,13.777,6.646,21.204,7.505c39.933,4.62,79.772,4.135,119.329-3.751
		C366.986,110.812,370.496,108.775,373.866,104.083z M201.978,117.583c-19.119,6.71-38.4,13.507-57.71,20.224
		c-2.93,1.019-2.403,2.853-1.949,5.15c8.544,43.287,16.302,86.711,18.964,130.828c1.192,19.755,2.167,39.627-3.203,59.094
		c-0.298,1.079-0.223,2.323-0.07,3.457c2.479,18.471,5.439,36.891,7.372,55.418c1.574,15.086,5.771,30.215,0.917,45.516
		c-0.609,1.921-0.132,4.32,0.286,6.409c1.61,8.039,1.569,15.865-2.176,23.395c-0.434,0.87-0.551,1.911-0.738,2.887
		c-5.625,29.245-10.761,58.595-17.025,87.701c-4.283,19.901-0.692,37.262,12.563,52.61c1.234,1.43,2.939,2.623,4.656,3.441
		c19.706,9.39,41.042,12.168,62.317,15.053c15.978,2.166,31.995,4.053,48.013,5.907c3.944,0.457,7.969,0.527,11.94,0.37
		c4.815-0.191,9.606-1.017,14.422-1.212c18.29-0.744,36.662-0.517,54.86-2.206c23.172-2.15,46.323-5.131,69.237-9.155
		c8.897-1.563,19.109-4.948,25.233-11.022c11.946-11.85,18.679-27.019,15.252-44.939c-4.97-25.988-9.648-52.032-14.675-78.009
		c-2.073-10.715-2.625-21.809-8.012-31.785c-1.084-2.006-0.689-5.369,0.122-7.729c1.94-5.64,1.91-11.014-0.057-16.586
		c-0.643-1.821-0.866-3.961-0.659-5.888c2.378-22.174,4.811-44.342,7.368-66.495c1.513-13.106,5.197-26.072,0.82-39.396
		c-1.265-3.85-1.046-8.244-1.175-12.399c-1.404-45.06,5.586-89.292,13.329-133.439c2.09-11.916,4.423-23.789,6.66-35.764
		c-1.647-0.586-2.877-1.056-4.127-1.464c-22.618-7.382-45.242-14.75-67.859-22.137c-6.656-2.174-6.649-2.196-8.781,4.593
		c-0.1,0.317-0.171,0.644-0.271,0.961c-13.989,44.325-36.274,83.707-70.916,115.135c-15.698,14.242-10.451,14.412-28.009,0.738
		c-24.652-19.198-42.678-44.285-58.915-70.604C220.295,150.536,211.534,134.261,201.978,117.583z M472.798,140.655
		c-0.475,1.294-0.78,1.881-0.904,2.504c-9.44,47.203-17.714,94.585-19.559,142.805c-0.662,17.295,0.032,34.435,5.45,51.357
		c8.62,26.924,15.862,54.286,24.012,81.366c1.486,4.94,3.502,10.491,7.069,13.855c5.344,5.037,6.702,10.13,5.529,16.931
		c-0.897,5.198-1.559,10.594-1.203,15.825c1.647,24.26,4.151,48.469,5.453,72.744c1.267,23.612,1.383,47.285,2.129,70.928
		c0.307,9.691,8.277,14.826,17.643,12.053c3.047-0.902,6.53-0.96,9.725-0.604c7.063,0.788,14.305,3.753,21.044,2.797
		c11.096-1.572,21.952-5.231,32.713-8.632c6.197-1.959,8.453-6.153,8.039-12.63c-0.415-6.478-1.282-12.927-1.702-19.404
		c-0.472-7.279-2.285-14.967-0.643-21.785c3.414-14.164,2.629-27.995,0.756-42.085c-3.707-27.887-7.331-55.786-10.701-83.715
		c-1.195-9.903-1.423-19.921-2.325-29.865c-1.147-12.643-7.267-23.769-11.036-35.618c-15.788-49.62-31.068-99.402-46.47-149.146
		c-5.112-16.511-8.545-33.612-17.237-48.847C493.666,159.375,485.398,148.45,472.798,140.655z M138.736,142.896
		c-0.506-0.117-1.011-0.234-1.516-0.351c-4.549,5.709-9.245,11.309-13.617,17.15c-11.302,15.099-22.125,30.565-27.615,48.879
		c-9.647,32.176-18.586,64.567-28.476,96.667c-7.094,23.024-15.638,45.601-22.79,68.608c-4.13,13.282-7.922,26.864-9.852,40.595
		c-3.725,26.51-6.001,53.223-8.919,79.847c-1.541,14.063-3.33,28.03,0.801,42.094c1.299,4.421,0.84,9.564,0.312,14.28
		c-1.909,17.027-4.333,33.997-6.266,51.021c-0.809,7.117,1.688,10.704,8.496,13.184c5.309,1.933,10.771,3.442,16.14,5.213
		c10.996,3.626,21.875,4.627,33.288,1.052c4.411-1.382,9.834-0.652,14.553,0.312c8.763,1.788,16.203-3.192,16.482-12.16
		c0.665-21.302,0.268-42.679,1.946-63.896c1.98-25.037,5.51-49.96,8.726-74.886c2.021-15.661,5.188-31.198,0.129-46.905
		c-0.739-2.293-0.489-5.596,0.663-7.681c3.61-6.539,7.981-12.653,11.84-19.063c2.517-4.18,5.465-8.349,6.814-12.937
		c4.409-14.987,7.329-30.457,12.407-45.194c6.022-17.479,6.488-35.276,5.911-53.254c-1.063-33.171-5.694-65.969-11.364-98.623
		C144.281,172.171,141.442,157.545,138.736,142.896z M447.277,618.707c-8.403,2.827-16.08,6.759-24.148,7.881
		c-28.674,3.985-57.443,7.398-86.255,10.225c-12.541,1.229-25.275,0.413-37.919,0.704c-7.807,0.18-15.691,1.604-23.392,0.88
		c-18.201-1.712-36.351-4.112-54.45-6.725c-19.257-2.778-38.649-5.225-56.543-13.739c-1.111-0.529-2.413-0.659-3.93-1.055
		c0,2.077-0.089,3.72,0.014,5.35c0.643,10.133,1.681,20.259,1.809,30.396c0.046,3.62,0.817,6.029,4.016,6.895
		c5.725,1.548,11.653,2.332,17.389,3.844c29.082,7.669,58.868,11.334,88.662,13.966c20.324,1.796,41.021,1.771,61.374,0.228
		c23.675-1.796,47.253-5.582,70.685-9.601c12.528-2.148,24.668-6.582,36.971-10.03c3.281-0.921,4.498-2.866,4.452-6.589
		c-0.08-6.46,0.912-12.926,1.226-19.401C447.451,627.502,447.277,623.051,447.277,618.707z M229.746,133.135
		c2.238,3.733,3.989,6.686,5.771,9.619c17.648,29.037,38.246,55.594,64.684,77.292c2.258,1.854,3.737,2.266,5.779-0.085
		c2.508-2.886,5.388-5.448,7.899-8.331c18.765-21.547,32.286-46.319,44.183-72.082c0.771-1.67,1.47-3.373,2.447-5.628
		C316.631,144.503,273.813,142.893,229.746,133.135z M206.334,115.172c0.336,1.168,0.443,1.987,0.791,2.688
		c16.956,34.126,36.447,66.623,61.881,95.222c10.083,11.339,21.163,21.613,34.58,29.954c42.028-34.355,67.694-78.826,83.075-130.452
		c-3.971-1.435-7.338-2.651-9.807-3.544c-10.375,21.442-19.932,42.687-30.8,63.237c-10.983,20.77-24.401,39.966-42.723,55.747
		c-39.515-30.966-66.687-70.87-89.068-114.917C211.589,113.804,209.09,114.454,206.334,115.172z M29.559,619.324
		c0,16.184,0.37,31.807-0.204,47.395c-0.196,5.332,1.619,6.868,6.168,7.065c1.664,0.071,3.357,0.435,4.985,0.237
		c11.765-1.427,22.729,1.331,33.565,5.667c7.736,3.096,9.257,2.062,10.592-6.092c1.505-9.192,2.249-18.534,4.207-27.621
		c1.482-6.885,4.348-13.471,6.544-20.029c-5.815-3.163-11.707-2.769-17.544-0.953c-9.374,2.915-18.686,2.664-28.034,0.021
		C43.475,623.216,37.105,621.44,29.559,619.324z M515.604,624.76c2.82,10.998,5.54,20.729,7.751,30.576
		c1.198,5.339,1.407,10.893,2.276,16.315c1.712,10.677,2.554,11.353,12.735,7.364c9.786-3.834,19.641-6.072,30.214-5.088
		c3.246,0.302,6.671-0.203,9.857-0.98c1.165-0.284,2.66-2.424,2.674-3.731c0.182-16.424,0.119-32.85,0.119-50.136
		c-3.314,1.012-5.173,1.574-7.029,2.146c-13.887,4.273-27.626,8.294-42.506,3.775C526.677,623.477,520.804,624.76,515.604,624.76z
		 M369.736,113.751c-49.705,11.137-99.12,12.199-148.742,3.55c3.23,8.864,3.527,9.329,12.161,11.74
		c25.293,7.063,51.225,8.823,77.225,7.263c16.367-0.983,32.609-4.204,48.867-6.688c1.969-0.301,4.433-1.854,5.364-3.544
		C366.753,122.183,368.093,117.851,369.736,113.751z"/>
	<path fill-rule="evenodd" clip-rule="evenodd" fill="#FFFFFF" d="M201.978,117.583c9.557,16.678,18.317,32.953,28.006,48.656
		c16.237,26.318,34.263,51.405,58.915,70.604c17.558,13.674,12.311,13.504,28.009-0.738c34.642-31.428,56.927-70.81,70.916-115.135
		c0.1-0.317,0.171-0.644,0.271-0.961c2.132-6.789,2.125-6.767,8.781-4.593c22.617,7.387,45.241,14.755,67.859,22.137
		c1.25,0.408,2.479,0.878,4.127,1.464c-2.237,11.975-4.57,23.848-6.66,35.764c-7.743,44.147-14.733,88.38-13.329,133.439
		c0.129,4.155-0.09,8.55,1.175,12.399c4.377,13.324,0.692,26.29-0.82,39.396c-2.558,22.153-4.99,44.321-7.368,66.495
		c-0.207,1.927,0.017,4.066,0.659,5.888c1.967,5.572,1.997,10.946,0.057,16.586c-0.812,2.36-1.206,5.724-0.122,7.729
		c5.387,9.977,5.938,21.07,8.012,31.785c5.026,25.977,9.705,52.021,14.675,78.009c3.427,17.921-3.306,33.09-15.252,44.939
		c-6.124,6.074-16.336,9.46-25.233,11.022c-22.914,4.024-46.065,7.005-69.237,9.155c-18.198,1.689-36.57,1.462-54.86,2.206
		c-4.815,0.195-9.606,1.021-14.422,1.212c-3.972,0.157-7.996,0.087-11.94-0.37c-16.018-1.854-32.035-3.741-48.013-5.907
		c-21.275-2.885-42.611-5.663-62.317-15.053c-1.717-0.818-3.422-2.012-4.656-3.441c-13.255-15.349-16.846-32.709-12.563-52.61
		c6.265-29.106,11.4-58.456,17.025-87.701c0.188-0.976,0.305-2.017,0.738-2.887c3.745-7.529,3.786-15.355,2.176-23.395
		c-0.418-2.089-0.896-4.488-0.286-6.409c4.854-15.301,0.657-30.43-0.917-45.516c-1.933-18.527-4.893-36.947-7.372-55.418
		c-0.152-1.134-0.228-2.378,0.07-3.457c5.37-19.467,4.396-39.339,3.203-59.094c-2.662-44.117-10.42-87.541-18.964-130.828
		c-0.454-2.298-0.98-4.132,1.949-5.15C163.577,131.09,182.858,124.293,201.978,117.583z"/>
	<path fill-rule="evenodd" clip-rule="evenodd" fill="#FFFFFF" d="M472.798,140.655c12.601,7.795,20.868,18.72,27.781,30.835
		c8.692,15.234,12.125,32.336,17.237,48.847c15.401,49.743,30.682,99.525,46.47,149.146c3.77,11.85,9.889,22.976,11.036,35.618
		c0.902,9.944,1.13,19.962,2.325,29.865c3.37,27.929,6.994,55.828,10.701,83.715c1.873,14.09,2.658,27.921-0.756,42.085
		c-1.643,6.818,0.171,14.506,0.643,21.785c0.42,6.478,1.287,12.927,1.702,19.404c0.414,6.477-1.842,10.671-8.039,12.63
		c-10.761,3.4-21.617,7.06-32.713,8.632c-6.739,0.956-13.981-2.009-21.044-2.797c-3.194-0.356-6.678-0.299-9.725,0.604
		c-9.365,2.773-17.336-2.361-17.643-12.053c-0.746-23.643-0.862-47.315-2.129-70.928c-1.302-24.275-3.806-48.484-5.453-72.744
		c-0.355-5.231,0.306-10.627,1.203-15.825c1.173-6.801-0.186-11.894-5.529-16.931c-3.567-3.364-5.583-8.915-7.069-13.855
		c-8.149-27.08-15.392-54.442-24.012-81.366c-5.418-16.923-6.112-34.063-5.45-51.357c1.845-48.22,10.118-95.602,19.559-142.805
		C472.018,142.536,472.323,141.949,472.798,140.655z"/>
	<path fill-rule="evenodd" clip-rule="evenodd" fill="#FFFFFF" d="M138.736,142.896c2.706,14.649,5.545,29.275,8.094,43.952
		c5.67,32.654,10.301,65.452,11.364,98.623c0.577,17.978,0.111,35.775-5.911,53.254c-5.078,14.737-7.998,30.207-12.407,45.194
		c-1.35,4.588-4.298,8.757-6.814,12.937c-3.858,6.41-8.229,12.524-11.84,19.063c-1.152,2.085-1.402,5.388-0.663,7.681
		c5.059,15.707,1.892,31.244-0.129,46.905c-3.216,24.926-6.745,49.849-8.726,74.886c-1.679,21.217-1.281,42.594-1.946,63.896
		c-0.279,8.968-7.72,13.948-16.482,12.16c-4.719-0.964-10.142-1.693-14.553-0.312c-11.413,3.575-22.292,2.574-33.288-1.052
		c-5.369-1.771-10.831-3.28-16.14-5.213c-6.809-2.479-9.305-6.066-8.496-13.184c1.933-17.024,4.356-33.994,6.266-51.021
		c0.528-4.716,0.987-9.859-0.312-14.28c-4.131-14.063-2.342-28.031-0.801-42.094c2.918-26.624,5.194-53.337,8.919-79.847
		c1.93-13.73,5.722-27.313,9.852-40.595c7.152-23.008,15.696-45.584,22.79-68.608c9.89-32.1,18.828-64.491,28.476-96.667
		c5.49-18.313,16.313-33.78,27.615-48.879c4.372-5.842,9.068-11.441,13.617-17.15C137.726,142.661,138.23,142.778,138.736,142.896z"
		/>
	<path fill-rule="evenodd" clip-rule="evenodd" fill="#FFFFFF" d="M447.277,618.707c0,4.344,0.174,8.795-0.041,13.228
		c-0.313,6.476-1.306,12.941-1.226,19.401c0.046,3.723-1.171,5.668-4.452,6.589c-12.303,3.448-24.442,7.882-36.971,10.03
		c-23.432,4.019-47.01,7.805-70.685,9.601c-20.354,1.544-41.05,1.568-61.374-0.228c-29.794-2.632-59.58-6.297-88.662-13.966
		c-5.735-1.512-11.664-2.296-17.389-3.844c-3.198-0.865-3.97-3.274-4.016-6.895c-0.128-10.138-1.166-20.264-1.809-30.396
		c-0.103-1.63-0.014-3.272-0.014-5.35c1.517,0.396,2.818,0.525,3.93,1.055c17.894,8.515,37.286,10.961,56.543,13.739
		c18.1,2.612,36.249,5.013,54.45,6.725c7.7,0.725,15.585-0.7,23.392-0.88c12.644-0.291,25.378,0.525,37.919-0.704
		c28.812-2.826,57.581-6.239,86.255-10.225C431.197,625.466,438.874,621.534,447.277,618.707z"/>
	<path fill-rule="evenodd" clip-rule="evenodd" fill="#FFFFFF" d="M206.334,115.172c2.756-0.718,5.255-1.368,7.93-2.064
		c22.382,44.047,49.554,83.951,89.068,114.917c18.321-15.781,31.739-34.978,42.723-55.747c10.868-20.551,20.425-41.795,30.8-63.237
		c2.469,0.893,5.836,2.109,9.807,3.544c-15.381,51.626-41.047,96.097-83.075,130.452c-13.417-8.341-24.497-18.615-34.58-29.954
		c-25.434-28.599-44.925-61.096-61.881-95.222C206.777,117.159,206.67,116.34,206.334,115.172z"/>
	<path fill-rule="evenodd" clip-rule="evenodd" fill="#FFFFFF" d="M29.559,619.324c7.547,2.116,13.916,3.892,20.279,5.69
		c9.349,2.643,18.66,2.894,28.034-0.021c5.837-1.815,11.729-2.21,17.544,0.953c-2.196,6.559-5.062,13.145-6.544,20.029
		c-1.958,9.087-2.702,18.429-4.207,27.621c-1.335,8.153-2.855,9.188-10.592,6.092c-10.837-4.336-21.801-7.094-33.565-5.667
		c-1.628,0.197-3.321-0.166-4.985-0.237c-4.549-0.197-6.364-1.733-6.168-7.065C29.929,651.131,29.559,635.508,29.559,619.324z"/>
	<path fill-rule="evenodd" clip-rule="evenodd" fill="#FFFFFF" d="M515.604,624.76c5.199,0,11.072-1.283,16.092,0.241
		c14.88,4.519,28.619,0.498,42.506-3.775c1.856-0.571,3.715-1.134,7.029-2.146c0,17.286,0.063,33.712-0.119,50.136
		c-0.014,1.308-1.509,3.447-2.674,3.731c-3.187,0.777-6.611,1.282-9.857,0.98c-10.573-0.984-20.428,1.254-30.214,5.088
		c-10.182,3.988-11.023,3.313-12.735-7.364c-0.869-5.423-1.078-10.977-2.276-16.315C521.145,645.489,518.425,635.758,515.604,624.76
		z"/>
	<path fill-rule="evenodd" clip-rule="evenodd" fill="#FFFFFF" d="M369.736,113.751c-1.644,4.1-2.983,8.432-5.125,12.321
		c-0.932,1.69-3.396,3.243-5.364,3.544c-16.258,2.483-32.5,5.704-48.867,6.688c-26,1.561-51.932-0.2-77.225-7.263
		c-8.634-2.411-8.931-2.876-12.161-11.74C270.616,125.95,320.031,124.888,369.736,113.751z"/>
</g>
<g id="sombras">
	<path fill-rule="evenodd" clip-rule="evenodd" fill="#EAEAEA" d="M95.58,617.406c0.466-3.317,2.447-6.041,3.563-9.07
		c3.506-9.525,6.014-20.158,2.757-29.383c-5.308-15.027-2.766-30.221-4.662-45.189c-1.471-11.602-4.822-23.32-13.229-32.268
		c-7.609-8.098-11.454-18.139-15.934-27.88c-7.855-17.08-14.451-34.704-19.641-52.729c-2.952-10.257-5.651-20.888-4.79-31.84
		c0.35-4.443,0.678-8.96,5.202-11.776c7.486-4.659,12.011-4.039,17.893,2.541c3.42,3.825,4.925,8.622,7.261,13.008
		c3.633,6.822,6.547,14.246,14.163,18.029c3.555,1.766,5.712,1.139,5.326-3.034c-1.181-12.779,5.764-22.9,11.044-33.416
		c3.162-6.295,4.744-12.748,4.924-19.487c0.516-19.256,7.577-35.782,19.711-50.446c4.364-5.275,7.61-11.303,10.657-17.403
		c4.603-9.217,9.069-18.501,13.595-27.757c1.941,21.105,3.2,42.24-0.831,63.223c-1.244,6.476-3.89,12.682-5.895,19.012
		c-4.441,8.349-8.098,17.037-10.062,26.294c-1.683,7.933-4.778,14.733-11.991,19.121c-2.689,1.636-4.527,4.056-4.469,7.306
		c0.098,5.431-0.672,10.754-1.498,16.084c-1.807,3.541-2.627,7.262-1.261,11.094c5.409,15.181,1.678,30.279-0.281,45.395
		c-3.252,25.098-7.402,50.112-8.831,75.396c-1.212,21.441-0.394,42.966-1.799,64.419C106.028,613.885,103.017,616.871,95.58,617.406
		z"/>
	<path fill-rule="evenodd" clip-rule="evenodd" fill="#EAEAEA" d="M458.607,225.385c1.014,10.22,1.37,20.56,3.221,30.626
		c1.972,10.73,2.97,21.811,7.729,31.878c2.614,5.531,4.935,11.215,8.794,16.117c12.074,15.336,18.413,32.926,20.296,52.26
		c1.104,11.33,5.062,21.725,11.754,30.855c2.466,3.364,3.565,6.604,3.3,10.567c-0.09,1.326,0.034,2.665-0.016,3.995
		c-0.477,12.606,2.418,11.64,12.609,7.679c7.855-3.054,14.212-8.533,19.636-15.039c2.127-2.552,4.463-4.937,6.792-7.31
		c0.943-0.96,2.172-1.704,3.59-0.929c1.424,0.778,1.39,2.229,1.155,3.536c-0.439,2.452-0.921,4.912-1.622,7.299
		c-5.346,18.214-12.82,35.668-20.177,53.085c-4.922,11.653-9.752,23.485-17.904,33.751c-8.145,10.256-9.487,23.231-10.035,35.976
		c-0.609,14.149,1.466,28.206,1.948,42.323c0.156,4.559-0.753,8.813-2.499,13.098c-2.787,6.84-1.872,14.164-0.988,21.202
		c0.61,4.866,2.835,9.516,4.161,14.312c1.2,4.339,3.582,6.995,8.38,6.779c-9.697,2.805-16.45-1.96-17.074-11.846
		c-1.5-23.792-0.543-47.658-2.039-71.435c-1.518-24.102-3.605-48.17-5.668-72.233c-0.466-5.432,0.329-10.621,1.319-15.851
		c0.994-5.253,1.027-10.274-2.817-14.57c0.783-3.604,0.715-7.263,0.801-10.924c0.135-5.721-1.586-10.302-6.576-13.661
		c-4.636-3.121-6.703-8.009-8.068-13.329c-3.07-11.972-6.431-23.862-12.028-34.974c-12.215-30.514-16.052-62.104-12.378-94.712
		C455.65,251.066,456.221,238.123,458.607,225.385z"/>
	<path fill-rule="evenodd" clip-rule="evenodd" fill="#E9E9E9" d="M461.41,561.303c-0.989-0.218-2.231-0.427-2.349-1.551
		c-1.481-14.199-9.717-26.549-11.188-40.71c-0.719-6.922-2.562-13.435-5.957-19.432c-8.764-15.479-19.991-28.572-36.408-36.421
		c-1.02-0.488-2.257-0.887-3.35-0.799c-10.284,0.822-20.236-1.563-30.2-3.325c-9.347-1.652-18.661-3.118-28.208-3.222
		c31.438-4.181,63.349-2.029,94.638-7.579c-0.294,6.952,4.606,12.259,5.766,18.895C449.644,498.586,455.612,529.93,461.41,561.303z"
		/>
	<path fill-rule="evenodd" clip-rule="evenodd" fill="#E9E9E9" d="M111.527,178.648c2.492,5.742-0.149,11.504-0.095,17.262
		c0.078,8.107-0.974,16.231-1.624,24.342c-0.805,10.016-3.436,19.606-7.007,28.957c-1.894,4.957-1.513,10.536-4.431,15.249
		c-1.58,2.552-3.086,5.076-5.137,7.316c-5.47,5.976-8.917,13.206-11.925,20.6c-2.587,6.359-6.027,12.224-9.681,17.964
		c-1.183,1.857-2.567,3.993-5.196,4.374c4.399-15.308,8.763-30.626,13.207-45.92c5.978-20.564,11.937-41.135,18.065-61.654
		C100.757,196.92,105.13,187.275,111.527,178.648z"/>
	<path fill-rule="evenodd" clip-rule="evenodd" fill="#E8E8E8" d="M160.267,249.227c1.273,7.025,3.257,14.009,3.684,21.085
		c1.127,18.719,2.759,37.403,2.536,56.222c-0.154,13.006,1.38,25.72,2.312,39.818c0.395,5.971,1.083,11.923,1.404,17.896
		c0.489,9.063,4.309,16.073,11.687,21.491c10.206,7.498,20.76,14.352,32.254,19.71c0.895,0.417,1.74,0.999,2.498,1.636
		c0.979,0.821,2.829,1.379,2.43,2.848c-0.501,1.842-2.493,1.199-3.899,1.269c-12.567,0.624-24.827-2.244-37.245-3.327
		c-2.98-0.261-5.963-0.508-8.944-0.762c0.325-15.529-2.437-30.786-4.234-46.115c-1.818-15.509-4.195-30.952-6.279-46.431
		c-0.151-1.124-0.117-2.354,0.174-3.444c5.29-19.789,3.938-39.921,3.087-60.016C161.419,263.806,160.764,256.52,160.267,249.227z"/>
	<path fill-rule="evenodd" clip-rule="evenodd" fill="#E9E9E9" d="M169.417,448.291c2.897,13.785,14.009,19.385,25.034,25.004
		c5.768,2.938,11.716,5.524,17.457,8.514c1.534,0.798,4.422,1.611,3.196,4.142c-1.019,2.101-3.539,1.278-5.46,0.84
		c-2.271-0.519-4.474-1.327-6.746-1.83c-9.364-2.072-18.231-1.988-26.445,4.281c-4.9,3.741-8.02,8.459-10.006,13.949
		c-2.482,6.86-4.479,13.901-6.512,20.915c-1.978,6.829-3.735,13.722-5.587,20.587c-2.491,9.239-2.128,18.785-3.104,28.188
		c-1.252,12.078,2.561,22.076,11.075,30.519c1.912,1.896,3.071,4.332,3.989,6.858c-2.54-0.112-4.108-1.608-5.688-3.477
		c-13.074-15.455-16.692-32.749-12.416-52.61c6.256-29.06,11.351-58.368,17.029-87.554
		C166.43,460.47,169.978,454.85,169.417,448.291z"/>
	<path fill-rule="evenodd" clip-rule="evenodd" fill="#E9E9E9" d="M25.5,498.344c0.705,10.439,6.388,19.124,9.942,28.573
		c4.14,11.005,9.961,21.431,11.609,33.335c0.762,5.493,0.51,10.979,0.438,16.459c-0.075,5.706,0.372,11.377,1.695,16.852
		c2.058,8.513,2.688,17.073,2.396,25.762c-8.272-1.925-16.492-4.014-24.193-7.728c-0.925-7.309,1.868-14.035,3.513-20.89
		c2.057-8.576,3.616-17.137,3.179-25.99c-0.132-2.689-0.275-5.482-2.143-7.488c-2.618-2.813-3.596-6.201-4.401-9.745
		c0.801-7.388-0.673-14.542-2.511-21.594C22.61,516.62,24.018,507.501,25.5,498.344z"/>
	<path fill-rule="evenodd" clip-rule="evenodd" fill="#E9E9E9" d="M220.494,150.283c-5.678-0.538-10.138,2.027-14.573,5.218
		c-9.696,6.975-19.253,14.171-29.659,20.106c-1.14,0.649-2.173,1.775-3.587,0.811c-1.277-0.87-1.323-2.367-1.094-3.627
		c1.354-7.459,2.052-14.961,8.612-20.546c9.469-8.062,18.174-16.642,27.309-25.096C211.386,134.211,215.8,141.746,220.494,150.283z"
		/>
	<path fill-rule="evenodd" clip-rule="evenodd" fill="#E9E9E9" d="M565.329,618.241c2.608-1.499,3.911-3.618,4.33-6.738
		c1.366-10.163,3.323-20.179,2.813-30.601c-0.717-14.643,5.325-27.773,10.772-40.952c1.896-4.588,3.495-9.299,5.229-13.954
		c2.179,9.225,1.981,18.404-0.462,27.559c-1.378,5.164-2.126,10.415-1.815,15.78c-1.534,1.754-1.299,3.89-1.073,5.909
		c1.037,9.267,1.787,18.563,2.881,27.82c0.224,1.894-0.108,3.593-0.582,5.343c-2.551,4.193-6.982,5.312-11.187,6.701
		C572.646,616.295,568.968,617.207,565.329,618.241z"/>
	<path fill-rule="evenodd" clip-rule="evenodd" fill="#E8E8E8" d="M541.525,302.429c-1.34-0.605-1.87-1.82-2.345-3.088
		c-3.473-9.269-6.519-18.686-9.747-28.035c-5.523-15.991-8.094-32.921-15.767-48.242c-2.972-5.935-7.736-10.59-10.061-17.103
		c-2.823-7.914-2.697-16.466-6.252-24.098c-4.93-10.58-11.213-19.991-21.822-25.769c-2.041-1.111-3.948-1.94-5.757,0.304
		c0.531-2.928,0.992-5.87,1.608-8.779c1.222-5.761,1.257-5.753,6.107-2.06c11.382,8.667,19.254,20.073,25.601,32.692
		c6.706,13.332,9.815,27.864,14.08,42.007c8.059,26.725,16.007,53.482,23.99,80.23C541.349,301.116,541.407,301.781,541.525,302.429
		z"/>
	<path fill-rule="evenodd" clip-rule="evenodd" fill="#E9E9E9" d="M186.405,626.341c-2.02,4.899-4.128,9.767-6.021,14.71
		c-0.972,2.538-1.768,5.177-2.279,7.835c-1.023,5.318,0.521,7.327,5.606,9.717c2.381,1.119,6.295,0.678,6.604,4.659
		c-7.299-1.301-14.993-0.416-21.912-3.88c-3.08-1.541-4.555-3.258-4.28-7.056c0.718-9.943-1.518-19.787-2.011-29.714
		c-0.209-4.206,0.733-5.2,4.74-3.328C173.133,622.22,179.764,624.307,186.405,626.341z"/>
	<path fill-rule="evenodd" clip-rule="evenodd" fill="#E9E9E9" d="M439.535,431.289c-1.8-0.266-3.755-0.163-5.374-0.853
		c-13.936-5.938-28.956-7.104-43.558-10.106c-1.538-0.316-3.915,0.229-4.018-1.966c-0.111-2.408,2.446-2.561,4.099-2.726
		c8.925-0.889,17.889-2.321,26.804-2.104c9.113,0.224,14.208-4.055,18.048-11.454c0.919-1.769,1.065-5.441,4.907-3.841
		c-0.61,6.75-1.284,13.495-1.811,20.251C438.299,422.786,438.494,427.075,439.535,431.289z"/>
	<path fill-rule="evenodd" clip-rule="evenodd" fill="#E8E8E8" d="M462.529,157.533c-0.137-7.56-5.295-11.873-10.994-14.911
		c-14.396-7.677-29.356-14.206-45.342-17.89c-5.357-1.234-10.918-0.995-16.368,0.102c-0.967,0.194-2.111,0.715-2.803-0.205
		c-0.845-1.125-0.039-2.21,0.675-3.15c1.688-2.225,3.87-4.195,3.683-7.356c18.964,6.056,37.931,12.104,56.891,18.171
		c5.062,1.62,10.1,3.313,15.158,4.944c1.87,0.604,3.268,1.241,2.646,3.796C464.746,146.497,463.694,152.029,462.529,157.533z"/>
	<path fill-rule="evenodd" clip-rule="evenodd" fill="#E8E8E8" d="M383.551,632.59c-0.455,6.26-4.728,10.404-9.188,13.493
		c-8.922,6.177-6.554,15.022-6.806,23.336c-0.057,1.876,1.654,2.712,3.237,3.354c-4.339,1.179-8.797,1.439-13.253,1.715
		c4.674-11.909,0.408-23.092-2.837-34.343c-0.514-1.779-1.778-3.158-3.134-4.408C362.231,634.688,372.892,633.639,383.551,632.59z"
		/>
	<path fill-rule="evenodd" clip-rule="evenodd" fill="#E8E8E8" d="M538.979,627.436c-2.45,1.563-5.301,1.801-8.068,2.065
		c-2.946,0.282-3.942,1.766-4.002,4.442c-0.068,3.117,0.271,6.221,1.576,8.987c2.809,5.952,4.103,12.245,4.842,18.645
		c0.697,6.044,2.874,11.527,5.648,16.865c-0.58,0.292-1.132,0.661-1.743,0.863c-7.35,2.438-8.619,1.845-10.026-5.511
		c-1.001-5.238-1.664-10.547-2.266-15.847c-1.085-9.556-3.304-18.792-7.623-27.481c-1.298-2.611-1.344-3.875,2.301-4.935
		C526.53,623.521,532.661,625.601,538.979,627.436z"/>
	<path fill-rule="evenodd" clip-rule="evenodd" fill="#E8E8E8" d="M71.662,679.055c3.452-6.663,6.261-13.456,6.151-21.215
		c-0.076-5.435,3.168-10.039,4.569-15.124c0.438-1.589,1.068-3.161,1.244-4.781c0.816-7.543,0.1-8.357-7.392-9.669
		c-1.568-0.273-3.048-1.052-4.568-1.598c6.642-2.091,13.209-4.316,20.33-1.7c2.017,0.741,2.946,1.256,1.866,3.337
		c-7.153,13.776-7.856,29.028-10.052,43.938c-0.024,0.164-0.034,0.331-0.063,0.494C82.124,682.157,80.427,683.045,71.662,679.055z"
		/>
	<path fill-rule="evenodd" clip-rule="evenodd" fill="#E8E8E8" d="M205.513,125.064c-6.257-0.942-12.169,1.379-17.717,3.258
		c-11.305,3.827-22.25,8.816-33.113,13.837c-4.681,2.164-9.447,5.002-10.045,11.229c-0.333-1.271-0.734-2.527-0.99-3.813
		c-2.097-10.494-2.066-10.429,8.195-14.011c15.655-5.465,29.6-10.46,43.769-15.475C202.691,117.584,202.691,117.585,205.513,125.064
		z"/>
	<path fill-rule="evenodd" clip-rule="evenodd" fill="#E8E8E8" d="M386.748,124.646c2.37,6.43,6.646,11.288,12.277,15.082
		c4.261,2.871,8.472,5.818,12.649,8.81c1.299,0.931,3.156,1.98,2.059,3.93c-0.939,1.666-2.623,0.732-4.032,0.283
		c-6.792-2.168-13.005-5.76-19.851-7.879c-3.28-1.017-6.515-1.686-9.87-2.06C382.236,136.756,384.492,130.701,386.748,124.646z"/>
	<path fill-rule="evenodd" clip-rule="evenodd" fill="#E0E0E0" d="M445.122,641.483c-0.067-1.968,0.007-3.952-0.228-5.899
		c-0.811-6.727-3.806-9.777-10.873-11.275c3.253-1.559,6.524-3.08,9.753-4.688c2.036-1.015,2.911-0.699,3.008,1.796
		C447.045,628.185,446.73,634.882,445.122,641.483z"/>
	<path fill-rule="evenodd" clip-rule="evenodd" fill="#D5D5D5" d="M75.527,617.135c3.555-5.051,9.636-7.416,13.028-12.728
		c0.032,4.79-2.271,8.327-4.921,11.71C80.933,616.457,78.229,616.796,75.527,617.135z"/>
	<path fill-rule="evenodd" clip-rule="evenodd" fill="#E3E3E3" d="M427.062,661.702c5.199-4.667,11.329-7.661,17.859-9.937
		c0.765,2.158-0.19,3.393-2.125,4.279C437.708,658.375,432.702,660.915,427.062,661.702z"/>
	<path fill-rule="evenodd" clip-rule="evenodd" fill="#E8E8E8" d="M514.583,617.334c-0.646-4.159-4.659-7.115-4.04-11.946
		c3.42,4.341,7.549,7.752,12.004,10.786C519.829,616.126,517.181,616.558,514.583,617.334z"/>
	<path fill-rule="evenodd" clip-rule="evenodd" fill="#E9E9E9" d="M228.989,597.407c3.104-1.741,6.132-0.169,9.166-0.07
		c18.852,0.612,37.5-1.142,56.183-3.543c13.652-1.756,27.345-3.525,40.617-6.853c18.575-4.656,37.87-7.122,55.163-16.314
		c3.927-2.087,8.274-3.48,12.771-4.107c5.09-0.708,8.75,1.383,10.264,5.867c1.643,4.868,0.342,8.033-4.364,10.71
		c-6.184,3.516-13.152,4.534-19.918,6.061c-16.827,3.795-34.104,4.979-50.888,9.346c-23.61,6.144-47.85,7.718-72.156,6.615
		C253.275,604.549,240.868,602.2,228.989,597.407z"/>
	<path fill-rule="evenodd" clip-rule="evenodd" fill="#E9E9E9" d="M349.861,474.887c-26.317,6.838-52.324,9.462-79.084-0.135
		c-21.085-7.561-41.718-16.407-63.158-22.929c-8.853-2.691-17.846-5.247-27.237-5.589c-1.131-0.041-2.698,0.056-2.827-1.399
		c-0.129-1.459,1.455-1.673,2.546-1.863c1.957-0.341,3.949-0.629,5.932-0.66c14.243-0.224,27.989,2.729,41.861,5.694
		c15.901,3.397,29.373,12.169,44.223,17.795c11.605,4.396,23.716,6.514,36.004,7.41c12.753,0.932,25.543,2.064,38.329,0.121
		c1.086-0.165,2.248,0.168,3.375,0.27C349.837,474.03,349.849,474.459,349.861,474.887z"/>
</g>
<g id="buzo-cuelloV">
	<path id="buzo-cuelloV-frente" fill-rule="evenodd" clip-rule="evenodd" fill="none" d="M202.07,117.583
		c9.557,16.678,18.317,32.953,28.006,48.656c16.237,26.318,34.263,51.405,58.915,70.604c17.558,13.674,12.311,13.504,28.009-0.738
		c34.643-31.428,56.928-70.81,70.916-115.135c0.1-0.317,0.172-0.644,0.271-0.961c2.131-6.789,2.125-6.767,8.781-4.593
		c22.617,7.387,45.24,14.755,67.859,22.137c1.25,0.408,2.479,0.878,4.127,1.464c-2.238,11.975-4.57,23.848-6.66,35.764
		c-7.744,44.147-14.734,88.38-13.33,133.439c0.129,4.155-0.09,8.55,1.176,12.399c4.377,13.324,0.691,26.29-0.82,39.396
		c-2.559,22.153-4.99,44.32-7.369,66.494c-0.207,1.928,0.018,4.066,0.66,5.889c1.967,5.572,1.996,10.945,0.057,16.586
		c-0.813,2.359-1.207,5.723-0.123,7.729c5.387,9.977,5.939,21.07,8.012,31.785c5.027,25.977,9.705,52.021,14.676,78.01
		c3.426,17.92-3.307,33.09-15.252,44.939c-6.125,6.074-16.336,9.459-25.234,11.021c-22.914,4.025-46.064,7.006-69.236,9.156
		c-18.199,1.689-36.57,1.461-54.861,2.205c-4.815,0.195-9.606,1.021-14.422,1.213c-3.972,0.156-7.996,0.086-11.94-0.371
		c-16.018-1.854-32.035-3.74-48.013-5.906c-21.275-2.885-42.611-5.664-62.317-15.053c-1.717-0.818-3.422-2.012-4.656-3.441
		c-13.255-15.35-16.846-32.709-12.563-52.611c6.265-29.105,11.4-58.455,17.025-87.701c0.188-0.975,0.305-2.016,0.738-2.887
		c3.745-7.529,3.786-15.355,2.176-23.395c-0.418-2.088-0.896-4.488-0.286-6.408c4.854-15.301,0.657-30.43-0.917-45.516
		c-1.933-18.527-4.893-36.947-7.372-55.418c-0.152-1.134-0.228-2.378,0.07-3.457c5.37-19.467,4.396-39.339,3.203-59.094
		c-2.662-44.117-10.42-87.541-18.964-130.828c-0.454-2.298-0.98-4.132,1.949-5.15C163.67,131.09,182.951,124.293,202.07,117.583z"/>
	<path id="buzo-cuelloV-manga-derecha" fill-rule="evenodd" clip-rule="evenodd" fill="none" d="M472.891,140.655
		c12.602,7.795,20.869,18.72,27.781,30.835c8.693,15.234,12.125,32.336,17.238,48.847c15.4,49.743,30.682,99.525,46.469,149.146
		c3.77,11.85,9.889,22.976,11.037,35.617c0.902,9.945,1.129,19.963,2.324,29.865c3.371,27.93,6.994,55.828,10.701,83.715
		c1.873,14.09,2.658,27.922-0.756,42.086c-1.643,6.818,0.172,14.506,0.643,21.785c0.42,6.477,1.287,12.926,1.703,19.404
		c0.414,6.477-1.842,10.67-8.039,12.629c-10.762,3.4-21.617,7.061-32.713,8.633c-6.74,0.955-13.982-2.01-21.045-2.797
		c-3.193-0.357-6.678-0.299-9.725,0.604c-9.365,2.773-17.336-2.361-17.643-12.053c-0.746-23.643-0.861-47.316-2.129-70.928
		c-1.301-24.275-3.805-48.484-5.453-72.744c-0.355-5.232,0.307-10.627,1.203-15.826c1.174-6.801-0.186-11.893-5.529-16.93
		c-3.566-3.365-5.582-8.916-7.068-13.855c-8.15-27.08-15.393-54.442-24.012-81.366c-5.418-16.923-6.113-34.063-5.451-51.357
		c1.846-48.22,10.119-95.602,19.559-142.805C472.111,142.536,472.416,141.949,472.891,140.655z"/>
	<path id="buzo-cuelloV-manga-izquierda" fill-rule="evenodd" clip-rule="evenodd" fill="none" d="M138.829,142.896
		c2.706,14.649,5.545,29.275,8.094,43.952c5.67,32.654,10.301,65.452,11.364,98.623c0.577,17.978,0.111,35.775-5.911,53.254
		c-5.078,14.737-7.998,30.207-12.407,45.194c-1.35,4.588-4.298,8.757-6.814,12.937c-3.858,6.41-8.229,12.523-11.84,19.063
		c-1.152,2.086-1.402,5.389-0.663,7.682c5.059,15.707,1.892,31.244-0.129,46.904c-3.216,24.926-6.745,49.85-8.726,74.887
		c-1.679,21.217-1.281,42.594-1.946,63.895c-0.279,8.969-7.72,13.949-16.482,12.16c-4.719-0.963-10.142-1.693-14.553-0.311
		c-11.413,3.574-22.292,2.574-33.288-1.053c-5.369-1.77-10.831-3.279-16.14-5.213c-6.809-2.479-9.305-6.066-8.496-13.184
		c1.933-17.023,4.356-33.994,6.266-51.021c0.528-4.715,0.987-9.859-0.312-14.279c-4.131-14.064-2.342-28.031-0.801-42.094
		c2.918-26.625,5.194-53.338,8.919-79.848c1.93-13.73,5.722-27.312,9.852-40.594c7.152-23.008,15.696-45.584,22.79-68.608
		c9.89-32.1,18.828-64.491,28.476-96.667c5.49-18.313,16.313-33.78,27.615-48.879c4.372-5.842,9.068-11.441,13.617-17.15
		C137.818,142.661,138.323,142.778,138.829,142.896z"/>
	<path id="buzo-cuelloV-botamanga-frente" fill-rule="evenodd" clip-rule="evenodd" fill="none" d="M447.371,618.707
		c0,4.344,0.174,8.795-0.041,13.227c-0.314,6.477-1.307,12.941-1.227,19.402c0.047,3.723-1.17,5.668-4.451,6.588
		c-12.303,3.449-24.443,7.883-36.971,10.031c-23.432,4.018-47.01,7.805-70.686,9.6c-20.354,1.545-41.05,1.568-61.374-0.227
		c-29.794-2.633-59.58-6.297-88.662-13.967c-5.735-1.512-11.664-2.295-17.389-3.844c-3.198-0.865-3.97-3.273-4.016-6.895
		c-0.128-10.137-1.166-20.264-1.809-30.396c-0.103-1.629-0.014-3.271-0.014-5.35c1.517,0.396,2.818,0.525,3.93,1.055
		c17.894,8.516,37.286,10.961,56.543,13.74c18.1,2.611,36.249,5.012,54.45,6.725c7.7,0.725,15.585-0.701,23.392-0.881
		c12.644-0.291,25.378,0.525,37.919-0.703c28.813-2.826,57.582-6.24,86.256-10.225C431.291,625.465,438.967,621.533,447.371,618.707
		z"/>
	<path id="buzo-cuelloV-cuello-2" fill-rule="evenodd" clip-rule="evenodd" fill="none" d="M206.427,115.172
		c2.756-0.718,5.255-1.368,7.93-2.064c22.382,44.047,49.554,83.951,89.068,114.917c18.321-15.781,31.739-34.978,42.724-55.747
		c10.867-20.551,20.424-41.795,30.799-63.237c2.469,0.893,5.836,2.109,9.807,3.544c-15.381,51.626-41.047,96.097-83.075,130.452
		c-13.417-8.341-24.497-18.615-34.58-29.954c-25.434-28.599-44.925-61.096-61.881-95.222
		C206.87,117.159,206.763,116.34,206.427,115.172z"/>
	<path id="buzo-cuelloV-botamanga-izquierda" fill-rule="evenodd" clip-rule="evenodd" fill="none" d="M29.651,619.324
		c7.547,2.115,13.916,3.891,20.279,5.689c9.349,2.643,18.66,2.895,28.034-0.021c5.837-1.814,11.729-2.209,17.544,0.953
		c-2.196,6.559-5.062,13.145-6.544,20.029c-1.958,9.088-2.702,18.43-4.207,27.621c-1.335,8.154-2.855,9.188-10.592,6.092
		c-10.837-4.336-21.801-7.094-33.565-5.666c-1.628,0.197-3.321-0.166-4.985-0.238c-4.549-0.197-6.364-1.732-6.168-7.064
		C30.021,651.131,29.651,635.508,29.651,619.324z"/>
	<path id="buzo-cuelloV-botamanga-derecha" fill-rule="evenodd" clip-rule="evenodd" fill="none" d="M515.697,624.76
		c5.199,0,11.072-1.283,16.092,0.24c14.881,4.52,28.619,0.498,42.506-3.775c1.857-0.57,3.715-1.133,7.029-2.145
		c0,17.285,0.063,33.711-0.119,50.135c-0.014,1.309-1.508,3.447-2.674,3.732c-3.186,0.777-6.611,1.281-9.857,0.98
		c-10.572-0.984-20.428,1.254-30.213,5.088c-10.182,3.988-11.023,3.313-12.736-7.365c-0.869-5.422-1.078-10.977-2.275-16.314
		C521.238,645.488,518.518,635.758,515.697,624.76z"/>
	<path id="buzo-cuelloV-cuello" fill-rule="evenodd" clip-rule="evenodd" fill="none" d="M369.83,113.751
		c-1.645,4.1-2.984,8.432-5.125,12.321c-0.932,1.69-3.396,3.243-5.365,3.544c-16.258,2.483-32.5,5.704-48.867,6.688
		c-26,1.561-51.932-0.2-77.225-7.263c-8.634-2.411-8.931-2.876-12.161-11.74C270.709,125.95,320.125,124.888,369.83,113.751z"/>
	<path id="buzo-cuelloV-epalda" fill-rule="evenodd" clip-rule="evenodd" fill="none" d="M360.936,132.736
		c-8.572,19.317-18.082,37.767-29.541,55.18c-7.063,10.733-15.059,20.714-23.975,29.983c-2.938,3.052-5.104,3.612-8.692,0.598
		c-24.354-20.462-43.872-44.971-60.781-71.713c-2.224-3.517-4.407-7.062-6.505-10.655c-0.709-1.215-2.172-2.603-1.053-4.007
		c0.954-1.197,2.518-0.063,3.749,0.195c22.391,4.712,44.982,7.418,67.902,7.125c18.544-0.236,36.862-2.221,54.892-6.663
		C358.02,132.511,359.107,131.905,360.936,132.736z"/>
</g>
</svg>
