<?xml version="1.0" encoding="utf-8"?>
<!-- Generator: Adobe Illustrator 16.0.0, SVG Export Plug-In . SVG Version: 6.00 Build 0)  -->
<!DOCTYPE svg PUBLIC "-//W3C//DTD SVG 1.1//EN" "http://www.w3.org/Graphics/SVG/1.1/DTD/svg11.dtd">
<svg version="1.1" id="Layer_1" xmlns="http://www.w3.org/2000/svg" xmlns:xlink="http://www.w3.org/1999/xlink" x="0px" y="0px"
	 width="612px" height="792px" viewBox="0 0 612 792" enable-background="new 0 0 612 792" xml:space="preserve">
<g>
	<g>
		<path fill-rule="evenodd" clip-rule="evenodd" fill="#FFFFFF" d="M375.547,105.696c-3.546,2.254-5.957,4.377-8.77,5.438
			c-4.487,1.691-9.171,3.078-13.894,3.896c-37.829,6.555-75.853,7.221-113.931,2.764c-7.582-0.889-15.682-1.449-21.678-7.637
			c-0.637-0.658-2.796-0.287-4.047,0.166c-18.43,6.668-36.793,13.518-55.235,20.148c-20.514,7.377-20.634,7.229-33.995,24.557
			c-13.052,16.926-25.335,34.361-31.497,55.209c-9.146,30.949-17.816,62.043-27.313,92.883
			c-7.139,23.186-15.694,45.936-22.778,69.137c-4.5,14.736-8.66,29.773-10.847,44.98c-3.835,26.672-5.934,53.59-8.968,80.381
			c-1.56,13.777-2.905,27.441,1.292,41.066c0.94,3.055,0.866,6.613,0.485,9.85c-2.119,18.021-4.416,36.021-6.791,54.012
			c-0.7,5.307-0.225,10.092,4.613,13.266c4.137,2.713,5.263,6.553,5.144,11.166c-0.335,12.982-0.484,25.973-0.903,38.953
			c-0.355,11.01,1.312,12.867,12.575,13.025c2,0.027,4.022,0.199,5.996-0.031c8.891-1.035,17.069,1.293,25.25,4.521
			c14.092,5.561,17.025,3.656,19.036-11.527c1.878-14.176,2.872-28.58,9.914-41.477c1.137-2.082,3.158-4.209,5.282-5.117
			c5.428-2.322,8.83-5.775,9.118-11.857c0.449-9.477,1.499-18.965,1.266-28.424c-0.897-36.309,4.072-72.084,8.884-107.91
			c2.353-17.514,7.142-35.074,0.689-52.781c-0.56-1.535-0.353-3.887,0.469-5.291c3.772-6.457,7.953-12.674,11.859-19.057
			c2.296-3.75,5.137-7.414,6.366-11.527c3.764-12.582,6.856-25.365,10.238-38.063c0.477-1.789,1.11-3.537,1.671-5.305
			c3.821,21.689,6.707,43.133,9.038,64.639c0.798,7.354,0.292,14.857,0.217,22.293c-0.053,5.109-1.001,10.285-0.445,15.309
			c0.692,6.264,0.873,12.221-1.771,18.09c-0.877,1.943-1.381,4.098-1.787,6.205c-5.249,27.291-10.548,54.572-15.604,81.896
			c-1.48,8-3.129,16.133-3.125,24.203c0.007,12.566,5.597,23.453,12.951,33.443c1.051,1.428,2.407,3.053,2.534,4.672
			c0.966,12.279,1.973,24.57,2.329,36.877c0.237,8.215,0.205,9.092,7.684,12.367c2.249,0.984,4.731,1.539,7.163,1.982
			c5.229,0.957,10.558,1.432,15.735,2.596c33.526,7.533,67.426,12.314,101.777,13.322c15.127,0.443,30.419,1.154,45.395-0.477
			c25.616-2.791,51.127-6.846,76.508-11.355c11.017-1.957,21.65-6.211,32.329-9.805c1.744-0.588,3.845-3.066,4.026-4.85
			c0.958-9.42,2.242-18.949,1.665-28.334c-0.465-7.57,2.181-12.93,6.39-18.611c9.933-13.41,14.261-28.232,10.865-45.133
			c-5.311-26.428-9.913-52.998-15.181-79.438c-1.836-9.217-4.912-18.182-7.076-27.344c-0.579-2.451,0.166-5.205,0.217-7.82
			c0.099-5.059,0.273-10.123,0.151-15.18c-0.079-3.293-1.204-6.635-0.871-9.854c2.027-19.537,4.29-39.053,6.58-58.563
			c0.82-6.996,1.933-13.957,2.912-20.934c2.297,3.816,3.501,7.699,4.637,11.604c6.694,22.996,13.212,46.049,20.205,68.955
			c1.246,4.082,3.847,8.166,6.887,11.174c3.452,3.414,5.218,6.639,4.099,11.42c-2.036,8.693-1.482,17.416-0.766,26.266
			c2.096,25.887,3.992,51.797,5.373,77.729c1.072,20.113,1.252,40.273,1.829,60.412c0.186,6.48,3.627,10.314,9.559,12.604
			c1.878,0.725,3.727,2.586,4.708,4.402c6.977,12.912,8.279,27.248,10.039,41.461c1.987,16.043,4.678,17.695,19.951,11.783
			c7.707-2.982,15.418-5.006,23.828-4.27c4.253,0.371,8.628-0.234,12.909-0.727c4.677-0.539,6.75-3,6.506-8.133
			c-0.682-14.303-0.855-28.629-1.233-42.945c-0.121-4.574,0.996-8.471,5.153-11.178c3.802-2.475,5.354-6.139,4.896-10.744
			c-0.89-8.947-1.303-17.951-2.53-26.848c-1.02-7.385-0.785-14.52,0.942-21.754c1.075-4.498,2.299-9.225,1.976-13.744
			c-0.866-12.111-2.434-24.178-3.895-36.242c-3.282-27.102-7.169-54.143-9.807-81.307c-1.354-13.945-1.751-27.912-6.825-41.178
			c-2.968-7.762-6.501-15.344-8.941-23.264c-16.755-54.363-33.18-108.826-49.934-163.189
			c-10.101-32.773-26.955-58.584-63.482-67.592C425.651,123.569,400.397,113.753,375.547,105.696z"/>
		<path fill-rule="evenodd" clip-rule="evenodd" d="M375.547,105.696c24.851,8.057,50.104,17.873,76.192,24.309
			c36.527,9.008,53.382,34.818,63.482,67.592c16.754,54.363,33.179,108.826,49.934,163.189c2.44,7.92,5.974,15.502,8.941,23.264
			c5.074,13.266,5.471,27.232,6.825,41.178c2.638,27.164,6.524,54.205,9.807,81.307c1.461,12.064,3.028,24.131,3.895,36.242
			c0.323,4.52-0.9,9.246-1.976,13.744c-1.728,7.234-1.962,14.369-0.942,21.754c1.228,8.896,1.641,17.9,2.53,26.848
			c0.458,4.605-1.095,8.27-4.896,10.744c-4.157,2.707-5.274,6.604-5.153,11.178c0.378,14.316,0.552,28.643,1.233,42.945
			c0.244,5.133-1.829,7.594-6.506,8.133c-4.281,0.492-8.656,1.098-12.909,0.727c-8.41-0.736-16.121,1.287-23.828,4.27
			c-15.273,5.912-17.964,4.26-19.951-11.783c-1.76-14.213-3.063-28.549-10.039-41.461c-0.981-1.816-2.83-3.678-4.708-4.402
			c-5.932-2.289-9.373-6.123-9.559-12.604c-0.577-20.139-0.757-40.299-1.829-60.412c-1.381-25.932-3.277-51.842-5.373-77.729
			c-0.717-8.85-1.271-17.572,0.766-26.266c1.119-4.781-0.646-8.006-4.099-11.42c-3.04-3.008-5.641-7.092-6.887-11.174
			c-6.993-22.906-13.511-45.959-20.205-68.955c-1.136-3.904-2.34-7.787-4.637-11.604c-0.979,6.977-2.092,13.938-2.912,20.934
			c-2.29,19.51-4.553,39.025-6.58,58.563c-0.333,3.219,0.792,6.561,0.871,9.854c0.122,5.057-0.053,10.121-0.151,15.18
			c-0.051,2.615-0.796,5.369-0.217,7.82c2.164,9.162,5.24,18.127,7.076,27.344c5.268,26.439,9.87,53.01,15.181,79.438
			c3.396,16.9-0.933,31.723-10.865,45.133c-4.209,5.682-6.854,11.041-6.39,18.611c0.577,9.385-0.707,18.914-1.665,28.334
			c-0.182,1.783-2.282,4.262-4.026,4.85c-10.679,3.594-21.313,7.848-32.329,9.805c-25.381,4.51-50.892,8.564-76.508,11.355
			c-14.976,1.631-30.268,0.92-45.395,0.477c-34.352-1.008-68.251-5.789-101.777-13.322c-5.178-1.164-10.506-1.639-15.735-2.596
			c-2.432-0.443-4.914-0.998-7.163-1.982c-7.479-3.275-7.446-4.152-7.684-12.367c-0.356-12.307-1.363-24.598-2.329-36.877
			c-0.127-1.619-1.483-3.244-2.534-4.672c-7.354-9.99-12.944-20.877-12.951-33.443c-0.004-8.07,1.645-16.203,3.125-24.203
			c5.057-27.324,10.355-54.605,15.604-81.896c0.406-2.107,0.91-4.262,1.787-6.205c2.645-5.869,2.464-11.826,1.771-18.09
			c-0.556-5.023,0.393-10.199,0.445-15.309c0.075-7.436,0.581-14.939-0.217-22.293c-2.331-21.506-5.217-42.949-9.038-64.639
			c-0.561,1.768-1.194,3.516-1.671,5.305c-3.382,12.697-6.475,25.48-10.238,38.063c-1.229,4.113-4.07,7.777-6.366,11.527
			c-3.906,6.383-8.087,12.6-11.859,19.057c-0.821,1.404-1.028,3.756-0.469,5.291c6.452,17.707,1.663,35.268-0.689,52.781
			c-4.812,35.826-9.781,71.602-8.884,107.91c0.233,9.459-0.816,18.947-1.266,28.424c-0.288,6.082-3.69,9.535-9.118,11.857
			c-2.124,0.908-4.146,3.035-5.282,5.117c-7.042,12.896-8.036,27.301-9.914,41.477c-2.011,15.184-4.944,17.088-19.036,11.527
			c-8.181-3.229-16.359-5.557-25.25-4.521c-1.974,0.23-3.996,0.059-5.996,0.031c-11.264-0.158-12.931-2.016-12.575-13.025
			c0.419-12.98,0.568-25.971,0.903-38.953c0.119-4.613-1.007-8.453-5.144-11.166c-4.838-3.174-5.313-7.959-4.613-13.266
			c2.375-17.99,4.672-35.99,6.791-54.012c0.381-3.236,0.455-6.795-0.485-9.85c-4.197-13.625-2.852-27.289-1.292-41.066
			c3.034-26.791,5.133-53.709,8.968-80.381c2.187-15.207,6.347-30.244,10.847-44.98c7.084-23.201,15.64-45.951,22.778-69.137
			c9.496-30.84,18.166-61.934,27.313-92.883c6.162-20.848,18.445-38.283,31.497-55.209c13.361-17.328,13.481-17.18,33.995-24.557
			c18.442-6.631,36.806-13.48,55.235-20.148c1.251-0.453,3.41-0.824,4.047-0.166c5.996,6.188,14.096,6.748,21.678,7.637
			c38.078,4.457,76.102,3.791,113.931-2.764c4.723-0.818,9.406-2.205,13.894-3.896C369.59,110.073,372.001,107.95,375.547,105.696z
			 M142.252,139.979c0.107,1.232,0.102,2.055,0.259,2.844c8.629,43.277,16.402,86.695,19.118,130.818
			c1.248,20.262,2.387,40.613-3.079,60.586c-0.294,1.074-0.17,2.318-0.019,3.453c2.432,18.15,5.379,36.246,7.211,54.457
			c1.534,15.25,5.975,30.531,1.033,46.012c-0.614,1.928-0.163,4.336,0.257,6.428c1.649,8.207,1.594,16.18-2.161,23.906
			c-0.781,1.609-0.991,3.518-1.331,5.313c-5.602,29.594-10.75,59.281-16.921,88.754c-4.056,19.373,1.526,35.42,13.787,49.93
			c0.81,0.959,1.942,1.902,3.107,2.262c12.52,3.861,24.857,8.838,37.672,11.098c20.781,3.666,41.882,5.525,62.848,8.154
			c7.071,0.887,14.138,2.486,21.213,2.525c11.463,0.063,22.93-0.959,34.398-1.396c7.154-0.275,14.372,0.193,21.468-0.561
			c24.819-2.635,49.594-5.701,74.396-8.514c12.675-1.438,25.663-4.803,34.6-12.988c12.408-11.365,18.952-26.941,15.667-44.789
			c-4.097-22.262-8.054-44.555-12.687-66.705c-3.049-14.578-3.099-29.891-10.167-43.555c-0.574-1.109-0.927-2.777-0.53-3.879
			c3.012-8.346,2.111-16.576-0.016-24.922c-0.554-2.172-0.147-4.658,0.13-6.963c2.767-22.973,5.625-45.934,8.394-68.906
			c0.793-6.578,2.212-13.225,1.871-19.764c-0.577-11.082-3.278-22.09-3.414-33.15c-0.541-44.004,6.767-87.209,14.456-130.34
			c1.772-9.943,3.728-19.854,5.645-30.023c-26.207-8.527-51.947-16.904-78.059-25.4c-1.41,2.76-2.782,5.197-3.931,7.736
			c-6.588,14.559-16.104,26.783-29.001,36.264c-19.807,14.561-42.407,19.348-66.495,18.688c-32.878-0.9-60.202-13.064-79.929-40.084
			c-4.073-5.58-7.279-11.795-11.043-17.975C181.489,126.163,161.928,133.052,142.252,139.979z M473.302,141.737
			c-0.473,1.934-0.857,3.328-1.153,4.742c-7.769,37.17-14.016,74.586-17.469,112.416c-1.908,20.9-3.762,41.934-0.278,62.77
			c1.824,10.91,5.755,21.479,8.843,32.17c6.922,23.963,13.841,47.93,20.968,71.832c0.866,2.904,2.375,6.318,4.68,7.959
			c6.503,4.631,7.154,10.547,5.988,17.633c-0.829,5.041-1.478,10.258-1.129,15.322c1.622,23.586,4.105,47.121,5.348,70.723
			c1.286,24.434,1.431,48.928,2.217,73.391c0.291,9.066,8.282,14.26,17.073,11.934c3.537-0.936,7.473-0.994,11.148-0.641
			c6.912,0.666,14.005,3.541,20.593,2.572c10.929-1.607,21.638-5.162,32.207-8.609c6.635-2.164,8.606-6.016,8.147-13.002
			c-0.448-6.805-1.072-13.609-1.896-20.379c-1.11-9.117-2.261-18.188,0.657-27.203c2.968-9.166,1.744-18.463,0.564-27.709
			c-3.498-27.408-7.245-54.785-10.588-82.211c-1.227-10.064-1.813-20.223-2.3-30.357c-0.774-16.121-7.546-30.453-12.389-45.473
			c-16.282-50.492-31.485-101.33-47.405-151.939c-4.679-14.873-9.569-29.777-15.828-44.023
			C495.554,160.573,486.016,149.991,473.302,141.737z M140.125,143.839c-0.708-0.088-1.416-0.176-2.123-0.264
			c-3.445,4.213-6.997,8.346-10.317,12.654c-13.453,17.465-26.057,35.406-32.293,56.988c-8.035,27.805-15.817,55.689-24.4,83.326
			c-8.083,26.025-17.417,51.664-25.509,77.688c-4.23,13.607-8.146,27.512-10.138,41.574c-3.776,26.674-6.044,53.563-8.979,80.357
			c-1.504,13.73-3.212,27.361,0.757,41.104c1.325,4.59,0.917,9.895,0.382,14.77c-1.891,17.205-4.311,34.352-6.25,51.551
			c-0.743,6.59,1.663,10.125,8.068,12.475c6.086,2.23,12.336,4.016,18.525,5.959c10.403,3.266,20.671,3.791,31.37,0.48
			c4.409-1.363,9.809-0.619,14.521,0.332c8.471,1.709,16.024-3.26,16.511-11.734c0.344-5.982,0.942-11.977,0.816-17.953
			c-0.864-40.781,3.93-81.086,9.787-121.322c2.27-15.592,5.485-31.197,0.181-46.906c-0.769-2.275-0.529-5.615,0.63-7.686
			c3.73-6.662,8.195-12.91,12.204-19.424c2.307-3.748,5.057-7.473,6.263-11.6c4.291-14.682,7.28-29.773,12.13-44.25
			c5.396-16.111,7.202-32.482,6.475-49.189c-0.717-16.451-1.38-32.982-3.572-49.275C150.686,210.204,145.197,177.05,140.125,143.839
			z M160.682,617.831c0.49,6.348,0.92,11.805,1.332,17.262c0.414,5.48,1.054,10.955,1.157,16.439
			c0.148,7.813,1.477,9.922,9.364,11.582c4.871,1.023,10.024,0.857,14.799,2.156c28.741,7.813,58.264,11,87.726,13.578
			c20.309,1.779,40.996,1.564,61.339-0.008c23.017-1.779,45.937-5.502,68.702-9.498c12.685-2.229,24.972-6.725,37.431-10.223
			c2.97-0.834,3.978-2.734,4.03-5.916c0.107-6.471,0.902-12.928,1.189-19.4c0.204-4.6,0.039-9.217,0.039-14.441
			c-1.941,0.848-3.528,1.65-5.188,2.246c-6.089,2.189-12.052,5.406-18.332,6.271c-27.357,3.768-54.755,7.451-82.247,9.967
			c-19.195,1.756-38.565,1.65-57.862,2.182c-4.124,0.113-8.284-0.504-12.405-0.977c-8.423-0.963-16.826-2.09-25.245-3.09
			c-28.077-3.334-56.405-5.445-82.751-17.143C163.038,618.501,162.251,618.329,160.682,617.831z M30.183,620.724
			c0,14.879,0.063,29.139-0.021,43.4c-0.064,11.168-0.124,11.598,11.366,11.059c11.039-0.518,21.519,0.914,31.572,5.492
			c1.203,0.547,2.55,0.773,3.771,1.287c4.556,1.916,6.985,0.168,7.681-4.451c1.039-6.9,1.601-13.898,3.09-20.697
			c2.182-9.963,5.004-19.783,7.578-29.76c-4.989-3.049-10.909-2.627-16.724-0.744c-9.714,3.145-19.306,2.65-28.948-0.127
			C43.395,624.409,37.221,622.704,30.183,620.724z M581.789,620.263c-3.361,1.109-5.346,1.783-7.341,2.422
			c-14.213,4.551-28.346,8.168-43.48,3.412c-4.669-1.467-10.198-0.195-15.334-0.176c-0.248,0.539-0.495,1.08-0.743,1.621
			c8.25,13.852,8.906,29.453,11.159,44.701c1.735,11.746,2.479,12.279,13.427,7.979c9.281-3.646,18.639-5.906,28.705-5.004
			c3.427,0.309,6.962-0.229,10.413-0.656c2.474-0.307,3.326-1.74,3.292-4.521C581.687,653.782,581.789,637.521,581.789,620.263z
			 M205.4,117.226c2.434,8.74,12.11,22.875,20.774,30.979c17.585,16.445,38.729,24.313,62.421,25.559
			c24.386,1.283,47.482-3.092,67.602-17.965c14.573-10.773,24.774-24.838,30.827-42.313c-2.022-0.775-3.681-1.479-5.385-2.045
			c-1.703-0.566-3.452-0.994-5.35-1.531c-16.52,32.67-41.775,52.719-79.116,53.916c-37.71,1.209-63.707-18.375-82.545-49.465
			C211.376,115.37,208.383,116.3,205.4,117.226z M222.011,118.612c3.237,5.629,6.356,11.354,13.993,12.396
			c15.294,2.09,30.503,5.154,45.861,6.342c24.474,1.891,48.873,0.27,72.895-5.24c1.522-0.35,3.348-1.023,4.245-2.164
			c3.667-4.664,7.027-9.566,10.791-14.785C320.21,125.964,271.313,127.147,222.011,118.612z M235.276,134.788
			c33.914,36.857,91.129,30.264,116.661,2.012C312.863,143.296,274.444,143.3,235.276,134.788z"/>
		<path fill-rule="evenodd" clip-rule="evenodd" fill="#FFFFFF" d="M142.252,139.979c19.676-6.928,39.237-13.816,58.747-20.688
			c3.764,6.18,6.97,12.395,11.043,17.975c19.727,27.02,47.051,39.184,79.929,40.084c24.088,0.66,46.688-4.127,66.495-18.688
			c12.897-9.48,22.413-21.705,29.001-36.264c1.148-2.539,2.521-4.977,3.931-7.736c26.111,8.496,51.852,16.873,78.059,25.4
			c-1.917,10.17-3.872,20.08-5.645,30.023c-7.689,43.131-14.997,86.336-14.456,130.34c0.136,11.061,2.837,22.068,3.414,33.15
			c0.341,6.539-1.078,13.186-1.871,19.764c-2.769,22.973-5.627,45.934-8.394,68.906c-0.277,2.305-0.684,4.791-0.13,6.963
			c2.127,8.346,3.027,16.576,0.016,24.922c-0.396,1.102-0.044,2.77,0.53,3.879c7.068,13.664,7.118,28.977,10.167,43.555
			c4.633,22.15,8.59,44.443,12.687,66.705c3.285,17.848-3.259,33.424-15.667,44.789c-8.937,8.186-21.925,11.551-34.6,12.988
			c-24.802,2.813-49.576,5.879-74.396,8.514c-7.096,0.754-14.313,0.285-21.468,0.561c-11.469,0.438-22.936,1.459-34.398,1.396
			c-7.075-0.039-14.142-1.639-21.213-2.525c-20.966-2.629-42.066-4.488-62.848-8.154c-12.814-2.26-25.152-7.236-37.672-11.098
			c-1.165-0.359-2.298-1.303-3.107-2.262c-12.261-14.51-17.843-30.557-13.787-49.93c6.171-29.473,11.319-59.16,16.921-88.754
			c0.34-1.795,0.55-3.703,1.331-5.313c3.755-7.727,3.811-15.699,2.161-23.906c-0.42-2.092-0.871-4.5-0.257-6.428
			c4.941-15.48,0.501-30.762-1.033-46.012c-1.832-18.211-4.779-36.307-7.211-54.457c-0.151-1.135-0.275-2.379,0.019-3.453
			c5.466-19.973,4.327-40.324,3.079-60.586c-2.716-44.123-10.489-87.541-19.118-130.818
			C142.354,142.034,142.359,141.212,142.252,139.979z"/>
		<path fill-rule="evenodd" clip-rule="evenodd" fill="#FFFFFF" d="M473.302,141.737c12.714,8.254,22.252,18.836,27.998,31.916
			c6.259,14.246,11.149,29.15,15.828,44.023c15.92,50.609,31.123,101.447,47.405,151.939c4.843,15.02,11.614,29.352,12.389,45.473
			c0.486,10.135,1.073,20.293,2.3,30.357c3.343,27.426,7.09,54.803,10.588,82.211c1.18,9.246,2.403,18.543-0.564,27.709
			c-2.918,9.016-1.768,18.086-0.657,27.203c0.824,6.77,1.448,13.574,1.896,20.379c0.459,6.986-1.513,10.838-8.147,13.002
			c-10.569,3.447-21.278,7.002-32.207,8.609c-6.588,0.969-13.681-1.906-20.593-2.572c-3.676-0.354-7.611-0.295-11.148,0.641
			c-8.791,2.326-16.782-2.867-17.073-11.934c-0.786-24.463-0.931-48.957-2.217-73.391c-1.242-23.602-3.726-47.137-5.348-70.723
			c-0.349-5.064,0.3-10.281,1.129-15.322c1.166-7.086,0.515-13.002-5.988-17.633c-2.305-1.641-3.813-5.055-4.68-7.959
			c-7.127-23.902-14.046-47.869-20.968-71.832c-3.088-10.691-7.019-21.26-8.843-32.17c-3.483-20.836-1.63-41.869,0.278-62.77
			c3.453-37.83,9.7-75.246,17.469-112.416C472.444,145.065,472.829,143.671,473.302,141.737z"/>
		<path fill-rule="evenodd" clip-rule="evenodd" fill="#FFFFFF" d="M140.125,143.839c5.072,33.211,10.561,66.365,15.039,99.654
			c2.192,16.293,2.855,32.824,3.572,49.275c0.728,16.707-1.078,33.078-6.475,49.189c-4.85,14.477-7.839,29.568-12.13,44.25
			c-1.206,4.127-3.956,7.852-6.263,11.6c-4.009,6.514-8.474,12.762-12.204,19.424c-1.159,2.07-1.398,5.41-0.63,7.686
			c5.305,15.709,2.089,31.314-0.181,46.906c-5.857,40.236-10.651,80.541-9.787,121.322c0.126,5.977-0.473,11.971-0.816,17.953
			c-0.486,8.475-8.04,13.443-16.511,11.734c-4.713-0.951-10.112-1.695-14.521-0.332c-10.699,3.311-20.967,2.785-31.37-0.48
			c-6.189-1.943-12.439-3.729-18.525-5.959c-6.405-2.35-8.812-5.885-8.068-12.475c1.939-17.199,4.359-34.346,6.25-51.551
			c0.535-4.875,0.943-10.18-0.382-14.77c-3.969-13.742-2.261-27.373-0.757-41.104c2.935-26.795,5.202-53.684,8.979-80.357
			c1.991-14.063,5.907-27.967,10.138-41.574c8.092-26.023,17.426-51.662,25.509-77.688c8.583-27.637,16.365-55.521,24.4-83.326
			c6.236-21.582,18.84-39.523,32.293-56.988c3.32-4.309,6.872-8.441,10.317-12.654C138.709,143.663,139.417,143.751,140.125,143.839
			z"/>
		<path fill-rule="evenodd" clip-rule="evenodd" fill="#FFFFFF" d="M160.682,617.831c1.569,0.498,2.356,0.67,3.077,0.988
			c26.346,11.697,54.674,13.809,82.751,17.143c8.419,1,16.822,2.127,25.245,3.09c4.121,0.473,8.281,1.09,12.405,0.977
			c19.297-0.531,38.667-0.426,57.862-2.182c27.492-2.516,54.89-6.199,82.247-9.967c6.28-0.865,12.243-4.082,18.332-6.271
			c1.66-0.596,3.247-1.398,5.188-2.246c0,5.225,0.165,9.842-0.039,14.441c-0.287,6.473-1.082,12.93-1.189,19.4
			c-0.053,3.182-1.061,5.082-4.03,5.916c-12.459,3.498-24.746,7.994-37.431,10.223c-22.766,3.996-45.686,7.719-68.702,9.498
			c-20.343,1.572-41.03,1.787-61.339,0.008c-29.462-2.578-58.984-5.766-87.726-13.578c-4.774-1.299-9.928-1.133-14.799-2.156
			c-7.888-1.66-9.216-3.77-9.364-11.582c-0.104-5.484-0.743-10.959-1.157-16.439C161.602,629.636,161.172,624.179,160.682,617.831z"
			/>
		<path fill-rule="evenodd" clip-rule="evenodd" fill="#FFFFFF" d="M30.183,620.724c7.038,1.98,13.212,3.686,19.366,5.459
			c9.643,2.777,19.234,3.271,28.948,0.127c5.814-1.883,11.734-2.305,16.724,0.744c-2.574,9.977-5.396,19.797-7.578,29.76
			c-1.489,6.799-2.051,13.797-3.09,20.697c-0.695,4.619-3.125,6.367-7.681,4.451c-1.222-0.514-2.568-0.74-3.771-1.287
			c-10.054-4.578-20.533-6.01-31.572-5.492c-11.49,0.539-11.431,0.109-11.366-11.059C30.245,649.862,30.183,635.603,30.183,620.724z
			"/>
		<path fill-rule="evenodd" clip-rule="evenodd" fill="#FFFFFF" d="M581.789,620.263c0,17.258-0.103,33.52,0.098,49.777
			c0.034,2.781-0.818,4.215-3.292,4.521c-3.451,0.428-6.986,0.965-10.413,0.656c-10.066-0.902-19.424,1.357-28.705,5.004
			c-10.948,4.301-11.691,3.768-13.427-7.979c-2.253-15.248-2.909-30.85-11.159-44.701c0.248-0.541,0.495-1.082,0.743-1.621
			c5.136-0.02,10.665-1.291,15.334,0.176c15.135,4.756,29.268,1.139,43.48-3.412C576.443,622.046,578.428,621.372,581.789,620.263z"
			/>
		<path fill-rule="evenodd" clip-rule="evenodd" fill="#FFFFFF" d="M205.4,117.226c2.982-0.926,5.976-1.855,9.229-2.865
			c18.838,31.09,44.835,50.674,82.545,49.465c37.341-1.197,62.597-21.246,79.116-53.916c1.897,0.537,3.646,0.965,5.35,1.531
			c1.704,0.566,3.362,1.27,5.385,2.045c-6.053,17.475-16.254,31.539-30.827,42.313c-20.119,14.873-43.216,19.248-67.602,17.965
			c-23.691-1.246-44.836-9.113-62.421-25.559C217.511,140.101,207.834,125.966,205.4,117.226z"/>
		<path fill-rule="evenodd" clip-rule="evenodd" fill="#FFFFFF" d="M222.011,118.612c49.302,8.535,98.199,7.352,147.785-3.451
			c-3.764,5.219-7.124,10.121-10.791,14.785c-0.897,1.141-2.723,1.814-4.245,2.164c-24.021,5.51-48.421,7.131-72.895,5.24
			c-15.358-1.188-30.567-4.252-45.861-6.342C228.367,129.966,225.248,124.241,222.011,118.612z"/>
		<path fill-rule="evenodd" clip-rule="evenodd" fill="#FFFFFF" d="M235.276,134.788c39.168,8.512,77.587,8.508,116.661,2.012
			C326.405,165.052,269.19,171.646,235.276,134.788z"/>
	</g>
	<g id="sombras">
		<path fill-rule="evenodd" clip-rule="evenodd" fill="#EAEAEA" d="M97.648,624.809c6.606-12.214,9.226-25.145,7.019-38.946
			c-0.157-0.984,0.019-2.17-0.473-2.929c-5.021-7.742-3.575-16.421-3.445-24.799c0.191-12.286-1.272-24.207-5.901-35.644
			c-2.335-5.769-5.751-10.943-9.927-15.452c-6.277-6.777-9.25-15.179-12.648-23.434c-2.088-5.07-4.462-10.023-6.531-15.102
			c-7.71-18.923-14.498-38.146-18.494-58.25c-1.082-5.447-0.832-10.991-0.387-16.439c0.389-4.736,2.943-8.664,7.782-10.019
			c5.26-1.474,10.411-1.854,14.62,3.113c3.305,3.901,5.633,8.231,7.352,12.938c2.635,7.212,6.885,13.219,12.777,18.131
			c1.66,1.384,3.363,2.31,5.447,1.472c1.9-0.764,1.754-2.647,1.803-4.304c0.24-8.19,0.961-16.118,6.08-23.171
			c7.438-10.252,8.604-22.479,9.846-34.594c1.619-15.811,7.168-30.101,17.312-42.331c8.831-10.648,14.327-23.12,20.213-35.367
			c2.037-4.239,6.247-7.64,5.673-13.031c2.418,27.46,4.855,54.922-6.019,81.399c-5.649,10.886-9.445,22.466-12.468,34.288
			c-1.242,4.854-3.86,9.036-7.938,10.978c-5.734,2.73-6.79,7.15-6.338,12.257c0.382,4.313-0.422,8.277-1.457,12.313
			c-2.131,3.827-2.803,7.975-1.33,12.035c5.072,13.991,1.96,27.927-0.019,41.853c-5.594,39.37-10.867,78.752-10.05,118.674
			c0.156,7.636-0.346,15.308-0.938,22.932C108.592,621.365,105.778,623.912,97.648,624.809z"/>
		<path fill-rule="evenodd" clip-rule="evenodd" fill="#EAEAEA" d="M457.515,235.448c2.367,19.453,4.18,39.021,11.082,57.592
			c2.848,7.658,7.198,14.51,11.963,21.103c10.206,14.12,15.589,29.945,17.114,47.248c1.059,12.022,4.991,23.1,12.651,32.564
			c3.775,4.665,2.424,10.222,3.105,15.325c1.188,8.902,3.984,10.587,11.987,5.959c9.426-5.451,17.8-12.099,24.471-20.82
			c1.315-1.719,2.919-4.739,5.359-3.549c2.609,1.273,1.471,4.488,0.879,6.812c-4.29,16.814-11.295,32.642-17.896,48.612
			c-3.239,7.837-6.661,15.6-9.808,23.473c-2.057,5.144-4.589,10-8.141,14.215c-9.979,11.843-12.455,26.141-13.593,40.874
			c-1.186,15.347,1.814,30.53,1.958,45.83c0.021,2.329,0.185,4.722-1.084,6.82c-4.475,7.404-3.233,15.369-2.43,23.322
			c0.781,7.73,4.208,14.649,6.547,21.903c-7.978-1.318-10.548-3.857-10.824-11.627c-0.572-16.119-1.153-32.243-1.312-48.369
			c-0.313-31.969-3.704-63.722-6.365-95.524c-0.397-4.754,0.126-9.253,0.981-13.828c0.988-5.287,1.575-10.554-1.565-15.431
			c-1.164-4.242-0.448-8.564-0.317-12.82c0.171-5.536-1.665-9.939-6.406-12.616c-5.384-3.038-6.779-8.15-8.168-13.459
			c-2.868-10.955-5.575-21.973-11.134-31.993C458.2,347.288,454.183,256.947,457.515,235.448z"/>
		<path fill-rule="evenodd" clip-rule="evenodd" fill="#E9E9E9" d="M159.774,243.923c4.082,10.474,5.937,21.431,6.846,32.556
			c1.949,23.859,2.918,47.756,3.189,71.704c0.164,14.598,2.956,29.075,2.98,43.732c0.007,4.191,1.192,8.203,4.184,11.469
			c5.961,6.511,11.948,12.855,20.008,17.033c7.662,3.971,14.75,9.015,22.672,12.562c1.422,0.637,3.676,1.203,3.008,3.31
			c-0.651,2.056-2.731,1.188-4.354,1.06c-16.222-1.285-32.368-3.64-48.694-3.451c0.688-17.068-2.563-33.798-4.465-50.634
			c-1.568-13.877-3.696-27.689-5.525-41.537c-0.193-1.462-0.362-3.048-0.01-4.441c5.572-22.004,4.016-44.272,2.495-66.526
			C161.497,261.801,160.562,252.867,159.774,243.923z"/>
		<path fill-rule="evenodd" clip-rule="evenodd" fill="#E9E9E9" d="M168.823,452.923c2.068,3.407,4.018,6.828,5.445,10.615
			c1.461,3.874,3.951,7.065,7.727,9.433c9.46,5.932,19.653,10.39,29.536,15.475c2.429,1.249,6.776,2.413,5.749,5.085
			c-1.191,3.101-5.396,1.311-8.041,0.402c-5.412-1.856-10.9-3.078-16.572-2.659c-15.457,1.143-21.649,9.867-25.756,22.635
			c-4.064,12.631-8.002,25.338-10.88,38.324c-3.226,14.558-4.569,29.305-1.46,43.925c1.201,5.651,5.195,10.687,9.619,14.849
			c1.965,1.85,2.969,3.65,0.506,5.821c-2.027,0.218-2.846-1.32-3.904-2.601c-12.238-14.797-17.223-31.076-13.076-50.501
			c6.34-29.698,11.314-59.687,17.289-89.468C166.43,467.161,169.923,460.474,168.823,452.923z"/>
		<path fill-rule="evenodd" clip-rule="evenodd" fill="#E9E9E9" d="M112.538,183.647c1.549,4.225-0.373,8.228-0.944,12.271
			c-1.796,12.691,0.16,25.658-2.862,38.231c-1.583,6.576-2.148,13.454-5.648,19.487c-0.491,0.848-0.943,1.865-0.965,2.813
			c-0.256,11.476-7.918,19.275-13.47,28.255c-4.693,7.594-8.138,15.964-12.069,24.022c-2.66,5.453-6.137,10.254-10.789,14.176
			c7.088-24.397,14.035-48.837,21.315-73.176c4.661-15.582,8.192-31.529,14.508-46.587
			C104.505,196.247,108.076,189.686,112.538,183.647z"/>
		<path fill-rule="evenodd" clip-rule="evenodd" fill="#E9E9E9" d="M462.506,555.909c-3.526-5.015-4.646-11.017-6.374-16.679
			c-1.879-6.15-3.145-12.504-3.962-18.978c-1.087-8.596-5.907-15.781-10.636-22.855c-5.421-8.111-12.248-14.987-19.964-20.792
			c-5.131-3.86-10.979-6.976-17.862-6.668c-6.371,0.286-12.634-0.492-18.821-1.907c-12.51-2.86-25.136-4.681-39.144-3.985
			c2.469-2.197,4.405-2.014,6.236-2.094c23.745-1.036,47.492-2.024,71.234-3.124c3.812-0.177,7.599-0.856,11.4-1.272
			c3.341-0.366,5.984-1.896,7.939-4.624c-0.684,4.929,0.431,9.292,2.601,13.897c3.349,7.106,3.521,15.176,4.95,22.856
			C454.217,511.764,458.369,533.835,462.506,555.909z"/>
		<path fill-rule="evenodd" clip-rule="evenodd" fill="#E8E8E8" d="M27.527,504.551c1.704,12.747,7.733,23.935,12.938,35.388
			c4.649,10.231,8.646,20.937,8.728,31.968c0.064,8.664,0.234,17.294,1.797,25.67c1.699,9.114,1.549,18.161,1.681,27.274
			c-7.657-1.406-14.979-3.897-22.162-6.838c-3.599-4.902-0.284-9.656,0.688-14.241c2.233-10.544,5.495-20.873,5.015-31.852
			c-0.158-3.604-0.781-7.005-3.228-9.72c-2.422-2.69-3.33-5.79-3.319-9.283c0.701-6.916-0.726-13.598-2.473-20.19
			C24.685,523.27,26.089,513.926,27.527,504.551z"/>
		<path fill-rule="evenodd" clip-rule="evenodd" fill="#E8E8E8" d="M566.663,619.892c5.126-2.331,3.263-7.232,3.924-11.097
			c2.104-12.287,2.551-24.731,3.51-37.142c0.953-12.339,6.681-23.551,11.926-34.678c1.142-2.421,2.411-4.743,2.782-7.432
			c1.96,8.4,1.84,16.768-0.384,25.106c-1.596,5.98-2.384,12.047-1.897,18.245c-2.475,4.68-0.574,9.513-0.406,14.26
			c0.261,7.364,2.196,14.542,2.772,21.884C583.493,616.776,574.657,617.473,566.663,619.892z"/>
		<path fill-rule="evenodd" clip-rule="evenodd" fill="#E8E8E8" d="M188.077,627.75c-6.301,1.868-5.942,8.256-8.343,12.68
			c-1.622,2.99-1.966,6.634-3.37,9.867c-1.648,3.794,0.908,6.139,3.521,8.439c3.522,3.103,8.863,3.16,11.778,7.2
			c-6.706-0.989-13.488-1.625-20.098-3.062c-7.393-1.607-8.412-3.721-8.727-11.12c-0.416-9.765-1.245-19.516-2.084-29.256
			c-0.303-3.515,0.475-4.647,3.971-3.007C172.229,623.016,180.095,625.559,188.077,627.75z"/>
		<path fill-rule="evenodd" clip-rule="evenodd" fill="#E8E8E8" d="M522.664,245.912c-3.245-2.664-2.938-7.028-3.998-10.386
			c-2.679-8.477-7.631-15.421-12.319-22.588c-3.897-5.959-4.229-12.766-5.75-19.341c-3.999-17.272-12.953-30.725-29.982-37.688
			c0.332-3.787-0.058-9.407,2.634-10.559c3.06-1.31,6.253,3.369,9.011,5.848c12.806,11.51,21.064,26.058,26.442,42.145
			c5.674,16.974,10.479,34.233,14.933,51.579C523.474,245.412,523.144,245.734,522.664,245.912z"/>
		<path fill-rule="evenodd" clip-rule="evenodd" fill="#E8E8E8" d="M442.658,437.917c-2.022,0.622-4.106,0.306-5.89-0.455
			c-13.009-5.548-27.034-6.577-40.66-9.379c-1.652-0.34-4.398,0.309-4.399-2.154c0-2.524,2.841-2.69,4.65-2.736
			c8.668-0.219,17.338-2.373,25.832-1.913c12.429,0.674,16.894-7.062,21.083-16.095c0.487-1.052,0.84-2.166,1.256-3.251
			c-0.665,7.066-1.209,14.147-2.037,21.194C441.911,428.088,441.737,432.996,442.658,437.917z"/>
		<path fill-rule="evenodd" clip-rule="evenodd" fill="#E9E9E9" d="M387.677,634.055c-1.066,7.712-7.536,11.494-12.289,16.383
			c-4.424,4.55-5.535,16.674-4.161,21.69c0.637,2.327,3.046,1.455,4.706,1.898c-4.695,1.163-9.477,1.633-14.298,1.787
			c-0.925-2.731,0.915-5.063,1.157-7.672c0.865-9.317-1.962-17.928-4.271-26.672c-1.221-4.62-5.167-3.092-8.183-3.675
			c9.336-0.938,18.672-1.877,28.009-2.813C381.456,634.67,384.566,634.363,387.677,634.055z"/>
		<path fill-rule="evenodd" clip-rule="evenodd" fill="#E8E8E8" d="M465.716,159.933c-1.068-5.467-4.418-8.641-9.403-11.153
			c-11.578-5.837-23.451-10.891-35.642-15.244c-2.844-1.016-5.699-1.79-6.146,2.727c-0.888-2.748-0.378-5.619-0.735-8.403
			c-0.556-4.323,0.459-5.55,4.924-3.677c11.799,4.953,23.765,9.509,35.662,14.227c3.709,1.471,7.354,3.137,11.142,4.367
			c2.749,0.894,3.751,2.284,3.021,5.112C467.509,151.879,466.648,155.915,465.716,159.933z"/>
		<path fill-rule="evenodd" clip-rule="evenodd" fill="#E8E8E8" d="M537.664,628.906c-1.355,1.832-3.335,2.101-5.371,1.998
			c-3.947-0.197-5.32,2.131-5.506,5.544c-0.221,4.043,0.393,8.019,2.14,11.657c2.686,5.597,4.263,11.365,4.712,17.601
			c0.402,5.576,1.349,11.202,6.022,15.21c-9.838,4.627-11.231,4.006-12.995-6.448c-0.996-5.903-1.695-11.864-2.338-17.819
			c-1.067-9.889-4.646-19.014-8.482-27.936C523.336,624.597,530.51,626.217,537.664,628.906z"/>
		<path fill-rule="evenodd" clip-rule="evenodd" fill="#E8E8E8" d="M71.497,678.562c5.832-4.924,5.896-12.078,6.592-18.426
			c0.715-6.527,4.516-11.859,5.556-18.135c0.386-2.326,1.104-4.588,0.9-6.979c-0.217-2.547-1.472-4.282-4.335-4.232
			c-2.742,0.047-4.93-1.633-7.537-1.912c6.66-1.793,13.215-4.235,20.296-1.322c1.707,0.703,2.581,0.953,1.599,2.803
			c-6.925,13.027-7.997,27.336-9.949,41.466C83.237,681.819,81.47,682.651,71.497,678.562z"/>
		<path fill-rule="evenodd" clip-rule="evenodd" fill="#E7E7E7" d="M197.777,132.203c-0.159-3.716-1.929-4.308-5.312-3.27
			c-12.923,3.965-25.197,9.571-37.342,15.322c-4.811,2.277-9.828,5.998-9.537,12.832c-0.987-4.53-1.928-9.072-2.98-13.588
			c-0.564-2.424,0.354-3.586,2.662-4.387c16.328-5.663,32.653-11.342,48.898-17.237c3.928-1.426,4.703-0.093,4.287,3.407
			C198.181,127.584,198,129.896,197.777,132.203z"/>
		<path fill-rule="evenodd" clip-rule="evenodd" fill="#E6E6E6" d="M445.624,637.914c-2.231-4.943-3.638-10.359-8.047-14.056
			c2.734-1.438,5.898-4.516,8.328-3.184c2.039,1.116,0.832,5.484,0.87,8.4C446.813,632.04,446.701,635.06,445.624,637.914z"/>
		<path fill-rule="evenodd" clip-rule="evenodd" fill="#E9E9E9" d="M235.397,605.084c2.383-1.49,3.932-1.221,5.378-1.126
			c23.839,1.562,47.473-0.692,70.987-4.191c15.939-2.372,31.632-6.136,47.276-10.009c5.96-1.476,11.802-3.516,17.818-4.659
			c9.465-1.799,17.457-7.246,26.487-10.038c1.577-0.487,3.2-0.927,4.834-1.11c5.696-0.643,9.404,1.598,10.325,6.091
			c1.119,5.463-1.493,9.991-6.667,11.729c-14.263,4.791-29.01,7.442-43.893,8.927c-11.181,1.115-21.664,4.955-32.622,6.841
			c-27.048,4.654-54.16,6.438-81.411,2.188C247.917,608.791,241.868,607.681,235.397,605.084z"/>
		<path fill-rule="evenodd" clip-rule="evenodd" fill="#E8E8E8" d="M354.165,482.344c-9.033,3.533-17.784,4.508-26.472,5.392
			c-5.602,0.569-11.277,0.424-16.91,1.107c-10.234,1.243-19.784-2.213-29.271-5.153c-12.199-3.782-24.216-8.167-36.245-12.475
			c-10.007-3.583-19.881-7.538-29.885-11.128c-8.467-3.037-17.287-4.72-26.149-6.164c-1.53-0.25-4.184,0.695-4.265-1.297
			c-0.1-2.487,2.733-2.482,4.633-2.598c8.852-0.535,17.613,0.579,26.318,1.96c13.806,2.189,27.199,5.877,40.17,11.19
			c4.818,1.974,8.667,5.479,13.575,7.325c15.832,5.958,32.117,9.339,48.995,10.539c9.655,0.688,19.223,1.383,28.857,0.015
			C349.382,480.792,351.46,480.386,354.165,482.344z"/>
	</g>
</g>
<g id="buzo-cuello-redondo">
	<path id="buzo-cuello-redondo-frente" fill-rule="evenodd" clip-rule="evenodd" fill="none" d="M141.997,139.94
		c19.676-6.928,39.237-13.816,58.747-20.688c3.764,6.18,6.97,12.395,11.043,17.975c19.727,27.02,47.051,39.184,79.929,40.084
		c24.088,0.66,46.688-4.127,66.495-18.688c12.897-9.48,22.413-21.705,29.001-36.264c1.148-2.539,2.521-4.977,3.931-7.736
		c26.111,8.496,51.852,16.873,78.059,25.4c-1.917,10.17-3.872,20.08-5.645,30.023c-7.689,43.131-14.997,86.336-14.456,130.34
		c0.136,11.061,2.837,22.068,3.414,33.15c0.341,6.539-1.078,13.186-1.871,19.764c-2.769,22.973-5.627,45.934-8.394,68.906
		c-0.277,2.305-0.684,4.791-0.13,6.963c2.127,8.346,3.027,16.576,0.016,24.922c-0.396,1.102-0.044,2.77,0.53,3.879
		c7.068,13.664,7.118,28.977,10.167,43.555c4.633,22.15,8.59,44.443,12.687,66.705c3.285,17.848-3.259,33.424-15.667,44.789
		c-8.937,8.186-21.925,11.551-34.6,12.988c-24.802,2.813-49.576,5.879-74.396,8.514c-7.096,0.754-14.313,0.285-21.468,0.561
		c-11.469,0.438-22.936,1.459-34.398,1.396c-7.075-0.039-14.142-1.639-21.213-2.525c-20.966-2.629-42.066-4.488-62.848-8.154
		c-12.814-2.26-25.152-7.236-37.672-11.098c-1.165-0.359-2.298-1.303-3.107-2.262c-12.261-14.51-17.843-30.557-13.787-49.93
		c6.171-29.473,11.319-59.16,16.921-88.754c0.34-1.795,0.55-3.703,1.331-5.313c3.755-7.727,3.811-15.699,2.161-23.906
		c-0.42-2.092-0.871-4.5-0.257-6.428c4.941-15.48,0.501-30.762-1.033-46.012c-1.832-18.211-4.779-36.307-7.211-54.457
		c-0.151-1.135-0.275-2.379,0.019-3.453c5.466-19.973,4.327-40.324,3.079-60.586c-2.716-44.123-10.489-87.541-19.118-130.818
		C142.099,141.995,142.104,141.173,141.997,139.94z"/>
	<path id="buzo-cuello-redondo-manga-derecha" fill-rule="evenodd" clip-rule="evenodd" fill="none" d="M473.047,141.698
		c12.714,8.254,22.252,18.836,27.998,31.916c6.259,14.246,11.149,29.15,15.828,44.023c15.92,50.609,31.123,101.447,47.405,151.939
		c4.843,15.02,11.614,29.352,12.389,45.473c0.486,10.135,1.073,20.293,2.3,30.357c3.343,27.426,7.09,54.803,10.588,82.211
		c1.18,9.246,2.403,18.543-0.564,27.709c-2.918,9.016-1.768,18.086-0.657,27.203c0.824,6.77,1.448,13.574,1.896,20.379
		c0.459,6.986-1.513,10.838-8.147,13.002c-10.569,3.447-21.278,7.002-32.207,8.609c-6.588,0.969-13.681-1.906-20.593-2.572
		c-3.676-0.354-7.611-0.295-11.148,0.641c-8.791,2.326-16.782-2.867-17.073-11.934c-0.786-24.463-0.931-48.957-2.217-73.391
		c-1.242-23.602-3.726-47.137-5.348-70.723c-0.349-5.064,0.3-10.281,1.129-15.322c1.166-7.086,0.515-13.002-5.988-17.633
		c-2.305-1.641-3.813-5.055-4.68-7.959c-7.127-23.902-14.046-47.869-20.968-71.832c-3.088-10.691-7.019-21.26-8.843-32.17
		c-3.483-20.836-1.63-41.869,0.278-62.77c3.453-37.83,9.7-75.246,17.469-112.416C472.189,145.026,472.574,143.632,473.047,141.698z"
		/>
	<path id="buzo-cuello-redondo-manga-izquierda" fill-rule="evenodd" clip-rule="evenodd" fill="none" d="M139.87,143.8
		c5.072,33.211,10.561,66.365,15.039,99.654c2.192,16.293,2.855,32.824,3.572,49.275c0.728,16.707-1.078,33.078-6.475,49.189
		c-4.85,14.477-7.839,29.568-12.13,44.25c-1.206,4.127-3.956,7.852-6.263,11.6c-4.009,6.514-8.474,12.762-12.204,19.424
		c-1.159,2.07-1.398,5.41-0.63,7.686c5.305,15.709,2.089,31.314-0.181,46.906c-5.857,40.236-10.651,80.541-9.787,121.322
		c0.126,5.977-0.473,11.971-0.816,17.953c-0.486,8.475-8.04,13.443-16.511,11.734c-4.713-0.951-10.112-1.695-14.521-0.332
		c-10.699,3.311-20.967,2.785-31.37-0.48c-6.189-1.943-12.439-3.729-18.525-5.959c-6.405-2.35-8.812-5.885-8.068-12.475
		c1.939-17.199,4.359-34.346,6.25-51.551c0.535-4.875,0.943-10.18-0.382-14.77c-3.969-13.742-2.261-27.373-0.757-41.104
		c2.935-26.795,5.202-53.684,8.979-80.357c1.991-14.063,5.907-27.967,10.138-41.574c8.092-26.023,17.426-51.662,25.509-77.688
		c8.583-27.637,16.365-55.521,24.4-83.326c6.236-21.582,18.84-39.523,32.293-56.988c3.32-4.309,6.872-8.441,10.317-12.654
		C138.454,143.624,139.162,143.712,139.87,143.8z"/>
	<path id="buzo-cuello-redondo-botamanga-frente" fill-rule="evenodd" clip-rule="evenodd" fill="none" d="M160.427,617.792
		c1.569,0.498,2.356,0.67,3.077,0.988c26.346,11.697,54.674,13.809,82.751,17.143c8.419,1,16.822,2.127,25.245,3.09
		c4.121,0.473,8.281,1.09,12.405,0.977c19.297-0.531,38.667-0.426,57.862-2.182c27.492-2.516,54.89-6.199,82.247-9.967
		c6.28-0.865,12.243-4.082,18.332-6.271c1.66-0.596,3.247-1.398,5.188-2.246c0,5.225,0.165,9.842-0.039,14.441
		c-0.287,6.473-1.082,12.93-1.189,19.4c-0.053,3.182-1.061,5.082-4.03,5.916c-12.459,3.498-24.746,7.994-37.431,10.223
		c-22.766,3.996-45.686,7.719-68.702,9.498c-20.343,1.572-41.03,1.787-61.339,0.008c-29.462-2.578-58.984-5.766-87.726-13.578
		c-4.774-1.299-9.928-1.133-14.799-2.156c-7.888-1.66-9.216-3.77-9.364-11.582c-0.104-5.484-0.743-10.959-1.157-16.439
		C161.347,629.597,160.917,624.14,160.427,617.792z"/>
	<path id="buzo-cuello-redondo-botamanga-izquierda" fill-rule="evenodd" clip-rule="evenodd" fill="none" d="M29.928,620.685
		c7.038,1.98,13.212,3.686,19.366,5.459c9.643,2.777,19.234,3.271,28.948,0.127c5.814-1.883,11.734-2.305,16.724,0.744
		c-2.574,9.977-5.396,19.797-7.578,29.76c-1.489,6.799-2.051,13.797-3.09,20.697c-0.695,4.619-3.125,6.367-7.681,4.451
		c-1.222-0.514-2.568-0.74-3.771-1.287c-10.054-4.578-20.533-6.01-31.572-5.492c-11.49,0.539-11.431,0.109-11.366-11.059
		C29.99,649.823,29.928,635.563,29.928,620.685z"/>
	<path id="buzo-cuello-redondo-botamanga-derecha" fill-rule="evenodd" clip-rule="evenodd" fill="none" d="M581.534,620.224
		c0,17.258-0.103,33.52,0.098,49.777c0.034,2.781-0.818,4.215-3.292,4.521c-3.451,0.428-6.986,0.965-10.413,0.656
		c-10.066-0.902-19.424,1.357-28.705,5.004c-10.948,4.301-11.691,3.768-13.427-7.979c-2.253-15.248-2.909-30.85-11.159-44.701
		c0.248-0.541,0.495-1.082,0.743-1.621c5.136-0.02,10.665-1.291,15.334,0.176c15.135,4.756,29.268,1.139,43.48-3.412
		C576.188,622.007,578.173,621.333,581.534,620.224z"/>
	<path id="buzo-cuello-redondo-cuello-2" fill-rule="evenodd" clip-rule="evenodd" fill="none" d="M205.146,117.187
		c2.982-0.926,5.976-1.855,9.229-2.865c18.838,31.09,44.835,50.674,82.545,49.465c37.341-1.197,62.597-21.246,79.116-53.916
		c1.897,0.537,3.646,0.965,5.35,1.531c1.704,0.566,3.362,1.27,5.385,2.045c-6.053,17.475-16.254,31.539-30.827,42.313
		c-20.119,14.873-43.216,19.248-67.602,17.965c-23.691-1.246-44.836-9.113-62.421-25.559
		C217.256,140.062,207.579,125.927,205.146,117.187z"/>
	<path id="buzo-cuello-redondo-cuello" fill-rule="evenodd" clip-rule="evenodd" fill="none" d="M221.756,118.573
		c49.302,8.535,98.199,7.352,147.785-3.451c-3.764,5.219-7.124,10.121-10.791,14.785c-0.897,1.141-2.723,1.814-4.245,2.164
		c-24.021,5.51-48.421,7.131-72.895,5.24c-15.358-1.188-30.567-4.252-45.861-6.342C228.112,129.927,224.993,124.202,221.756,118.573
		z"/>
	<path id="buzo-cuello-redondo-espalda" fill-rule="evenodd" clip-rule="evenodd" fill="none" d="M235.021,134.749
		c39.168,8.512,77.587,8.508,116.661,2.012C326.15,165.013,268.936,171.606,235.021,134.749z"/>
</g>
</svg>
