<?xml version="1.0" encoding="utf-8"?>
<!-- Generator: Adobe Illustrator 16.0.0, SVG Export Plug-In . SVG Version: 6.00 Build 0)  -->
<!DOCTYPE svg PUBLIC "-//W3C//DTD SVG 1.1//EN" "http://www.w3.org/Graphics/SVG/1.1/DTD/svg11.dtd">
<svg version="1.1" id="Layer_1" xmlns="http://www.w3.org/2000/svg" xmlns:xlink="http://www.w3.org/1999/xlink" x="0px" y="0px"
	 width="612px" height="792px" viewBox="0 0 612 792" enable-background="new 0 0 612 792" xml:space="preserve">
<g>
	<path fill-rule="evenodd" clip-rule="evenodd" d="M455.693,379.61c-2.024,15.447-4.164,30.883-6.034,46.35
		c-1.358,11.236-2.383,22.514-3.495,33.779c-0.161,1.639-0.349,3.42,0.105,4.947c2.225,7.5,3.028,14.92,0.215,22.482
		c-0.477,1.281-0.441,3.219,0.206,4.381c6.113,10.963,6.235,23.387,8.597,35.219c4.785,23.975,8.688,48.127,13.682,72.053
		c3.591,17.203-1.208,31.941-11.087,45.527c-3.967,5.455-6.734,10.545-6.225,17.916c0.646,9.367-0.588,18.893-1.479,28.307
		c-0.17,1.801-2.185,4.361-3.896,4.932c-11.159,3.73-22.264,8.166-33.771,10.197c-25.053,4.418-50.237,8.715-75.555,10.82
		c-20.981,1.744-42.343,1.643-63.333-0.098c-29.479-2.443-58.958-5.93-87.726-13.561c-4.464-1.186-9.261-1.068-13.788-2.074
		c-3.023-0.674-5.914-2.121-8.73-3.494c-2.96-1.445-3.802-3.857-3.901-7.316c-0.384-13.305-1.205-26.6-2.1-39.883
		c-0.108-1.613-1.492-3.246-2.551-4.674c-8.465-11.422-14.368-23.936-12.879-38.406c1.205-11.723,3.847-23.303,6.027-34.914
		c4.115-21.908,8.334-43.797,12.578-65.682c0.535-2.76,1.764-5.398,2.176-8.166c0.722-4.854,1.213-9.754,1.521-14.652
		c0.38-6.068,0.429-12.158,0.715-18.234c0.125-2.645,0.955-5.33,0.669-7.908c-2.861-25.76-5.889-51.502-8.868-77.25
		c-0.41-0.047-0.82-0.094-1.23-0.141c-0.392,0.898-0.905,1.764-1.158,2.701c-3.594,13.33-6.914,26.74-10.862,39.965
		c-1.231,4.125-4.009,7.828-6.307,11.584c-3.904,6.379-8.168,12.545-11.878,19.031c-0.946,1.654-1.059,4.41-0.409,6.258
		c5.273,14.994,2.104,29.873,0.101,44.879c-5.002,37.449-10.882,74.822-9.785,112.836c0.297,10.285-0.905,20.613-1.402,30.922
		c-0.289,5.986-3.999,9.055-9.054,11.383c-2.003,0.922-4.051,2.701-5.081,4.625c-6.926,12.924-8.324,27.244-10.013,41.475
		c-1.859,15.662-4.927,17.621-19.565,11.777c-8.496-3.393-16.942-5.08-26.245-4.287c-15.025,1.281-17.238-1.211-16.973-16.02
		c0.215-11.988,0.464-23.975,0.79-35.961c0.126-4.625-1.035-8.43-5.165-11.125c-5.087-3.322-5.253-8.371-4.529-13.777
		c2.252-16.826,4.558-33.648,6.424-50.518c0.537-4.863,0.527-10.117-0.737-14.783c-3.542-13.078-2.17-26.045-0.705-39.137
		c2.998-26.801,5.079-53.727,8.955-80.395c2.257-15.533,6.6-30.865,11.183-45.93c6.674-21.938,14.849-43.418,21.589-65.338
		c9.481-30.838,18.346-61.869,27.262-92.879c6.112-21.26,18.174-39.139,31.313-56.443c3.725-4.904,7.87-9.49,11.658-14.35
		c3.635-4.664,8.188-7.084,14.068-8.336c6.456-1.373,12.59-4.258,18.869-6.469c13.96-4.918,27.869-9.986,41.913-14.648
		c4.641-1.539,5.714-4.053,4.031-8.205c-1.659-4.094-1.188-7.355,0.927-11.631c2.091-4.229,1.553-9.984,1.395-15.045
		c-0.256-8.221-1.7-16.438-1.431-24.617c0.082-2.502,3.719-6.232,6.44-7.061c9.183-2.795,18.582-5.42,28.083-6.529
		c37.673-4.4,75.469-4.373,113.22-1.063c9.384,0.822,18.748,2.879,27.877,5.291c7.035,1.859,7.437,4.369,6.777,11.518
		c-0.757,8.207-0.706,16.51-0.598,24.766c0.101,7.725,1.012,15.441,1.008,23.162c-0.002,3.424,0.994,4.906,4.145,6.125
		c19.71,7.627,39.073,16.236,59.051,23.059c21.788,7.439,36.371,22.303,45.339,42.354c6.886,15.396,11.388,31.896,16.458,48.059
		c15.184,48.404,30.088,96.895,45.188,145.324c3.653,11.721,8.546,23.137,11.182,35.064c2.169,9.816,1.501,20.223,2.685,30.299
		c2.642,22.482,5.67,44.918,8.509,67.379c1.502,11.887,3.195,23.76,4.278,35.686c0.46,5.066,0.51,10.523-0.875,15.336
		c-3.628,12.607-1.898,25.047-0.427,37.6c0.621,5.289,0.846,10.623,1.325,15.93c0.382,4.229-1.204,7.67-4.631,9.889
		c-4.532,2.936-5.573,7.121-5.428,12.039c0.413,13.984,0.739,27.973,1.184,41.957c0.183,5.74-1.33,7.961-7.021,8.762
		c-3.773,0.529-7.7,1.094-11.426,0.613c-7.887-1.016-15.211,0.498-22.455,3.326c-3.25,1.27-6.557,2.445-9.922,3.354
		c-6.497,1.752-9.456,0.154-10.877-6.426c-1.332-6.17-2.344-12.451-2.894-18.736c-0.957-10.947-4.054-21.225-8.824-31.021
		c-0.773-1.588-2.399-3.344-4-3.844c-7.108-2.217-10.088-7.107-10.287-14.203c-0.393-13.988-0.54-27.99-1.296-41.959
		c-1.672-30.924-3.627-61.83-5.534-92.74c-0.552-8.947-1.939-17.838,0.478-26.789c1.386-5.131,0.14-9.416-4.529-13.178
		c-2.977-2.398-5.068-6.627-6.22-10.439c-7.552-24.998-14.735-50.109-22.056-75.178c-0.579-1.982-1.279-3.928-1.924-5.891
		C456.376,379.499,456.035,379.554,455.693,379.61z M300.489,183.956c-2.507-0.41-4.472-0.754-6.444-1.045
		c-0.987-0.148-1.992-0.178-2.983-0.303c-27.459-3.426-53.245-10.617-72.954-31.887c-0.956-1.031-3.665-1.352-5.156-0.838
		c-22.18,7.639-44.272,15.527-66.438,23.205c-3.34,1.158-4.048,2.551-3.333,6.162c7.729,39.023,14.779,78.18,17.976,117.879
		c1.924,23.881,3.896,47.861-2.334,71.531c-0.325,1.238-0.136,2.662,0.038,3.971c2.406,18.15,5.206,36.258,7.18,54.455
		c1.654,15.258,5.869,30.543,0.877,46.002c-0.567,1.758-0.052,3.988,0.35,5.918c1.67,8.016,1.825,15.838-1.982,23.402
		c-0.729,1.449-0.959,3.18-1.269,4.811c-5.722,30.068-11.106,60.205-17.236,90.191c-3.874,18.949,1.74,34.766,13.623,49.076
		c0.717,0.863,1.593,1.82,2.594,2.184c8.585,3.111,17.001,7.342,25.876,8.879c23.082,4.002,46.374,6.793,69.579,10.09
		c6.681,0.949,13.351,1.975,20.379,3.018c0.249-2.262,0.524-4.051,0.633-5.85c3.337-55.209,4.947-110.463,2.996-165.75
		c-0.998-28.287-3.954-56.521-4.426-84.807c-0.608-36.449,0.479-72.924,0.667-109.391c0.19-36.961,0.175-73.924,0.272-110.885
		c0.002-0.768,0.293-1.533,0.554-2.809c7.063,0,13.969,0,20.964,0C300.489,188.479,300.489,186.36,300.489,183.956z
		 M332.796,191.417c0.212,4.018,0.568,7.172,0.515,10.32c-0.798,46.451-1.938,92.898-2.376,139.352
		c-0.246,25.965,0.402,51.945,1.096,77.906c0.862,32.281,3.136,64.551,3.083,96.822c-0.071,43.783-1.792,87.564-2.747,131.348
		c-0.158,7.254-0.022,14.514-0.022,21.869c2.086,0.109,3.076,0.301,4.032,0.191c27.935-3.193,55.973-5.717,83.74-9.994
		c10.401-1.602,20.171-7.299,30.229-11.127c10.611-12.795,18.769-26.684,15.713-44.107c-4.971-28.344-10.488-56.594-15.875-84.863
		c-1.365-7.166-2.218-14.627-4.954-21.275c-2.324-5.646-2.92-10.566-1.343-16.324c0.838-3.059,0.407-6.521,0.229-9.785
		c-0.314-5.768-1.686-11.594-1.173-17.266c1.422-15.742,3.903-31.389,5.371-47.127c1.587-17.02,6.085-33.535,2.741-51.297
		c-4.485-23.83-2.091-48.266,1.179-72.182c4.819-35.25,10.965-70.32,16.778-105.43c0.541-3.266-0.286-4.377-3.048-5.455
		c-21.238-8.295-42.451-16.654-63.613-25.141c-3.111-1.248-5.3-0.867-7.5,1.6c-14.531,16.293-33.019,25.525-54.146,29.742
		c-9.581,1.912-19.282,3.227-29.01,4.824c0,2.408,0,4.639,0,7.398C318.791,191.417,325.558,191.417,332.796,191.417z
		 M473.764,175.376c-0.788,2.529-0.977,2.992-1.075,3.473c-8.624,41.752-15.677,83.746-18.845,126.303
		c-1.323,17.777-2.521,35.699,0.987,53.295c2.267,11.367,6.337,22.375,9.595,33.545c6.702,22.984,13.312,45.996,20.214,68.92
		c0.861,2.859,2.739,5.926,5.055,7.734c5.49,4.293,6.372,9.426,5.49,15.93c-0.908,6.688-1.288,13.566-0.861,20.297
		c1.548,24.428,3.938,48.807,5.23,73.244c1.187,22.441,1.269,44.939,2.038,67.406c0.291,8.48,7.151,13.787,15.446,11.383
		c6.482-1.877,12.396-0.67,18.643,0.387c5.663,0.957,11.704,2.227,17.177,1.205c10.084-1.883,20.013-4.941,29.73-8.309
		c5.4-1.871,9.124-5.908,8.16-12.662c-0.798-5.596-0.841-11.297-1.629-16.893c-1.635-11.611-2.591-23.117,0.871-34.635
		c0.985-3.277,1.366-6.959,1.052-10.365c-1.102-11.932-2.625-23.826-3.993-35.732c-3.288-28.596-6.819-57.164-9.757-85.795
		c-1.297-12.635-2.658-25.111-7.495-37.006c-3.566-8.77-7.235-17.549-10.014-26.584c-16.183-52.621-32.115-105.318-48.134-157.988
		c-4.447-14.625-10.551-28.479-20.59-40.146C486.058,186.569,480.119,181.563,473.764,175.376z M139.255,177.032
		c-4.405,5.387-8.033,9.619-11.438,14.023c-13.387,17.32-25.817,35.17-32.027,56.586c-8.943,30.842-17.803,61.711-27.148,92.43
		c-6.291,20.678-12.804,41.322-20.265,61.598c-5.717,15.537-10.837,31.133-12.774,47.563c-3.174,26.928-5.917,53.906-8.828,80.865
		c-1.518,14.055-3.375,28.037,0.805,42.094c1.269,4.262,0.852,9.232,0.341,13.781c-1.931,17.201-4.357,34.346-6.3,51.547
		c-0.779,6.906,2.048,10.816,8.68,13.113c5.343,1.852,10.805,3.355,16.166,5.154c11.193,3.754,22.32,4.383,33.805,0.852
		c3.744-1.152,8.337-1.068,12.174-0.098c10.704,2.707,17.855-2.014,18.19-13.016c0.639-20.975,0.238-42.025,1.901-62.914
		c1.981-24.869,5.7-49.602,8.625-74.396c1.743-14.775,5.838-29.508,0.491-44.398c-1.891-5.264-0.566-10.113,2.717-14.576
		c10.607-14.414,19.318-29.686,21.97-47.801c0.622-4.252,1.867-8.453,3.207-12.553c6.4-19.58,10.569-39.436,9.76-60.242
		c-1.317-33.844-5.377-67.355-11.135-100.688C145.435,210.116,142.416,194.323,139.255,177.032z M329.143,667.737
		c0-0.584-0.014-2.346,0.002-4.109c0.279-31.457,0.495-62.916,0.86-94.373c0.405-34.797,1.689-69.604,1.204-104.387
		c-0.408-29.258-3.559-58.477-4.098-87.738c-0.484-26.273,1.074-52.58,1.479-78.877c0.505-32.785,0.759-65.572,1.083-98.359
		c0.017-1.676-0.325-3.357-0.5-5.035c-0.412-0.053-0.824-0.104-1.235-0.156c-0.704,1.254-1.407,2.508-3.237,5.768
		c1.061-6.73-2.364-5.676-5.035-5.688c-9.163-0.043-18.328-0.113-27.489,0.031c-2.962,0.047-5.914,0.717-9.306,1.158
		c0,0.572-0.013,1.873,0.002,3.172c0.243,20.639,0.975,41.287,0.625,61.916c-0.564,33.285-2.794,66.566-2.558,99.836
		c0.256,36.104,2.924,72.184,3.813,108.291c0.976,39.605,1.67,79.234,1.436,118.846c-0.153,25.945-2.18,51.879-3.328,77.818
		c-0.05,1.125,0.297,2.266,0.458,3.398c0.365,0.029,0.729,0.059,1.094,0.088c0.753-1.324,1.506-2.648,2.259-3.973
		c-0.026,0.545-0.052,1.088-0.078,1.633c1.756,0.785,3.496,2.205,5.27,2.248c9.324,0.227,18.657,0.121,27.987,0.086
		c1.312-0.004,2.634-0.18,3.932-0.395C325.113,668.718,326.423,668.354,329.143,667.737z M448.64,654.187
		c-2.706,0.742-4.216,0.92-5.506,1.549c-9.535,4.637-19.58,7.346-30.114,8.443c-27.62,2.877-55.203,6.146-82.859,8.602
		c-12.553,1.115-25.243,0.715-37.872,0.912c-6.285,0.098-12.613,0.436-18.852-0.127c-10.75-0.969-21.447-2.545-32.163-3.889
		c-26.061-3.266-52.34-5.502-76.785-16.361c-0.847-0.377-1.819-0.469-3.122-0.789c0,2.012-0.099,3.625,0.017,5.223
		c0.653,9.129,1.615,18.242,1.971,27.381c0.336,8.652,2.363,11.295,11.225,12.637c5.096,0.771,10.348,0.936,15.284,2.275
		c28.409,7.715,57.679,9.969,86.715,13.359c13.186,1.541,26.724,0.031,40.103-0.053c7.653-0.049,15.378,0.654,22.947-0.148
		c16.532-1.752,33.114-3.568,49.437-6.631c17.106-3.211,33.95-7.838,50.87-12c5.105-1.256,7.676-4.281,6.78-10.121
		c-0.541-3.527,0.354-7.273,0.604-10.92C447.734,667.429,448.151,661.331,448.64,654.187z M218.074,88.665
		c0.195,0.533,0.399,1.549,0.906,2.379c0.952,1.557,1.966,3.105,3.15,4.488c12.601,14.715,27.938,26.107,44.298,36.223
		c1.745,1.08,3.88,1.514,5.804,2.32c2.462,1.033,4.866,2.996,7.343,3.074c15.477,0.484,30.966,0.637,46.451,0.691
		c2.741,0.01,5.846-0.311,8.165-1.594c8.948-4.947,18.358-9.459,26.262-15.797c10.583-8.486,20.072-18.373,29.682-28.008
		c1.934-1.938,2.304-5.438,3.381-8.221c-16.194-11.613-134.153-13.723-162.141-2.984c0.373,0.559,0.772,1.156,1.172,1.754
		c-1.62-0.137-3.239-0.273-4.859-0.41c0.154,0.223,0.309,0.443,0.463,0.666c-1.72,0.596-3.439,1.191-5.159,1.789
		c-0.03-0.252-0.061-0.502-0.091-0.754C221.361,85.679,219.823,87.077,218.074,88.665z M392.37,97.981
		c-1.151,0.299-1.53,0.283-1.714,0.465c-0.827,0.818-1.577,1.713-2.393,2.541c-15.135,15.402-31.112,30.094-51.394,38.051
		c-12.292,4.82-18.443,12.922-20.98,24.861c-1.076,5.059-1.392,10.279-2.092,15.732c5.318-0.688,10.248-1.254,15.155-1.969
		c22.339-3.26,43.088-10.174,59.271-26.869c2.247-2.318,7.712-3.943,4.12-9.207c-0.115-0.17,0.649-0.793,0.677-1.227
		c0.193-3.068,0.498-6.15,0.384-9.213c-0.116-3.125-0.925-6.23-0.984-9.354C392.27,113.927,392.37,106.056,392.37,97.981z
		 M30.465,655.003c0,15.566,0.127,30.65-0.052,45.729c-0.094,7.885,0.213,8.488,8.311,8.939c1.492,0.084,3.013,0.24,4.484,0.063
		c10.36-1.25,20.03,1.027,29.64,4.846c10.479,4.164,11.399,3.527,12.915-7.664c2.074-15.307,3.593-30.705,10.512-44.865
		c0.089-0.18-0.231-0.561-0.08-0.225c-6.739-4.121-13.293-2.52-19.701-0.725c-8.102,2.27-16.091,2.061-24.112-0.092
		C45.388,659.134,38.414,657.185,30.465,655.003z M581.729,654.663c-3.478,1.096-5.516,1.729-7.548,2.381
		c-13.708,4.393-27.459,8.227-41.911,3.361c-5.593-1.881-11.044-1.467-16.58,1.172c0.274,0.879,0.584,1.789,0.843,2.713
		c2.546,9.072,5.399,18.076,7.514,27.248c1.45,6.289,1.683,12.848,2.799,19.227c1.064,6.084,2.703,6.924,8.565,5.15
		c1.588-0.48,3.182-0.975,4.708-1.619c8.702-3.666,17.619-5.764,27.184-4.654c3.092,0.359,6.297-0.152,9.442-0.381
		c3.761-0.273,5.213-1.896,5.121-6.119C581.522,687.372,581.729,671.593,581.729,654.663z M219.473,100.21
		c0.26,4.557,0.9,9.133,0.678,13.666c-0.255,5.215-0.104,10.973-2.305,15.418c-2.024,4.09-1.277,6.754,0.315,10.068
		c0.539,1.121,1.612,3.117,1.359,3.313c-2.78,2.145-0.371,3.449,0.733,4.684c20.689,23.148,48.365,29.375,78.952,32.363
		c-3.709-9.576-6.821-18.395-10.544-26.949c-2.495-5.732-6.35-10.4-12.966-12.199c-2.99-0.813-5.775-2.545-8.509-4.113
		C249.913,126.558,234.467,114.292,219.473,100.21z M323.273,141.38c-13.324,0-25.266,0-37.023,0
		c2.893,5.246,6.129,10.273,8.516,15.678c2.47,5.59,4.706,11.422,5.951,17.375c1.182,5.652,3.994,6.465,9.009,4.99
		C311.297,166.315,312.977,153.108,323.273,141.38z M302.785,183.815c0,2.637,0,4.836,0,7.215c2.443,0,4.502,0,6.608,0
		c0-2.57,0-4.801,0-7.215C307.144,183.815,305.204,183.815,302.785,183.815z"/>
	<path fill-rule="evenodd" clip-rule="evenodd" fill="#FFFFFF" d="M300.489,183.956c0,2.404,0,4.523,0,7.211
		c-6.995,0-13.901,0-20.964,0c-0.261,1.275-0.552,2.041-0.554,2.809c-0.098,36.961-0.082,73.924-0.272,110.885
		c-0.188,36.467-1.275,72.941-0.667,109.391c0.472,28.285,3.428,56.52,4.426,84.807c1.951,55.287,0.341,110.541-2.996,165.75
		c-0.108,1.799-0.384,3.588-0.633,5.85c-7.028-1.043-13.698-2.068-20.379-3.018c-23.205-3.297-46.497-6.088-69.579-10.09
		c-8.875-1.537-17.291-5.768-25.876-8.879c-1.001-0.363-1.877-1.32-2.594-2.184c-11.883-14.311-17.497-30.127-13.623-49.076
		c6.13-29.986,11.515-60.123,17.236-90.191c0.31-1.631,0.539-3.361,1.269-4.811c3.808-7.564,3.652-15.387,1.982-23.402
		c-0.401-1.93-0.917-4.16-0.35-5.918c4.992-15.459,0.777-30.744-0.877-46.002c-1.974-18.197-4.773-36.305-7.18-54.455
		c-0.174-1.309-0.363-2.732-0.038-3.971c6.229-23.67,4.258-47.65,2.334-71.531c-3.196-39.699-10.246-78.855-17.976-117.879
		c-0.715-3.611-0.007-5.004,3.333-6.162c22.166-7.678,44.259-15.566,66.438-23.205c1.491-0.514,4.2-0.193,5.156,0.838
		c19.709,21.27,45.495,28.461,72.954,31.887c0.991,0.125,1.996,0.154,2.983,0.303C296.018,183.202,297.982,183.546,300.489,183.956z
		 M206.603,508.415c-4.6,39.314-12.143,77.279-30.441,112.879c8.928,2.398,16.355,4.395,23.505,6.316
		c15.125-36.674,24.577-74.195,30.542-112.918C222.622,512.675,215.142,510.687,206.603,508.415z"/>
	<path fill-rule="evenodd" clip-rule="evenodd" fill="#FFFFFF" d="M332.796,191.417c-7.238,0-14.005,0-21.101,0
		c0-2.76,0-4.99,0-7.398c9.728-1.598,19.429-2.912,29.01-4.824c21.128-4.217,39.615-13.449,54.146-29.742
		c2.2-2.467,4.389-2.848,7.5-1.6c21.162,8.486,42.375,16.846,63.613,25.141c2.762,1.078,3.589,2.189,3.048,5.455
		c-5.813,35.109-11.959,70.18-16.778,105.43c-3.27,23.916-5.664,48.352-1.179,72.182c3.344,17.762-1.154,34.277-2.741,51.297
		c-1.468,15.738-3.949,31.385-5.371,47.127c-0.513,5.672,0.858,11.498,1.173,17.266c0.178,3.264,0.608,6.727-0.229,9.785
		c-1.577,5.758-0.981,10.678,1.343,16.324c2.736,6.648,3.589,14.109,4.954,21.275c5.387,28.27,10.904,56.52,15.875,84.863
		c3.056,17.424-5.102,31.313-15.713,44.107c-10.059,3.828-19.828,9.525-30.229,11.127c-27.768,4.277-55.806,6.801-83.74,9.994
		c-0.956,0.109-1.946-0.082-4.032-0.191c0-7.355-0.136-14.615,0.022-21.869c0.955-43.783,2.676-87.564,2.747-131.348
		c0.053-32.271-2.221-64.541-3.083-96.822c-0.693-25.961-1.342-51.941-1.096-77.906c0.438-46.453,1.578-92.9,2.376-139.352
		C333.364,198.589,333.008,195.435,332.796,191.417z M441.293,621.653c-6.519-18.678-14.068-36.68-18.969-55.377
		c-4.928-18.799-7.219-38.289-10.719-57.773c-8.205,2.234-15.526,4.227-22.73,6.186c0.242,19.154,22.702,101.494,30.727,112.902
		C426.893,625.595,434.232,623.587,441.293,621.653z"/>
	<path fill-rule="evenodd" clip-rule="evenodd" fill="#FFFFFF" d="M473.764,175.376c6.355,6.188,12.294,11.193,17.296,17.006
		c10.039,11.668,16.143,25.521,20.59,40.146c16.019,52.67,31.951,105.367,48.134,157.988c2.778,9.035,6.447,17.814,10.014,26.584
		c4.837,11.895,6.198,24.371,7.495,37.006c2.938,28.631,6.469,57.199,9.757,85.795c1.368,11.906,2.892,23.801,3.993,35.732
		c0.314,3.406-0.066,7.088-1.052,10.365c-3.462,11.518-2.506,23.023-0.871,34.635c0.788,5.596,0.831,11.297,1.629,16.893
		c0.964,6.754-2.76,10.791-8.16,12.662c-9.718,3.367-19.646,6.426-29.73,8.309c-5.473,1.021-11.514-0.248-17.177-1.205
		c-6.246-1.057-12.16-2.264-18.643-0.387c-8.295,2.404-15.155-2.902-15.446-11.383c-0.77-22.467-0.852-44.965-2.038-67.406
		c-1.292-24.438-3.683-48.816-5.23-73.244c-0.427-6.73-0.047-13.609,0.861-20.297c0.882-6.504,0-11.637-5.49-15.93
		c-2.315-1.809-4.193-4.875-5.055-7.734c-6.902-22.924-13.512-45.936-20.214-68.92c-3.258-11.17-7.328-22.178-9.595-33.545
		c-3.508-17.596-2.311-35.518-0.987-53.295c3.168-42.557,10.221-84.551,18.845-126.303
		C472.787,178.368,472.976,177.905,473.764,175.376z"/>
	<path fill-rule="evenodd" clip-rule="evenodd" fill="#FFFFFF" d="M139.255,177.032c3.161,17.291,6.18,33.084,8.916,48.924
		c5.758,33.332,9.817,66.844,11.135,100.688c0.81,20.807-3.359,40.662-9.76,60.242c-1.34,4.1-2.585,8.301-3.207,12.553
		c-2.651,18.115-11.362,33.387-21.97,47.801c-3.283,4.463-4.607,9.313-2.717,14.576c5.347,14.891,1.252,29.623-0.491,44.398
		c-2.925,24.795-6.644,49.527-8.625,74.396c-1.663,20.889-1.263,41.939-1.901,62.914c-0.335,11.002-7.486,15.723-18.19,13.016
		c-3.837-0.971-8.43-1.055-12.174,0.098c-11.484,3.531-22.611,2.902-33.805-0.852c-5.361-1.799-10.823-3.303-16.166-5.154
		c-6.632-2.297-9.459-6.207-8.68-13.113c1.942-17.201,4.369-34.346,6.3-51.547c0.511-4.549,0.928-9.52-0.341-13.781
		c-4.18-14.057-2.322-28.039-0.805-42.094c2.911-26.959,5.654-53.938,8.828-80.865c1.938-16.43,7.058-32.025,12.774-47.563
		c7.461-20.275,13.974-40.92,20.265-61.598c9.346-30.719,18.205-61.588,27.148-92.43c6.21-21.416,18.641-39.266,32.027-56.586
		C131.222,186.651,134.85,182.419,139.255,177.032z"/>
	<path fill-rule="evenodd" clip-rule="evenodd" fill="#FFFFFF" d="M329.143,667.737c-2.72,0.617-4.029,0.98-5.361,1.199
		c-1.298,0.215-2.62,0.391-3.932,0.395c-9.33,0.035-18.663,0.141-27.987-0.086c-1.773-0.043-3.514-1.463-5.27-2.248
		c0.026-0.545,0.052-1.088,0.078-1.633c-0.753,1.324-1.506,2.648-2.259,3.973c-0.364-0.029-0.729-0.059-1.094-0.088
		c-0.161-1.133-0.508-2.273-0.458-3.398c1.148-25.939,3.175-51.873,3.328-77.818c0.234-39.611-0.46-79.24-1.436-118.846
		c-0.89-36.107-3.558-72.188-3.813-108.291c-0.236-33.27,1.993-66.551,2.558-99.836c0.35-20.629-0.382-41.277-0.625-61.916
		c-0.015-1.299-0.002-2.6-0.002-3.172c3.392-0.441,6.344-1.111,9.306-1.158c9.161-0.145,18.326-0.074,27.489-0.031
		c2.671,0.012,6.096-1.043,5.035,5.688c1.83-3.26,2.533-4.514,3.237-5.768c0.411,0.053,0.823,0.104,1.235,0.156
		c0.175,1.678,0.517,3.359,0.5,5.035c-0.324,32.787-0.578,65.574-1.083,98.359c-0.404,26.297-1.963,52.604-1.479,78.877
		c0.539,29.262,3.689,58.48,4.098,87.738c0.485,34.783-0.799,69.59-1.204,104.387c-0.365,31.457-0.581,62.916-0.86,94.373
		C329.129,665.392,329.143,667.153,329.143,667.737z M291.43,582.437c0.444,0.191,0.951,0.314,1.344,0.596
		c3.867,2.783,7.596,2.338,10.75-0.953c2.698-2.816,3.104-6.379,0.791-9.586c-2.755-3.82-6.396-5.008-10.875-2.514
		c-1.056,0.588-2.559,0.371-3.906,0.531c0,4.539,0,9.145,0,14.338C290.349,583.81,290.875,583.142,291.43,582.437z M297.543,338.694
		c4.313,0.031,7.954-3.479,8.086-7.791c0.138-4.502-3.637-8.299-8.154-8.203c-4.285,0.092-7.866,3.77-7.831,8.043
		C289.679,335.015,293.306,338.665,297.543,338.694z M289.464,453.763c0.044,4.109,3.864,7.879,8.062,7.957
		c4.511,0.082,8.214-3.703,8.093-8.271c-0.113-4.236-3.914-7.828-8.173-7.725C293.317,445.825,289.421,449.749,289.464,453.763z
		 M305.622,206.798c-0.004-4.283-3.609-7.994-7.842-8.07c-4.401-0.08-8.275,3.857-8.157,8.287c0.113,4.256,3.829,7.805,8.136,7.77
		C302.08,214.749,305.626,211.147,305.622,206.798z"/>
	<path fill-rule="evenodd" clip-rule="evenodd" fill="#FFFFFF" d="M448.64,654.187c-0.488,7.145-0.905,13.242-1.322,19.342
		c-0.249,3.646-1.145,7.393-0.604,10.92c0.896,5.84-1.675,8.865-6.78,10.121c-16.92,4.162-33.764,8.789-50.87,12
		c-16.322,3.063-32.904,4.879-49.437,6.631c-7.569,0.803-15.294,0.1-22.947,0.148c-13.379,0.084-26.917,1.594-40.103,0.053
		c-29.036-3.391-58.306-5.645-86.715-13.359c-4.937-1.34-10.188-1.504-15.284-2.275c-8.861-1.342-10.889-3.984-11.225-12.637
		c-0.355-9.139-1.317-18.252-1.971-27.381c-0.115-1.598-0.017-3.211-0.017-5.223c1.303,0.32,2.275,0.412,3.122,0.789
		c24.445,10.859,50.725,13.096,76.785,16.361c10.716,1.344,21.413,2.92,32.163,3.889c6.238,0.563,12.566,0.225,18.852,0.127
		c12.629-0.197,25.319,0.203,37.872-0.912c27.656-2.455,55.239-5.725,82.859-8.602c10.534-1.098,20.579-3.807,30.114-8.443
		C444.424,655.106,445.934,654.929,448.64,654.187z"/>
	<path fill-rule="evenodd" clip-rule="evenodd" fill="#FFFFFF" d="M218.074,88.665c1.749-1.588,3.287-2.986,4.826-4.383
		c0.03,0.252,0.061,0.502,0.091,0.754c1.72-0.598,3.439-1.193,5.159-1.789c-0.154-0.223-0.309-0.443-0.463-0.666
		c1.62,0.137,3.239,0.273,4.859,0.41c-0.399-0.598-0.799-1.195-1.172-1.754c27.987-10.738,145.946-8.629,162.147,2.986
		c-1.084,2.781-1.454,6.281-3.388,8.219c-9.609,9.635-19.099,19.521-29.682,28.008c-7.903,6.338-17.313,10.85-26.262,15.797
		c-2.319,1.283-5.424,1.604-8.165,1.594c-15.485-0.055-30.975-0.207-46.451-0.691c-2.477-0.078-4.881-2.041-7.343-3.074
		c-1.924-0.807-4.059-1.24-5.804-2.32c-16.36-10.115-31.697-21.508-44.298-36.223c-1.185-1.383-2.198-2.932-3.15-4.488
		C218.474,90.214,218.27,89.198,218.074,88.665z"/>
	<path fill-rule="evenodd" clip-rule="evenodd" fill="#FFFFFF" d="M392.37,97.981c0,8.074-0.101,15.945,0.05,23.813
		c0.06,3.123,0.868,6.229,0.984,9.354c0.114,3.063-0.19,6.145-0.384,9.213c-0.027,0.434-0.792,1.057-0.677,1.227
		c3.592,5.264-1.873,6.889-4.12,9.207c-16.183,16.695-36.932,23.609-59.271,26.869c-4.907,0.715-9.837,1.281-15.155,1.969
		c0.7-5.453,1.016-10.674,2.092-15.732c2.537-11.939,8.688-20.041,20.98-24.861c20.281-7.957,36.259-22.648,51.394-38.051
		c0.815-0.828,1.565-1.723,2.393-2.541C390.84,98.265,391.219,98.28,392.37,97.981z"/>
	<path fill-rule="evenodd" clip-rule="evenodd" fill="#FFFFFF" d="M30.465,655.003c7.949,2.182,14.923,4.131,21.916,6.006
		c8.021,2.152,16.011,2.361,24.112,0.092c6.408-1.795,12.962-3.396,19.701,0.725c-0.151-0.336,0.169,0.045,0.08,0.225
		c-6.919,14.16-8.438,29.559-10.512,44.865c-1.516,11.191-2.436,11.828-12.915,7.664c-9.609-3.818-19.279-6.096-29.64-4.846
		c-1.472,0.178-2.992,0.021-4.484-0.063c-8.098-0.451-8.404-1.055-8.311-8.939C30.592,685.653,30.465,670.569,30.465,655.003z"/>
	<path fill-rule="evenodd" clip-rule="evenodd" fill="#FFFFFF" d="M581.729,654.663c0,16.93-0.206,32.709,0.137,48.479
		c0.092,4.223-1.36,5.846-5.121,6.119c-3.146,0.229-6.351,0.74-9.442,0.381c-9.564-1.109-18.481,0.988-27.184,4.654
		c-1.526,0.645-3.12,1.139-4.708,1.619c-5.862,1.773-7.501,0.934-8.565-5.15c-1.116-6.379-1.349-12.938-2.799-19.227
		c-2.114-9.172-4.968-18.176-7.514-27.248c-0.259-0.924-0.568-1.834-0.843-2.713c5.536-2.639,10.987-3.053,16.58-1.172
		c14.452,4.865,28.203,1.031,41.911-3.361C576.213,656.392,578.251,655.759,581.729,654.663z"/>
	<path fill-rule="evenodd" clip-rule="evenodd" fill="#FFFFFF" d="M219.473,100.21c14.994,14.082,30.44,26.348,47.715,36.25
		c2.733,1.568,5.519,3.301,8.509,4.113c6.616,1.799,10.471,6.467,12.966,12.199c3.723,8.555,6.835,17.373,10.544,26.949
		c-30.587-2.988-58.263-9.215-78.952-32.363c-1.104-1.234-3.514-2.539-0.733-4.684c0.253-0.195-0.82-2.191-1.359-3.313
		c-1.593-3.314-2.34-5.979-0.315-10.068c2.2-4.445,2.05-10.203,2.305-15.418C220.373,109.343,219.732,104.767,219.473,100.21z"/>
	<path fill-rule="evenodd" clip-rule="evenodd" fill="#FFFFFF" d="M323.273,141.38c-10.297,11.729-11.977,24.936-13.548,38.043
		c-5.015,1.475-7.827,0.662-9.009-4.99c-1.245-5.953-3.481-11.785-5.951-17.375c-2.387-5.404-5.623-10.432-8.516-15.678
		C298.008,141.38,309.949,141.38,323.273,141.38z"/>
	<path fill-rule="evenodd" clip-rule="evenodd" fill="#FFFFFF" d="M302.785,183.815c2.419,0,4.358,0,6.608,0
		c0,2.414,0,4.645,0,7.215c-2.106,0-4.165,0-6.608,0C302.785,188.651,302.785,186.452,302.785,183.815z"/>
	<path fill-rule="evenodd" clip-rule="evenodd" d="M206.603,508.415c8.539,2.271,16.02,4.26,23.605,6.277
		c-5.965,38.723-15.417,76.244-30.542,112.918c-7.149-1.922-14.577-3.918-23.505-6.316
		C194.46,585.694,202.003,547.729,206.603,508.415z M196.579,580.405c0.854,3.176-4.978,6.01-0.234,9.412
		c-0.578,0.697-1.102,1.449-1.745,2.078c-0.936,0.916-2.303,1.563-2.869,2.646c-1.195,2.281-1.988,4.775-2.949,7.18
		c-2.292,5.73-4.586,11.463-6.979,17.441c5.876,1.541,10.804,2.83,15.627,4.094c9.901-20.195,29.014-92.33,28.121-106.529
		c-5.119-0.855-10.384-1.734-15.843-2.645c-2.64,16.348-5.197,32.193-7.731,47.885c0.737,0.127,1.511,0.26,2.284,0.391
		c-1.11,1.32-2.222,2.639-3.255,3.865c0.492,1.049,1.071,2.281,1.65,3.516c-0.985,0.297-1.97,0.596-3.445,1.041
		c3.811,3.131,3.182,5.219-0.608,5.621c0.272,1.959,0.467,3.361,0.661,4.762C198.502,580.948,197.74,580.733,196.579,580.405z"/>
	<path fill-rule="evenodd" clip-rule="evenodd" d="M441.293,621.653c-7.061,1.934-14.4,3.941-21.691,5.938
		c-8.024-11.408-30.484-93.748-30.727-112.902c7.204-1.959,14.525-3.951,22.73-6.186c3.5,19.484,5.791,38.975,10.719,57.773
		C427.225,584.974,434.774,602.976,441.293,621.653z M409.22,514.095c-5.752,1.031-11.179,2.004-16.405,2.939
		c5.742,37.006,14.612,72.031,28.722,106.195c4.973-1.318,10.018-2.656,15.549-4.123c-2.197-5.568-4.184-10.639-6.214-15.691
		c-0.212-0.527-0.707-1.379-1.029-1.361c-6.978,0.402-1.008-3.166-1.39-4.957c-5.835,0.516-3.397-2.506-1.618-5.389
		c-5.938,0.451-4.546-1.934-2.181-4.395c-1.441-1.43-7.208-0.551-2.288-4.736c0.41-0.35-0.27-2.141-0.622-3.201
		c-1.28-3.848-2.991-7.588-3.875-11.52c-1.1-4.893-1.541-9.934-2.246-14.762c-1.282,0.314-1.979,0.484-2.675,0.654
		c-0.005-0.924-0.202-1.898,0.03-2.758c0.364-1.344,1.629-2.699,1.455-3.896C412.858,536.278,411.054,525.493,409.22,514.095z"/>
	<path fill-rule="evenodd" clip-rule="evenodd" d="M291.43,582.437c-0.555,0.705-1.081,1.373-1.896,2.412c0-5.193,0-9.799,0-14.338
		c1.348-0.16,2.851,0.057,3.906-0.531c4.479-2.494,8.12-1.307,10.875,2.514c2.313,3.207,1.907,6.77-0.791,9.586
		c-3.154,3.291-6.883,3.736-10.75,0.953C292.381,582.751,291.874,582.628,291.43,582.437z M298.896,570.028
		c-0.731-0.014-1.463-0.029-2.194-0.045c-1.648,2.154-4.227,4.117-4.72,6.51c-0.682,3.305,1.938,5.537,5.271,6.061
		c2.98,0.469,6.806-2.898,6.05-5.801C302.665,574.296,300.427,572.255,298.896,570.028z"/>
	<path fill-rule="evenodd" clip-rule="evenodd" d="M297.543,338.694c-4.237-0.029-7.864-3.68-7.899-7.951
		c-0.035-4.273,3.546-7.951,7.831-8.043c4.518-0.096,8.292,3.701,8.154,8.203C305.497,335.216,301.855,338.726,297.543,338.694z
		 M303.764,329.04c-1.71-1.184-3.787-3.697-6.15-4.004c-3.497-0.451-6.347,2.408-5.604,5.82c0.48,2.215,3.413,5.057,5.642,5.465
		C301.103,336.952,303.089,334.011,303.764,329.04z"/>
	<path fill-rule="evenodd" clip-rule="evenodd" d="M289.464,453.763c-0.043-4.014,3.854-7.938,7.981-8.039
		c4.259-0.104,8.06,3.488,8.173,7.725c0.121,4.568-3.582,8.354-8.093,8.271C293.328,461.642,289.508,457.872,289.464,453.763z
		 M296.052,459.896c4.903-0.801,7.388-2.586,7.374-6.279c-0.013-3.424-2.324-5.633-5.615-5.703
		c-3.575-0.076-6.305,2.334-5.818,5.836C292.319,456.108,294.836,458.163,296.052,459.896z"/>
	<path fill-rule="evenodd" clip-rule="evenodd" d="M305.622,206.798c0.004,4.35-3.542,7.951-7.863,7.986
		c-4.307,0.035-8.022-3.514-8.136-7.77c-0.118-4.43,3.756-8.367,8.157-8.287C302.013,198.804,305.618,202.515,305.622,206.798z
		 M297.645,214.88c2.667-3.662,5.184-5.68,5.636-8.086c0.633-3.363-2.066-5.471-5.419-5.879c-3.073-0.375-6.806,3.023-5.949,5.885
		C292.645,209.247,294.949,211.224,297.645,214.88z"/>
	<path fill-rule="evenodd" clip-rule="evenodd" fill="#FFFFFF" d="M196.579,580.405c1.161,0.328,1.923,0.543,2.685,0.758
		c-0.194-1.4-0.389-2.803-0.661-4.762c3.79-0.402,4.419-2.49,0.608-5.621c1.476-0.445,2.46-0.744,3.445-1.041
		c-0.579-1.234-1.158-2.467-1.65-3.516c1.033-1.227,2.145-2.545,3.255-3.865c-0.773-0.131-1.547-0.264-2.284-0.391
		c2.534-15.691,5.092-31.537,7.731-47.885c5.459,0.91,10.724,1.789,15.843,2.645c0.893,14.199-18.22,86.334-28.121,106.529
		c-4.823-1.264-9.751-2.553-15.627-4.094c2.393-5.979,4.687-11.711,6.979-17.441c0.961-2.404,1.754-4.898,2.949-7.18
		c0.566-1.084,1.934-1.73,2.869-2.646c0.644-0.629,1.167-1.381,1.745-2.078C191.602,586.415,197.434,583.581,196.579,580.405z"/>
	<path fill-rule="evenodd" clip-rule="evenodd" fill="#FFFFFF" d="M409.22,514.095c1.834,11.398,3.639,22.184,5.213,33
		c0.174,1.197-1.091,2.553-1.455,3.896c-0.232,0.859-0.035,1.834-0.03,2.758c0.696-0.17,1.393-0.34,2.675-0.654
		c0.705,4.828,1.146,9.869,2.246,14.762c0.884,3.932,2.595,7.672,3.875,11.52c0.353,1.061,1.032,2.852,0.622,3.201
		c-4.92,4.186,0.847,3.307,2.288,4.736c-2.365,2.461-3.757,4.846,2.181,4.395c-1.779,2.883-4.217,5.904,1.618,5.389
		c0.382,1.791-5.588,5.359,1.39,4.957c0.322-0.018,0.817,0.834,1.029,1.361c2.03,5.053,4.017,10.123,6.214,15.691
		c-5.531,1.467-10.576,2.805-15.549,4.123c-14.109-34.164-22.979-69.189-28.722-106.195
		C398.041,516.099,403.468,515.126,409.22,514.095z"/>
	<path fill-rule="evenodd" clip-rule="evenodd" fill="#FFFFFF" d="M298.896,570.028c1.53,2.227,3.769,4.268,4.407,6.725
		c0.756,2.902-3.069,6.27-6.05,5.801c-3.333-0.523-5.953-2.756-5.271-6.061c0.493-2.393,3.071-4.355,4.72-6.51
		C297.434,569.999,298.165,570.015,298.896,570.028z"/>
	<path fill-rule="evenodd" clip-rule="evenodd" fill="#FFFFFF" d="M303.764,329.04c-0.675,4.971-2.661,7.912-6.113,7.281
		c-2.229-0.408-5.161-3.25-5.642-5.465c-0.742-3.412,2.107-6.271,5.604-5.82C299.977,325.343,302.054,327.856,303.764,329.04z"/>
	<path fill-rule="evenodd" clip-rule="evenodd" fill="#FFFFFF" d="M296.052,459.896c-1.216-1.732-3.732-3.787-4.06-6.146
		c-0.486-3.502,2.243-5.912,5.818-5.836c3.291,0.07,5.603,2.279,5.615,5.703C303.439,457.31,300.955,459.095,296.052,459.896z"/>
	<path fill-rule="evenodd" clip-rule="evenodd" fill="#FFFFFF" d="M297.645,214.88c-2.695-3.656-5-5.633-5.732-8.08
		c-0.856-2.861,2.876-6.26,5.949-5.885c3.353,0.408,6.052,2.516,5.419,5.879C302.828,209.2,300.312,211.218,297.645,214.88z"/>
</g>
<g>
	<path fill-rule="evenodd" clip-rule="evenodd" fill="#EAEAEA" d="M99.064,655.778c7.275-11.662,11.018-25.166,7.364-37.732
		c-4.911-16.895-1.852-34.072-5.457-50.756c-2.59-11.98-8.027-22.461-16.101-31.6c-2.129-2.41-3.723-5.107-5.064-7.979
		c-11.136-23.824-21.368-48.041-28.067-73.508c-2.338-8.887-4.612-18.047-3.715-27.549c0.589-6.223,3.519-10.865,8.771-12.736
		c8.037-2.861,13.215-0.273,17.768,9.004c2.345,4.777,4.519,9.639,6.847,14.424c2.22,4.563,5.203,8.592,9.515,11.34
		c4.364,2.783,8.046,1.506,7.634-3.252c-1-11.555,3.708-20.641,9.583-29.949c4.776-7.568,4.878-16.773,5.582-25.576
		c1.398-17.467,8.237-32.717,18.961-46.398c9.851-12.568,15.569-27.453,22.97-41.393c1.793-3.377,1.186-7.17,1.521-10.795
		c2.108,15.672,2.424,31.42,2.263,47.213c-0.146,14.305-3.03,27.98-8.345,41.203c-2.57,2.346-3.101,5.73-4.272,8.738
		c-2.884,7.406-5.712,14.871-7.597,22.582c-1.402,5.734-4.683,9.906-9.231,13.045c-3.023,2.084-4.782,4.564-5.069,8.033
		c-0.427,5.164-0.865,10.328-1.192,15.5c-2.462,3.863-3.351,8.041-1.808,12.402c5.31,15.016,1.759,29.965-0.371,44.861
		c-7.541,52.753-11.074,92.677-10.467,119.849c0.137,6.118-0.024,12.537-0.4,19.377C110.256,651.93,107.223,655.147,99.064,655.778z
		"/>
	<path fill-rule="evenodd" clip-rule="evenodd" fill="#EAEAEA" d="M458.935,262.368c0.301,17.121,2.501,34.061,6.566,50.629
		c2.28,9.291,5.875,18.398,11.438,26.41c6.927,9.977,13.48,20.031,17.332,31.775c2.313,7.051,3.844,14.219,4.462,21.436
		c1.114,12.986,5.296,24.516,13.258,34.77c1.583,2.039,1.973,4.559,2.019,7.098c0.042,2.332-0.02,4.664,0.064,6.994
		c0.105,2.969-0.48,6.809,2.292,8.252c3.214,1.674,6.744-0.475,9.856-2.031c10.458-5.23,18.715-13.027,25.766-22.232
		c1.104-1.443,2.504-3.107,4.567-2.109c2.032,0.982,1.549,3.18,1.346,4.932c-0.676,5.848-3.282,11.168-5.171,16.629
		c-7.723,22.318-17.582,43.785-26.848,65.49c-1.664,3.896-4.914,6.172-7.166,9.426c-7.848,11.336-10.063,24.156-10.581,37.391
		c-0.574,14.637,0.226,29.26,1.793,43.83c0.311,2.883-0.095,5.729-1.135,8.352c-5.01,12.639-2.83,25.055,0.682,37.535
		c0.937,3.328,3.284,5.762,4.549,8.826c-8.503-0.492-11.497-3.412-12.059-11.871c-1.501-22.564-0.774-45.203-1.992-67.764
		c-1.308-24.219-3.338-48.404-5.443-72.57c-0.585-6.727-0.43-13.258,0.954-19.791c0.965-4.557,0.779-8.895-1.602-13
		c-1.896-3.371-1.342-6.76-0.656-10.404c1.182-6.271-0.132-11.98-6.127-15.537c-5.004-2.969-7.081-7.727-8.235-13.025
		c-2.537-11.643-7.159-22.596-10.994-33.811c-0.163-0.477-0.547-0.811-0.994-1.055c-12.077-30.607-16.372-62.203-12.46-94.943
		C455.992,288.798,456.488,275.472,458.935,262.368z"/>
	<path fill-rule="evenodd" clip-rule="evenodd" fill="#E9E9E9" d="M273.789,668.698c-0.261-0.417-0.746-0.832-0.751-1.254
		c-0.289-21.657-2.111-43.339,0.892-64.953c0.578-4.158-0.583-8.259-0.694-12.376c-0.573-21.248-1.066-42.51,0.22-63.745
		c0.743-12.251,2.17-24.47-0.206-36.689c-0.221-1.137-0.409-2.309-0.386-3.46c0.83-41.358-4.529-82.556-3.021-123.941
		c0.634-17.414,2.859-34.7,3.596-52.085c0.646-15.252,1.007-30.53-0.872-45.77c-1.175-9.535-1.763-19.153-2.484-28.726
		c-1.32-17.525-2.804-35.033-4.288-52.543c-0.198-2.341-0.908-4.154-2.745-5.512c10.946,2.462,21.963,4.559,33.111,5.73
		c3.6,0.378,2.848,2.585,3.05,4.84c0.286,3.183-1.697,2.966-3.696,2.96c-4.555-0.014-9.113,0.098-13.663-0.046
		c-2.823-0.092-4.067,0.608-3.868,3.914c2.66,44.216,0.364,88.395-0.955,132.589c-1.08,36.224-1.529,72.445,1.295,108.647
		c2.055,26.344,3.004,52.76,3.512,79.193c0.838,43.557-0.207,87.069-2.35,130.562c-0.327,6.644-0.806,13.276-1.17,19.916
		C278.137,669.234,277.005,670.72,273.789,668.698z"/>
	<path fill-rule="evenodd" clip-rule="evenodd" fill="#E9E9E9" d="M161.166,287.677c2.654,11.533,3.264,23.342,4.727,35.035
		c1.464,11.689,1.833,23.461,2.539,35.209c0.419,6.967,1.415,13.914,1.526,20.879c0.24,15.154,1.977,30.193,3.345,45.248
		c0.537,5.908,3.339,10.971,8.246,15.344c11.475,10.227,25.262,16.49,38.244,24.154c1.233,0.729,3.462,1.115,3.051,2.799
		c-0.497,2.039-2.825,1.363-4.341,1.264c-10.116-0.662-20.25-1.227-30.323-2.318c-6.317-0.686-12.602-0.639-18.912-0.639
		c1.429-12.721-1.155-25.193-2.603-37.699c-2.121-18.334-4.862-36.594-7.281-54.893c-0.214-1.621-0.35-3.389,0.063-4.934
		c5.204-19.473,3.892-39.277,3.087-59.047C162.257,301.271,161.632,294.478,161.166,287.677z"/>
	<path fill-rule="evenodd" clip-rule="evenodd" fill="#E9E9E9" d="M200.6,523.712c-6.928-2.395-13.834-3.494-20.502,0.867
		c-4.591,3.004-8.533,7.016-10.736,12.328c-4.53,10.924-6.848,22.686-9.486,34.289c-1.393,6.119-3.058,12.148-4.046,18.406
		c-1.938,12.27-2.15,24.389,0.063,36.672c1.142,6.334,4.577,10.652,8.232,15.086c1.561,1.895,3.833,4.035,0.198,6.252
		c-1.642,0.115-2.305-1.309-3.147-2.451c-10.384-14.08-15.533-29.559-12.139-48.127c5.566-30.455,10.51-61.051,15.84-91.561
		c1.214-6.951,4.786-13.361,3.915-20.805c2.849,2.619,3.06,6.742,4.616,10.098c4.129,8.902,12.361,11.715,19.37,16.234
		c2.788,1.797,5.431,5.064,9.363,3.658C204.249,518.663,203.82,521.185,200.6,523.712z"/>
	<path fill-rule="evenodd" clip-rule="evenodd" fill="#E9E9E9" d="M114.07,211.714c-2.826,14.055-1.546,28.426-3.327,42.588
		c-1.355,10.783-3.711,21.188-7.768,31.24c-1.448,3.588-0.872,7.533-2.061,11.244c-1.799,5.613-5.873,9.588-9.193,14.098
		c-6.666,9.057-9.647,20.037-15.618,29.441c-3.361,5.297-6.797,10.541-10.825,15.369c11.212-38.115,22.34-76.254,33.689-114.328
		C102.172,230.618,107.667,220.901,114.07,211.714z"/>
	<path fill-rule="evenodd" clip-rule="evenodd" fill="#E9E9E9" d="M463.09,585.675c-4.865-10.953-9.275-22.035-10.115-34.188
		c-0.27-3.887-1.979-7.301-3.517-10.832c-7.021-16.137-18.722-28.039-33.404-37.199c-2.441-1.523-5.402-2.725-8.457-2.709
		c-13.237,0.068-26.047-2.57-38.791-5.791c-1.893-0.477-3.975-0.256-5.97-0.266c-5.29-0.031-10.58-0.012-16.634-0.012
		c1.583-2.416,3.304-1.914,4.742-1.977c24.24-1.049,48.489-1.922,72.717-3.193c6.417-0.336,12.771-1.879,19.153-2.867
		c-0.198,7.076,4.682,12.555,5.862,19.34c4.43,25.461,9.438,50.822,14.203,76.227C463.091,583.337,463.026,584.519,463.09,585.675z"
		/>
	<path fill-rule="evenodd" clip-rule="evenodd" fill="#E8E8E8" d="M26.918,535.269c1.384,9.861,5.651,18.766,9.657,27.674
		c5.337,11.871,10.104,23.885,12.095,36.789c0.959,6.211-0.826,12.471,0.218,18.85c1.87,11.436,2.9,23.008,4.27,34.525
		c0.167,1.412,0.943,2.459,1.878,3.436c-8.941-1.646-17.583-4.281-25.927-7.893c-0.979-3.014-0.129-5.91,0.515-8.838
		c2.673-12.146,6.518-24.078,6.032-36.779c-0.179-4.658-0.679-8.904-4.26-12.311c-1.693-1.609-2.278-3.83-2.484-6.125
		c0.98-7.248-0.485-14.264-2.322-21.172C24.074,553.966,25.469,544.636,26.918,535.269z"/>
	<path fill-rule="evenodd" clip-rule="evenodd" fill="#E8E8E8" d="M570.862,652.929c1.126-10.119,2.256-20.238,3.374-30.357
		c0.182-1.646,0.559-3.316,0.431-4.941c-1.282-16.395,4.728-30.865,11.791-45.053c1.485-2.986,2.88-5.973,3.412-9.295
		c1.85,8.574,1.703,17.1-0.5,25.607c-1.419,5.48-2.374,11.033-1.873,16.738c-2.836,4.213-0.674,8.742-0.522,13.037
		c0.286,8.107,1.944,16.119,3.049,24.17C585.609,649.944,577.944,650.884,570.862,652.929z"/>
	<path fill-rule="evenodd" clip-rule="evenodd" fill="#E8E8E8" d="M538.978,325.25c-4.393-2.313-4.876-7.262-5.843-10.967
		c-4.361-16.699-10.055-32.973-14.905-49.506c-1.084-3.693-2.212-7.543-4.847-10.27c-7.845-8.121-9.954-18.459-12.353-28.875
		c-3.4-14.76-10.646-27.023-24.3-34.75c-1.883-1.066-3.577-1.693-5.588-0.639c0.558-3.096,1.254-6.174,1.637-9.291
		c0.43-3.488,1.691-3.73,4.405-1.779c8.222,5.91,14.762,13.373,20.278,21.75c6.908,10.488,11.639,21.99,15.183,33.998
		c8.692,29.455,17.381,58.912,26.056,88.373C538.886,323.92,538.89,324.598,538.978,325.25z"/>
	<path fill-rule="evenodd" clip-rule="evenodd" fill="#E9E9E9" d="M188.142,662.138c-2.104,0.526-3.35,1.88-4.21,3.828
		c-2.793,6.326-4.645,12.963-6.557,19.559c-1.359,4.689,2.028,8.601,9.215,10.8c2.885,0.881,5.446,1.975,7.444,4.218
		c-6.399-0.937-12.796-1.893-19.199-2.797c-2.854-0.403-5.378-1.584-7.901-2.876c-0.348-0.178-3.331-3.938-3.208-5.857
		c0.675-10.522-1.438-20.922-2.063-31.397c-0.249-4.166,0.705-5.043,4.512-3.291C173.251,657.579,180.669,659.944,188.142,662.138z"
		/>
	<path fill-rule="evenodd" clip-rule="evenodd" fill="#E8E8E8" d="M466.635,188.014c-5.614-8.18-14.882-10.891-23.073-15.031
		c-12.312-6.223-25.31-10.855-38.707-14.182c-6.336-1.572-12.812-1.158-19.194,0.23c1.168-1.174,2.319-2.365,3.507-3.52
		c11.193-10.873,6.151-9.756,20.951-4.109c18.667,7.12,36.692,14.572,54.857,21.535c3.694,1.416,5.04,3.043,3.668,6.889
		C467.704,182.459,467.286,185.277,466.635,188.014z"/>
	<path fill-rule="evenodd" clip-rule="evenodd" fill="#E8E8E8" d="M224.727,157.642c-4.386,0.525-8.771,1.063-13.158,1.574
		c-11.954,1.391-23.035,5.713-33.981,10.385c-7.137,3.047-14.629,5.18-21.445,9.107c-4.49,2.59-8.132,5.629-10.238,10.402
		c-0.886-3.867-1.75-7.742-2.667-11.604c-0.78-3.283,1.929-3.453,3.779-4.113c17.438-6.217,34.905-12.348,52.36-18.51
		c3.585-1.268,7.326-2.232,10.699-3.93c4.633-2.334,8.041-1.416,10.991,2.66C222.125,155.076,223.498,156.306,224.727,157.642z"/>
	<path fill-rule="evenodd" clip-rule="evenodd" fill="#E9E9E9" d="M242.203,120.602c-1.301,4-5.068,3.959-8.421,4.596
		c-2.589,0.493-5.489,0.602-6.411,3.603c-0.94,3.06,0.318,5.51,2.743,7.549c0.867,0.729,1.588,1.62,2.485,2.31
		c3.247,2.495,4.448,4.587-1.003,5.715c-3.063,0.633-3.405,2.578-2.585,5.038c0.694,2.083,1.36,4.173,2.038,6.26
		c-4.223-2.578-7.534-6.107-10.945-9.514c-0.845-0.842-2.515-1.851-0.337-3.355c1.18-0.814,0.071-1.913-0.581-2.85
		c-2.396-3.435-2.885-6.356-0.608-10.687c2.189-4.166,2.354-9.783,1.789-14.592c-0.484-4.131,0.089-8.053,0.119-13.206
		C227.604,108.751,235.055,114.513,242.203,120.602z"/>
	<path fill-rule="evenodd" clip-rule="evenodd" fill="#E8E8E8" d="M443.958,469.667c-12.735-4.24-25.4-8.564-39.029-9.33
		c-4.622-0.26-9.495-1.281-13.688-4.15c1.222-2.283,3.34-2.016,4.93-2.172c8.921-0.875,17.759-2.951,26.79-2.309
		c8.171,0.582,14.208-2.217,17.627-9.996c0.993-2.262,2.365-4.402,4.342-6.031c-0.602,6.244-1.244,12.486-1.792,18.736
		C442.688,459.53,442.727,464.636,443.958,469.667z"/>
	<path fill-rule="evenodd" clip-rule="evenodd" fill="#E9E9E9" d="M390.049,666.794c-3.543,6.01-7.93,11.197-13.149,15.949
		c-5.618,5.117-6.839,12.113-5.229,19.609c0.365,1.703,2.518,3.473,0.354,5.391c-4.578,1.201-9.258,1.617-13.966,1.813
		c4.326-1.428,5.503-5.207,5.771-8.955c0.681-9.512-2.737-18.291-5.824-27.053c-0.437-1.236-2.106-2.039-3.205-3.045
		C366.551,669.267,378.3,668.03,390.049,666.794z"/>
	<path fill-rule="evenodd" clip-rule="evenodd" fill="#E8E8E8" d="M541.284,663.348c-1.798,0.275-3.6,0.527-5.394,0.826
		c-8.823,1.472-11.479,6.092-7.683,14.16c2.797,5.944,4.185,12.119,4.985,18.538c0.556,4.465,1.61,8.869,4.003,12.839
		c0.92,1.528,1.673,3.219,3.9,3.259c-10.907,5.284-12.507,4.562-14.514-6.975c-0.802-4.607-1.309-9.267-1.829-13.916
		c-1.032-9.22-3.425-18.071-7.571-26.432c-1.325-2.673-0.914-3.492,2.261-4.507C527.228,658.655,534.11,661.772,541.284,663.348z"/>
	<path fill-rule="evenodd" clip-rule="evenodd" fill="#E8E8E8" d="M75.015,714.843c2.989-9.512,4.694-19.301,6.611-29.063
		c0.734-3.74,3.602-6.977,4.167-11.066c1.074-7.766-0.325-9.84-8.104-11.09c-1.969-0.316-3.926-0.707-5.889-1.064
		c7.47-2.016,14.803-4.986,22.783-1.936c1.905,0.729,2.534,1.293,1.61,3.066c-7.252,13.928-7.974,29.34-10.133,44.426
		c-0.07,0.494-0.148,0.988-0.251,1.475C84.123,717.565,82.74,718.237,75.015,714.843z"/>
	<path fill-rule="evenodd" clip-rule="evenodd" fill="#E7E7E7" d="M255.554,169.886c1.546-4.707,5.251-5.949,9.696-6.195
		c4.809-0.268,9.617-0.607,14.408-1.088c4.308-0.432,8.035-2.037,10.285-6.055c2.398,4.293,5.65,12.664,7.172,22.152
		C282.949,176.708,268.833,175.431,255.554,169.886z"/>
	<path fill-rule="evenodd" clip-rule="evenodd" fill="#E5E5E5" d="M317.904,158.341c-0.354,4.924,4.834,6.447,6.427,10.232
		c0.188,0.447,1.645-1.6,3.51-0.791c10.676,4.637,21.042,3.24,30.607-2.969c2.947-1.914,6.657-0.637,9.154-3.189
		c1.235,0.182,2.781-0.008,2.45,2.049c-12.363,7.797-26.386,10.445-40.442,12.9c-5.019,0.875-10.115,1.305-15.045,1.922
		C315.235,171.511,314.662,164.589,317.904,158.341z"/>
	<path fill-rule="evenodd" clip-rule="evenodd" fill="#E8E8E8" d="M338.235,139.474c2.096,3.4,5.629,3.867,9.015,3.836
		c6.839-0.063,13.536-1.346,20.037-3.527c1.507-0.506,2.938-1.541,5.487-0.428c-15.423,10.965-32.573,9.828-49.429,10.088
		C326.458,143.355,332.215,141.216,338.235,139.474z"/>
	<path fill-rule="evenodd" clip-rule="evenodd" fill="#E8E8E8" d="M381.7,150.743c-0.555-2.508,0.882-4.525,1.877-6.531
		c1.777-3.584,0.918-5.295-3.076-5.533c-1.238-0.074-3.063,0.361-3.319-1.338c-0.229-1.529,1.584-1.887,2.644-2.6
		c0.549-0.369,1.093-0.766,1.69-1.039c6.472-2.951,11.51-6.965,11.232-14.975c-0.138,4.26,0.041,8.443,1.327,12.6
		c0.864,2.791,1.128,5.809-1.221,8.275c-0.657,4.189-3.333,7.176-6.19,9.961C385.375,150.819,383.831,152.399,381.7,150.743z"/>
	<path fill-rule="evenodd" clip-rule="evenodd" fill="#DEDEDE" d="M445.649,676.306c-0.086,1.393-0.433-6.579-7.174-17.264
		c2.412-1.381,5.184-4.008,7.596-2.428c2.268,1.484,1.438,5.23,1.163,7.91C446.832,668.456,447.016,672.497,445.649,676.306z"/>
	<path fill-rule="evenodd" clip-rule="evenodd" fill="#E5E5E5" d="M391.893,108.692c-3.375,0.623-6.136-1.293-9.137-2.213
		c2.878-3.15,5.756-6.303,9.137-10.004C391.893,101.03,391.893,104.86,391.893,108.692z"/>
	<path fill-rule="evenodd" clip-rule="evenodd" fill="#E8E8E8" d="M441.808,617.722c-6.191-14.102-11.989-28.355-16.735-43.018
		c-0.559-1.727-1.209-3.422-1.817-5.133c-2.507-2.211-1.425-5.313-1.989-8.006c-2.572-15.672-5.149-31.342-7.71-47.014
		c-0.266-1.629-0.431-3.271-0.643-4.908c2.104,2.713,2.864,6.086,3.681,9.207c5.029,19.236,10.624,38.27,17.041,57.111
		c3.884,11.404,8.896,22.531,10.838,34.563C444.931,613.358,446.367,616.687,441.808,617.722z"/>
	<path fill-rule="evenodd" clip-rule="evenodd" fill="#E8E8E8" d="M203.097,530.667c-2.053,22.445-7.214,44.119-15.951,64.932
		c-2.952,7.031-5.559,14.207-8.502,21.242c-0.938,2.242-0.87,3.768,1.484,4.795c-2.453-0.023-3.909-0.367-3.445-3.713
		c1.387-10,3.409-19.688,7.301-29.143c4.395-10.68,7.749-21.809,11.161-32.863c2.188-7.086,4.848-14.084,5.616-21.564
		C200.916,532.849,201.786,531.56,203.097,530.667z"/>
</g>
<g id="campera-solapa">
	<path id="campera-solapa-cuello-3" fill-rule="evenodd" clip-rule="evenodd" fill="none" d="M218.146,88.717
		c1.749-1.588,3.287-2.986,4.826-4.383c0.03,0.252,0.061,0.502,0.091,0.754c1.72-0.598,3.439-1.193,5.159-1.789
		c-0.154-0.223-0.309-0.443-0.463-0.666c1.62,0.137,3.239,0.273,4.859,0.41c-0.399-0.598-0.799-1.195-1.172-1.754
		c27.987-10.738,145.946-8.629,162.147,2.986c-1.084,2.781-1.453,6.281-3.387,8.219c-9.609,9.635-19.1,19.521-29.682,28.008
		c-7.904,6.338-17.314,10.85-26.262,15.797c-2.32,1.283-5.424,1.604-8.166,1.594c-15.484-0.055-30.974-0.207-46.451-0.691
		c-2.477-0.078-4.881-2.041-7.343-3.074c-1.924-0.807-4.059-1.24-5.804-2.32c-16.36-10.115-31.697-21.508-44.298-36.223
		c-1.185-1.383-2.198-2.932-3.15-4.488C218.545,90.266,218.341,89.25,218.146,88.717z"/>
	<path id="campera-solapa-cuello-2" fill-rule="evenodd" clip-rule="evenodd" fill="none" d="M392.441,98.033
		c0,8.074-0.1,15.945,0.051,23.813c0.059,3.123,0.867,6.229,0.984,9.354c0.113,3.063-0.191,6.145-0.385,9.213
		c-0.027,0.434-0.791,1.057-0.676,1.227c3.592,5.264-1.873,6.889-4.121,9.207c-16.182,16.695-36.932,23.609-59.27,26.869
		c-4.908,0.715-9.838,1.281-15.156,1.969c0.701-5.453,1.016-10.674,2.092-15.732c2.537-11.939,8.689-20.041,20.98-24.861
		c20.281-7.957,36.26-22.648,51.395-38.051c0.814-0.828,1.564-1.723,2.393-2.541C390.912,98.316,391.291,98.332,392.441,98.033z"/>
	<path id="campera-solapa-cuello-1" fill-rule="evenodd" clip-rule="evenodd" fill="none" d="M219.544,100.262
		c14.994,14.082,30.44,26.348,47.715,36.25c2.733,1.568,5.519,3.301,8.509,4.113c6.616,1.799,10.471,6.467,12.966,12.199
		c3.723,8.555,6.835,17.373,10.544,26.949c-30.587-2.988-58.263-9.215-78.952-32.363c-1.104-1.234-3.514-2.539-0.733-4.684
		c0.253-0.195-0.82-2.191-1.359-3.313c-1.593-3.314-2.34-5.979-0.315-10.068c2.2-4.445,2.05-10.203,2.305-15.418
		C220.445,109.395,219.804,104.818,219.544,100.262z"/>
	<path id="campera-solapa-solapa" fill-rule="evenodd" clip-rule="evenodd" fill="none" d="M329.215,667.789
		c-2.721,0.617-4.029,0.98-5.361,1.199c-1.299,0.215-2.621,0.391-3.932,0.395c-9.33,0.035-18.664,0.141-27.988-0.086
		c-1.773-0.043-3.514-1.463-5.27-2.248c0.026-0.545,0.052-1.088,0.078-1.633c-0.753,1.324-1.506,2.648-2.259,3.973
		c-0.364-0.029-0.729-0.059-1.094-0.088c-0.161-1.133-0.508-2.273-0.458-3.398c1.148-25.939,3.175-51.873,3.328-77.818
		c0.234-39.611-0.46-79.24-1.436-118.846c-0.89-36.107-3.558-72.188-3.813-108.291c-0.236-33.27,1.993-66.551,2.558-99.836
		c0.35-20.629-0.382-41.277-0.625-61.916c-0.015-1.299-0.002-2.6-0.002-3.172c3.392-0.441,6.344-1.111,9.306-1.158
		c9.161-0.145,18.327-0.074,27.489-0.031c2.672,0.012,6.096-1.043,5.035,5.688c1.83-3.26,2.533-4.514,3.238-5.768
		c0.41,0.053,0.822,0.104,1.234,0.156c0.176,1.678,0.518,3.359,0.5,5.035c-0.324,32.787-0.578,65.574-1.082,98.359
		c-0.404,26.297-1.963,52.604-1.479,78.877c0.539,29.262,3.689,58.48,4.098,87.738c0.484,34.783-0.799,69.59-1.205,104.387
		c-0.365,31.457-0.58,62.916-0.859,94.373C329.201,665.443,329.215,667.205,329.215,667.789z M291.501,582.488
		c0.444,0.191,0.951,0.314,1.344,0.596c3.867,2.783,7.596,2.338,10.75-0.953c2.698-2.816,3.104-6.379,0.792-9.586
		c-2.755-3.82-6.397-5.008-10.875-2.514c-1.056,0.588-2.559,0.371-3.906,0.531c0,4.539,0,9.145,0,14.338
		C290.42,583.861,290.947,583.193,291.501,582.488z M297.615,338.746c4.313,0.031,7.954-3.479,8.086-7.791
		c0.137-4.502-3.637-8.299-8.155-8.203c-4.285,0.092-7.866,3.77-7.831,8.043C289.75,335.066,293.377,338.717,297.615,338.746z
		 M289.536,453.814c0.044,4.109,3.864,7.879,8.062,7.957c4.511,0.082,8.213-3.703,8.092-8.271c-0.113-4.236-3.914-7.828-8.172-7.725
		C293.389,445.877,289.493,449.801,289.536,453.814z M305.693,206.85c-0.004-4.283-3.609-7.994-7.841-8.07
		c-4.401-0.08-8.275,3.857-8.157,8.287c0.113,4.256,3.829,7.805,8.136,7.77C302.152,214.801,305.697,211.199,305.693,206.85z"/>
	<path id="campera-solapa-botamanga-cuerpo" fill-rule="evenodd" clip-rule="evenodd" fill="none" d="M448.711,654.238
		c-0.488,7.145-0.904,13.242-1.322,19.342c-0.248,3.646-1.145,7.393-0.604,10.92c0.896,5.84-1.674,8.865-6.779,10.121
		c-16.92,4.162-33.764,8.789-50.871,12c-16.322,3.063-32.904,4.879-49.436,6.631c-7.57,0.803-15.295,0.1-22.947,0.148
		c-13.379,0.084-26.917,1.594-40.103,0.053c-29.036-3.391-58.306-5.645-86.715-13.359c-4.937-1.34-10.188-1.504-15.284-2.275
		c-8.861-1.342-10.889-3.984-11.225-12.637c-0.355-9.139-1.317-18.252-1.971-27.381c-0.115-1.598-0.017-3.211-0.017-5.223
		c1.303,0.32,2.275,0.412,3.122,0.789c24.445,10.859,50.725,13.096,76.785,16.361c10.716,1.344,21.413,2.92,32.163,3.889
		c6.238,0.563,12.566,0.225,18.852,0.127c12.628-0.197,25.32,0.203,37.873-0.912c27.656-2.455,55.238-5.725,82.859-8.602
		c10.533-1.098,20.578-3.807,30.113-8.443C444.496,655.158,446.006,654.98,448.711,654.238z"/>
	<path id="campera-solapa-bolsillo-izquierdo" fill-rule="evenodd" clip-rule="evenodd" fill="none" d="M196.651,580.457
		c1.161,0.328,1.923,0.543,2.685,0.758c-0.194-1.4-0.389-2.803-0.661-4.762c3.79-0.402,4.419-2.49,0.608-5.621
		c1.476-0.445,2.46-0.744,3.445-1.041c-0.579-1.234-1.158-2.467-1.65-3.516c1.033-1.227,2.145-2.545,3.255-3.865
		c-0.773-0.131-1.547-0.264-2.284-0.391c2.534-15.691,5.092-31.537,7.731-47.885c5.459,0.91,10.724,1.789,15.843,2.645
		c0.893,14.199-18.22,86.334-28.121,106.529c-4.823-1.264-9.751-2.553-15.627-4.094c2.393-5.979,4.687-11.711,6.979-17.441
		c0.961-2.404,1.754-4.898,2.949-7.18c0.566-1.084,1.934-1.73,2.869-2.646c0.644-0.629,1.167-1.381,1.745-2.078
		C191.673,586.467,197.505,583.633,196.651,580.457z"/>
	<path id="campera-solapa-frente-izquierdo" fill-rule="evenodd" clip-rule="evenodd" fill="none" d="M300.561,184.008
		c0,2.404,0,4.523,0,7.211c-6.995,0-13.901,0-20.964,0c-0.261,1.275-0.552,2.041-0.554,2.809
		c-0.098,36.961-0.082,73.924-0.272,110.885c-0.188,36.467-1.275,72.941-0.667,109.391c0.472,28.285,3.428,56.52,4.426,84.807
		c1.951,55.287,0.341,110.541-2.996,165.75c-0.108,1.799-0.384,3.588-0.633,5.85c-7.028-1.043-13.698-2.068-20.379-3.018
		c-23.205-3.297-46.497-6.088-69.579-10.09c-8.875-1.537-17.291-5.768-25.876-8.879c-1.001-0.363-1.877-1.32-2.594-2.184
		c-11.883-14.311-17.497-30.127-13.623-49.076c6.13-29.986,11.515-60.123,17.236-90.191c0.31-1.631,0.539-3.361,1.269-4.811
		c3.808-7.564,3.652-15.387,1.982-23.402c-0.401-1.93-0.917-4.16-0.35-5.918c4.992-15.459,0.777-30.744-0.877-46.002
		c-1.974-18.197-4.773-36.305-7.18-54.455c-0.174-1.309-0.363-2.732-0.038-3.971c6.229-23.67,4.258-47.65,2.334-71.531
		c-3.196-39.699-10.246-78.855-17.976-117.879c-0.715-3.611-0.007-5.004,3.333-6.162c22.166-7.678,44.259-15.566,66.438-23.205
		c1.491-0.514,4.2-0.193,5.156,0.838c19.709,21.27,45.495,28.461,72.954,31.887c0.991,0.125,1.996,0.154,2.983,0.303
		C296.089,183.254,298.054,183.598,300.561,184.008z M206.674,508.467c-4.6,39.314-12.143,77.279-30.441,112.879
		c8.928,2.398,16.355,4.395,23.505,6.316c15.125-36.674,24.577-74.195,30.542-112.918
		C222.694,512.727,215.213,510.738,206.674,508.467z"/>
	<path id="campera-solapa-bolsillo-derecho" fill-rule="evenodd" clip-rule="evenodd" fill="none" d="M409.291,514.146
		c1.834,11.398,3.639,22.184,5.213,33c0.174,1.197-1.09,2.553-1.455,3.896c-0.232,0.859-0.035,1.834-0.029,2.758
		c0.695-0.17,1.393-0.34,2.674-0.654c0.705,4.828,1.146,9.869,2.246,14.762c0.885,3.932,2.596,7.672,3.875,11.52
		c0.354,1.061,1.033,2.852,0.623,3.201c-4.92,4.186,0.846,3.307,2.287,4.736c-2.365,2.461-3.756,4.846,2.182,4.395
		c-1.779,2.883-4.217,5.904,1.617,5.389c0.383,1.791-5.588,5.359,1.391,4.957c0.322-0.018,0.816,0.834,1.029,1.361
		c2.029,5.053,4.016,10.123,6.213,15.691c-5.531,1.467-10.576,2.805-15.549,4.123c-14.109-34.164-22.979-69.189-28.721-106.195
		C398.113,516.15,403.539,515.178,409.291,514.146z"/>
	<path id="campera-solapa-frente-derecha" fill-rule="evenodd" clip-rule="evenodd" fill="none" d="M332.867,191.469
		c-7.238,0-14.004,0-21.1,0c0-2.76,0-4.99,0-7.398c9.727-1.598,19.428-2.912,29.01-4.824c21.127-4.217,39.615-13.449,54.146-29.742
		c2.199-2.467,4.389-2.848,7.5-1.6c21.162,8.486,42.375,16.846,63.613,25.141c2.762,1.078,3.588,2.189,3.047,5.455
		c-5.813,35.109-11.959,70.18-16.777,105.43c-3.27,23.916-5.664,48.352-1.18,72.182c3.344,17.762-1.154,34.277-2.74,51.297
		c-1.469,15.738-3.949,31.385-5.371,47.127c-0.514,5.672,0.857,11.498,1.172,17.266c0.178,3.264,0.609,6.727-0.229,9.785
		c-1.578,5.758-0.982,10.678,1.342,16.324c2.736,6.648,3.59,14.109,4.955,21.275c5.387,28.27,10.904,56.52,15.875,84.863
		c3.055,17.424-5.102,31.313-15.713,44.107c-10.059,3.828-19.828,9.525-30.23,11.127c-27.768,4.277-55.805,6.801-83.74,9.994
		c-0.955,0.109-1.945-0.082-4.031-0.191c0-7.355-0.137-14.615,0.021-21.869c0.955-43.783,2.676-87.564,2.748-131.348
		c0.053-32.271-2.221-64.541-3.084-96.822c-0.693-25.961-1.342-51.941-1.096-77.906c0.439-46.453,1.578-92.9,2.377-139.352
		C333.436,198.641,333.08,195.486,332.867,191.469z M441.365,621.705c-6.52-18.678-14.068-36.68-18.969-55.377
		c-4.928-18.799-7.219-38.289-10.719-57.773c-8.205,2.234-15.527,4.227-22.73,6.186c0.242,19.154,22.701,101.494,30.727,112.902
		C426.965,625.646,434.305,623.639,441.365,621.705z"/>
	<path id="campera-solapa-espalda" fill-rule="evenodd" clip-rule="evenodd" fill="none" d="M323.346,141.432
		c-10.297,11.729-11.977,24.936-13.549,38.043c-5.014,1.475-7.827,0.662-9.008-4.99c-1.245-5.953-3.481-11.785-5.951-17.375
		c-2.387-5.404-5.623-10.432-8.516-15.678C298.08,141.432,310.021,141.432,323.346,141.432z"/>
	<path id="campera-solapa-botamanga-derecha" fill-rule="evenodd" clip-rule="evenodd" fill="none" d="M581.801,654.715
		c0,16.93-0.207,32.709,0.137,48.479c0.092,4.223-1.361,5.846-5.121,6.119c-3.146,0.229-6.352,0.74-9.443,0.381
		c-9.564-1.109-18.48,0.988-27.184,4.654c-1.525,0.645-3.119,1.139-4.707,1.619c-5.863,1.773-7.502,0.934-8.566-5.15
		c-1.115-6.379-1.348-12.938-2.799-19.227c-2.113-9.172-4.967-18.176-7.514-27.248c-0.258-0.924-0.568-1.834-0.842-2.713
		c5.535-2.639,10.986-3.053,16.58-1.172c14.451,4.865,28.203,1.031,41.91-3.361C576.285,656.443,578.322,655.811,581.801,654.715z"
		/>
	<path id="campera-solapa-manga-derecha" fill-rule="evenodd" clip-rule="evenodd" fill="none" d="M473.836,175.428
		c6.355,6.188,12.293,11.193,17.295,17.006c10.039,11.668,16.143,25.521,20.59,40.146c16.02,52.67,31.951,105.367,48.135,157.988
		c2.777,9.035,6.447,17.814,10.014,26.584c4.836,11.895,6.197,24.371,7.494,37.006c2.938,28.631,6.469,57.199,9.758,85.795
		c1.367,11.906,2.891,23.801,3.992,35.732c0.314,3.406-0.066,7.088-1.051,10.365c-3.463,11.518-2.506,23.023-0.871,34.635
		c0.787,5.596,0.83,11.297,1.629,16.893c0.963,6.754-2.76,10.791-8.16,12.662c-9.719,3.367-19.646,6.426-29.73,8.309
		c-5.473,1.021-11.514-0.248-17.178-1.205c-6.246-1.057-12.16-2.264-18.643-0.387c-8.295,2.404-15.154-2.902-15.445-11.383
		c-0.77-22.467-0.852-44.965-2.039-67.406c-1.291-24.438-3.682-48.816-5.23-73.244c-0.426-6.73-0.047-13.609,0.861-20.297
		c0.883-6.504,0-11.637-5.49-15.93c-2.314-1.809-4.193-4.875-5.055-7.734c-6.902-22.924-13.512-45.936-20.213-68.92
		c-3.258-11.17-7.328-22.178-9.596-33.545c-3.508-17.596-2.311-35.518-0.986-53.295c3.168-42.557,10.221-84.551,18.844-126.303
		C472.859,178.42,473.047,177.957,473.836,175.428z"/>
	<path id="campera-solapa-botamanga-izquierda" fill-rule="evenodd" clip-rule="evenodd" fill="none" d="M30.537,655.055
		c7.949,2.182,14.923,4.131,21.916,6.006c8.021,2.152,16.011,2.361,24.112,0.092c6.408-1.795,12.962-3.396,19.701,0.725
		c-0.151-0.336,0.169,0.045,0.08,0.225c-6.919,14.16-8.438,29.559-10.512,44.865c-1.516,11.191-2.436,11.828-12.915,7.664
		c-9.609-3.818-19.279-6.096-29.64-4.846c-1.472,0.178-2.992,0.021-4.484-0.063c-8.098-0.451-8.404-1.055-8.311-8.939
		C30.664,685.705,30.537,670.621,30.537,655.055z"/>
	<path id="campera-solapa-manga-izquierda" fill-rule="evenodd" clip-rule="evenodd" fill="none" d="M139.327,177.084
		c3.161,17.291,6.18,33.084,8.916,48.924c5.758,33.332,9.817,66.844,11.135,100.688c0.81,20.807-3.359,40.662-9.76,60.242
		c-1.34,4.1-2.585,8.301-3.207,12.553c-2.651,18.115-11.362,33.387-21.97,47.801c-3.283,4.463-4.607,9.313-2.717,14.576
		c5.347,14.891,1.252,29.623-0.491,44.398c-2.925,24.795-6.644,49.527-8.625,74.396c-1.663,20.889-1.263,41.939-1.901,62.914
		c-0.335,11.002-7.486,15.723-18.19,13.016c-3.837-0.971-8.43-1.055-12.174,0.098c-11.484,3.531-22.611,2.902-33.805-0.852
		c-5.361-1.799-10.823-3.303-16.166-5.154c-6.632-2.297-9.459-6.207-8.68-13.113c1.942-17.201,4.369-34.346,6.3-51.547
		c0.511-4.549,0.928-9.52-0.341-13.781c-4.18-14.057-2.322-28.039-0.805-42.094c2.911-26.959,5.654-53.938,8.828-80.865
		c1.938-16.43,7.058-32.025,12.774-47.563c7.461-20.275,13.974-40.92,20.265-61.598c9.346-30.719,18.205-61.588,27.148-92.43
		c6.21-21.416,18.641-39.266,32.027-56.586C131.293,186.703,134.921,182.471,139.327,177.084z"/>
	<path fill-rule="evenodd" clip-rule="evenodd" fill="none" d="M302.857,183.867c2.418,0,4.358,0,6.608,0c0,2.414,0,4.645,0,7.215
		c-2.105,0-4.164,0-6.608,0C302.857,188.703,302.857,186.504,302.857,183.867z"/>
	<path fill-rule="evenodd" clip-rule="evenodd" fill="none" d="M298.968,570.08c1.53,2.227,3.769,4.268,4.407,6.725
		c0.755,2.902-3.069,6.27-6.05,5.801c-3.333-0.523-5.953-2.756-5.271-6.061c0.493-2.393,3.071-4.355,4.72-6.51
		C297.505,570.051,298.237,570.066,298.968,570.08z"/>
	<path fill-rule="evenodd" clip-rule="evenodd" fill="none" d="M296.124,459.947c-1.216-1.732-3.732-3.787-4.06-6.146
		c-0.486-3.502,2.243-5.912,5.818-5.836c3.291,0.07,5.603,2.279,5.615,5.703C303.511,457.361,301.027,459.146,296.124,459.947z"/>
	<path fill-rule="evenodd" clip-rule="evenodd" fill="none" d="M303.835,329.092c-0.675,4.971-2.661,7.912-6.113,7.281
		c-2.229-0.408-5.161-3.25-5.642-5.465c-0.742-3.412,2.107-6.271,5.604-5.82C300.048,325.395,302.125,327.908,303.835,329.092z"/>
	<path fill-rule="evenodd" clip-rule="evenodd" fill="none" d="M297.716,214.932c-2.695-3.656-5-5.633-5.732-8.08
		c-0.856-2.861,2.876-6.26,5.949-5.885c3.353,0.408,6.052,2.516,5.419,5.879C302.9,209.252,300.383,211.27,297.716,214.932z"/>
</g>
</svg>
