<?xml version="1.0" encoding="utf-8"?>
<!-- Generator: Adobe Illustrator 16.0.0, SVG Export Plug-In . SVG Version: 6.00 Build 0)  -->
<!DOCTYPE svg PUBLIC "-//W3C//DTD SVG 1.1//EN" "http://www.w3.org/Graphics/SVG/1.1/DTD/svg11.dtd">
<svg version="1.1" id="Layer_1" xmlns="http://www.w3.org/2000/svg" xmlns:xlink="http://www.w3.org/1999/xlink" x="0px" y="0px"
	 width="16px" height="16px" viewBox="1548 1548 16 16" enable-background="new 1548 1548 16 16" xml:space="preserve">
<g>
	<path fill="#020202" d="M1563.972,1552.7c-0.007,0.099-0.066,0.144-0.152,0.166c-0.172,0.042-0.346,0.03-0.517,0.006
		c-0.296-0.04-0.445,0.084-0.492,0.395c-0.064,0.431,0.012,0.851,0.079,1.269c0.173,1.075,0.187,2.156,0.152,3.24
		c-0.008,0.255-0.003,0.51-0.001,0.766c0.003,0.622-0.036,1.243-0.057,1.865c-0.004,0.097,0.02,0.15,0.108,0.207
		c0.303,0.19,0.467,0.488,0.525,0.848c0.021,0.129-0.049,0.235-0.134,0.325c-0.254,0.272-0.563,0.441-0.922,0.487
		c-0.12,0.016-0.142,0.061-0.137,0.172c0.014,0.335-0.002,0.668-0.089,0.992c-0.025,0.094-0.058,0.187-0.097,0.275
		c-0.087,0.195-0.224,0.303-0.443,0.287c-0.188-0.013-0.376-0.011-0.563,0c-0.269,0.016-0.442-0.123-0.568-0.353
		c-0.147-0.269-0.22-0.562-0.238-0.867c-0.008-0.12-0.038-0.157-0.16-0.148c-0.308,0.022-0.617,0.033-0.927,0.034
		c-1.74,0.009-3.48,0.022-5.222,0.014c-0.715-0.005-1.43-0.063-2.145-0.097c-0.099-0.005-0.197-0.001-0.296-0.009
		c-0.073-0.006-0.067,0.04-0.073,0.092c-0.033,0.281-0.032,0.567-0.107,0.843c-0.019,0.07-0.035,0.143-0.059,0.211
		c-0.081,0.222-0.161,0.278-0.39,0.278c-0.272,0-0.544-0.012-0.816,0.004c-0.264,0.015-0.424-0.118-0.534-0.347
		c-0.134-0.277-0.172-0.578-0.195-0.882c-0.011-0.151-0.014-0.305-0.008-0.456c0.004-0.107-0.036-0.137-0.129-0.128
		c-0.239,0.021-0.457-0.037-0.64-0.205c-0.17-0.155-0.25-0.355-0.236-0.588c0.007-0.122,0.008-0.241,0-0.363
		c-0.019-0.285,0.144-0.463,0.371-0.566c0.156-0.07,0.189-0.166,0.188-0.333c-0.007-1.306,0.003-2.611-0.008-3.917
		c-0.004-0.485,0.099-0.953,0.158-1.428c0.03-0.239,0.015-0.479,0.031-0.718c0.017-0.251,0.063-0.495,0.11-0.739
		c0.05-0.251-0.002-0.33-0.251-0.354c-0.126-0.012-0.253-0.012-0.38-0.009c-0.218,0.006-0.402-0.077-0.566-0.218
		c-0.101-0.086-0.148-0.196-0.142-0.335c0.016-0.357,0.028-0.714,0.036-1.072c0.003-0.128,0.057-0.2,0.177-0.225
		c0.219-0.044,0.439-0.033,0.658-0.012c0.179,0.017,0.274,0.131,0.313,0.325c0.04,0.203,0.033,0.41,0.032,0.615
		c0,0.128,0.018,0.254,0.057,0.375c0.035,0.106,0.098,0.188,0.208,0.222c0.234-1.019,0.534-2.002,0.899-2.964
		c0.163-0.431,0.517-0.651,0.881-0.845c0.699-0.373,1.454-0.563,2.226-0.688c1.118-0.18,2.244-0.143,3.368-0.14
		c1.113,0.002,2.215,0.108,3.292,0.432c0.61,0.183,1.106,0.515,1.445,1.086c0.058,0.098,0.09,0.205,0.12,0.313
		c0.266,0.944,0.531,1.888,0.797,2.832c0.009,0.032,0.022,0.062,0.037,0.102c0.094-0.06,0.181-0.117,0.27-0.171
		c0.049-0.029,0.052-0.069,0.051-0.123c-0.002-0.284-0.045-0.567-0.021-0.851c0.006-0.063,0.01-0.126,0.02-0.189
		c0.035-0.237,0.084-0.275,0.308-0.289c0.16-0.009,0.318-0.011,0.478,0.002c0.231,0.02,0.322,0.106,0.336,0.343
		C1564.012,1551.897,1564,1552.299,1563.972,1552.7z"/>
	<path fill="#FFFFFF" d="M1562.275,1553.324c-0.039-0.121-0.08-0.241-0.122-0.36c-0.197-0.563-0.414-1.117-0.523-1.71
		c-0.067-0.372-0.195-0.727-0.366-1.063c-0.37-0.728-0.975-1.117-1.713-1.321c-0.58-0.16-1.175-0.237-1.769-0.239
		c-1.181-0.004-2.362-0.067-3.54,0.042c-0.948,0.088-1.858,0.332-2.716,0.778c-0.279,0.145-0.465,0.355-0.588,0.65
		c-0.431,1.034-0.745,2.108-1.037,3.191c-0.039,0.143-0.011,0.237,0.098,0.318c0.033,0.025,0.064,0.053,0.096,0.079
		c0.676,0.532,1.391,1.005,2.086,1.508c0.605,0.438,1.228,0.849,1.726,1.433c0.442,0.517,0.862,1.047,1.152,1.674
		c0.294,0.638,0.574,1.283,0.867,1.939c0.075-0.078,0.124-0.151,0.163-0.231c0.114-0.235,0.229-0.472,0.337-0.711
		c0.211-0.471,0.402-0.951,0.689-1.38c0.838-1.252,1.904-2.244,3.154-3.024c0.445-0.278,0.906-0.53,1.359-0.797
		c0.192-0.114,0.377-0.242,0.546-0.394C1562.32,1553.578,1562.337,1553.508,1562.275,1553.324z"/>
	<path fill="#020202" d="M1561.578,1553.604c-0.037,0.006-0.075,0.005-0.112,0.005c-0.784,0-1.567,0-2.351,0
		c-0.769,0-1.538,0-2.308,0c-0.151,0-0.299-0.023-0.433-0.101c-0.159-0.093-0.248-0.226-0.247-0.427
		c0.004-0.903,0.001-1.806,0.002-2.708c0-0.238,0.063-0.307,0.292-0.307c0.671-0.002,1.342-0.001,2.013-0.001
		c0.596,0,1.191,0.006,1.787-0.003c0.237-0.003,0.415,0.097,0.559,0.28c0.268,0.344,0.431,0.744,0.571,1.157
		c0.2,0.592,0.356,1.196,0.429,1.822C1561.8,1553.495,1561.742,1553.577,1561.578,1553.604z"/>
	<path fill="#020202" d="M1555.241,1553.55c-0.774,0.001-1.548,0-2.321,0v0c-0.765,0-1.529,0-2.293,0c-0.028,0-0.056,0-0.084-0.001
		c-0.229-0.007-0.299-0.08-0.272-0.315c0.069-0.616,0.23-1.208,0.429-1.791c0.129-0.379,0.283-0.747,0.512-1.074
		c0.173-0.248,0.387-0.375,0.701-0.372c1.229,0.016,2.457,0.006,3.686,0.007c0.247,0,0.292,0.041,0.325,0.293
		c0.006,0.043,0.004,0.088,0.004,0.132c0,0.805,0,1.609,0,2.413C1555.928,1553.338,1555.724,1553.55,1555.241,1553.55z"/>
	<path fill="#FFFFFF" d="M1561.076,1556.821c0.682,0,1.234,0.604,1.234,1.349c0,0.744-0.553,1.349-1.234,1.349
		c-0.681,0-1.233-0.604-1.233-1.349C1559.843,1557.425,1560.396,1556.821,1561.076,1556.821z"/>
	<path fill="#FFFFFF" d="M1561.782,1555.352c0.308,0,0.558,0.25,0.558,0.558s-0.25,0.557-0.558,0.557s-0.558-0.249-0.558-0.557
		S1561.475,1555.352,1561.782,1555.352z"/>
	<path fill="#FFFFFF" d="M1551.028,1556.729c0.682,0,1.234,0.604,1.234,1.349c0,0.745-0.552,1.349-1.234,1.349
		s-1.234-0.604-1.234-1.349C1549.794,1557.333,1550.347,1556.729,1551.028,1556.729z"/>
	<path fill="#FFFFFF" d="M1550.309,1555.243c0.308,0,0.557,0.25,0.557,0.557c0,0.308-0.25,0.557-0.557,0.557
		c-0.308,0-0.558-0.249-0.558-0.557C1549.751,1555.493,1550,1555.243,1550.309,1555.243z"/>
	<path fill="#FFFFFF" d="M1548.888,1560.711c0,0,12.115,0.43,13.901,0c0,0,0.713,0.095,0.54,0.85c0,0-0.563,0.746-2.97,0.85
		c0,0-6.807-0.039-8.367-0.142c0,0-2.08,0.161-3.239-0.566C1548.753,1561.702,1548.699,1560.959,1548.888,1560.711z"/>
	<path fill="#020202" d="M1556.249,1555.514c0.009-0.517,0.019-1.034,0.029-1.551c0.1,0.002,0.2,0.005,0.3,0.01
		c-0.022,0.517-0.044,1.033-0.065,1.55C1556.425,1555.519,1556.337,1555.516,1556.249,1555.514z"/>
	<path fill="#020202" d="M1557.132,1554.419c-0.002,0.036-0.008,0.071-0.014,0.107c-0.007,0.036-0.017,0.07-0.033,0.103
		c-0.016,0.033-0.038,0.063-0.067,0.089c-0.029,0.026-0.068,0.048-0.118,0.065c0.057,0.259,0.109,0.518,0.156,0.777
		c-0.09-0.009-0.179-0.016-0.269-0.022c-0.042-0.245-0.087-0.49-0.137-0.734c-0.021-0.001-0.042-0.002-0.063-0.003
		c0.002-0.058,0.005-0.116,0.008-0.174c0.029,0.001,0.06,0.003,0.089,0.005c0.03,0.002,0.056-0.005,0.075-0.021
		c0.02-0.015,0.036-0.034,0.047-0.058c0.012-0.022,0.021-0.047,0.025-0.073c0.006-0.025,0.008-0.048,0.01-0.067
		c0.001-0.02,0.002-0.042,0-0.068s-0.006-0.05-0.015-0.074c-0.008-0.024-0.021-0.044-0.037-0.061
		c-0.018-0.017-0.04-0.026-0.068-0.028c-0.035-0.002-0.07-0.004-0.105-0.006c0.003-0.068,0.006-0.136,0.009-0.204
		c0.014,0.001,0.028,0.001,0.042,0.002c0.081,0.004,0.15,0.017,0.212,0.037c0.061,0.021,0.111,0.049,0.151,0.085
		c0.039,0.037,0.068,0.082,0.086,0.135C1557.134,1554.287,1557.139,1554.349,1557.132,1554.419z"/>
	<path fill="#020202" d="M1556.157,1555.512c-0.082-0.001-0.163,0-0.245,0c-0.001-0.083-0.001-0.166-0.002-0.25
		c0.083,0,0.167,0,0.25,0C1556.159,1555.346,1556.158,1555.429,1556.157,1555.512z"/>
	<path fill="#020202" d="M1555.23,1554.264c-0.01,0.024-0.014,0.051-0.018,0.079c-0.001,0.029-0.002,0.057,0,0.084
		c0.016,0.226,0.031,0.452,0.046,0.678c0.001,0.028,0.005,0.056,0.011,0.083c0.005,0.028,0.014,0.053,0.026,0.076
		s0.027,0.042,0.047,0.056c0.019,0.015,0.043,0.023,0.072,0.024c0.004,0.071,0.008,0.143,0.012,0.214
		c-0.077,0.002-0.14-0.008-0.193-0.033c-0.053-0.024-0.098-0.058-0.133-0.103c-0.035-0.044-0.063-0.097-0.082-0.158
		c-0.018-0.061-0.033-0.127-0.039-0.198c-0.017-0.182-0.033-0.365-0.05-0.547c-0.006-0.072-0.005-0.141,0.004-0.206
		c0.008-0.065,0.028-0.123,0.06-0.174c0.031-0.05,0.075-0.092,0.131-0.125c0.057-0.033,0.128-0.054,0.215-0.063
		c0.004,0.071,0.008,0.144,0.012,0.215c-0.032,0.005-0.057,0.017-0.076,0.034C1555.255,1554.218,1555.24,1554.239,1555.23,1554.264z
		"/>
	<path fill="#020202" d="M1555.844,1555.212c-0.012,0.063-0.034,0.12-0.065,0.168c-0.03,0.048-0.071,0.088-0.122,0.12
		c-0.05,0.031-0.114,0.05-0.19,0.057c-0.004-0.071-0.008-0.143-0.011-0.214c0.029-0.006,0.052-0.016,0.071-0.033
		c0.018-0.017,0.03-0.037,0.04-0.061c0.01-0.023,0.015-0.05,0.018-0.079c0.003-0.028,0.003-0.057,0.002-0.084
		c-0.009-0.227-0.018-0.453-0.026-0.679c-0.001-0.028-0.004-0.056-0.009-0.084c-0.004-0.028-0.014-0.054-0.026-0.077
		c-0.013-0.023-0.029-0.042-0.05-0.057c-0.021-0.015-0.047-0.023-0.079-0.025c-0.004-0.072-0.007-0.144-0.011-0.215
		c0.087-0.001,0.16,0.011,0.22,0.037c0.059,0.026,0.108,0.063,0.144,0.11c0.036,0.047,0.063,0.102,0.079,0.166
		c0.015,0.063,0.024,0.131,0.025,0.205c0.003,0.181,0.006,0.362,0.008,0.543C1555.863,1555.081,1555.856,1555.148,1555.844,1555.212
		z"/>
</g>
</svg>
